SplineFontDB: 3.0
FontName: AtomicAge-Regular
FullName: Atomic Age Regular
FamilyName: Atomic Age
Weight: Regular
Copyright: Copyright (c) 2011, Sorkin Type Co (www.sorkintype.com)\nwith Reserved Font Name "Atomic Age".
Version: 001.003
ItalicAngle: 0
UnderlinePosition: -103
UnderlineWidth: 102
Ascent: 1638
Descent: 410
sfntRevision: 0x000100c5
LayerCount: 2
Layer: 0 1 "Back"  1
Layer: 1 1 "Fore"  0
NeedsXUIDChange: 1
XUID: [1021 288 713564382 5499879]
FSType: 0
OS2Version: 2
OS2_WeightWidthSlopeOnly: 0
OS2_UseTypoMetrics: 1
CreationTime: 1319440527
ModificationTime: 1319465812
PfmFamily: 17
TTFWeight: 400
TTFWidth: 5
LineGap: 0
VLineGap: 0
Panose: 2 1 6 4 1 2 0 4 0 4
OS2TypoAscent: 2004
OS2TypoAOffset: 0
OS2TypoDescent: -556
OS2TypoDOffset: 0
OS2TypoLinegap: 0
OS2WinAscent: 2004
OS2WinAOffset: 0
OS2WinDescent: 556
OS2WinDOffset: 0
HheadAscent: 2004
HheadAOffset: 0
HheadDescent: -556
HheadDOffset: 0
OS2SubXSize: 1434
OS2SubYSize: 1331
OS2SubXOff: 0
OS2SubYOff: 287
OS2SupXSize: 1434
OS2SupYSize: 1331
OS2SupXOff: 0
OS2SupYOff: 977
OS2StrikeYSize: 130
OS2StrikeYPos: 512
OS2Vendor: 'STC '
OS2CodePages: 00000001.00000000
OS2UnicodeRanges: a00000ef.4000204a.00000000.00000000
Lookup: 258 0 0 "'kern' Horizontal Kerning in Latin lookup 0"  {"'kern' Horizontal Kerning in Latin lookup 0 subtable"  } ['kern' ('latn' <'dflt' > ) ]
MarkAttachClasses: 1
DEI: 91125
TtTable: prep
PUSHW_1
 511
SCANCTRL
PUSHB_1
 4
SCANTYPE
EndTTInstrs
LangName: 1033 "" "" "" "JamesGrieshaber: Atomic Age Regular: 2011" "" "Version 1.003" "" "Atomic Age is a trademark of Sorkin Type Co." "James Grieshaber" "James Grieshaber" "" "www.sorkintype.com" "www.typeco.com" "This Font Software is licensed under the SIL Open Font License, Version 1.1." "http://scripts.sil.org/OFL" 
GaspTable: 1 65535 15
Encoding: UnicodeBmp
UnicodeInterp: none
NameList: Adobe Glyph List
DisplaySize: -48
AntiAlias: 1
FitToEm: 1
WinInfo: 64 8 2
BeginPrivate: 6
BlueValues 25 [0 0 1047 1048 1516 1516]
OtherBlues 11 [-541 -541]

StartChar: .notdef
Encoding: 65536 -1 0
Width: 2107
Flags: HMW
HStem: -190 1826<0 1715 0 1715>
VStem: 0 1715<-190 1636 -190 1636>
LayerCount: 2
Fore
SplineSet
0 -190 m 1,0,-1
 0 1636 l 1,1,-1
 1715 1636 l 1,2,-1
 1715 -190 l 1,3,-1
 0 -190 l 1,0,-1
315 351 m 1,4,-1
 501 160 l 1,5,-1
 855 519 l 1,6,-1
 1211 160 l 1,7,-1
 1400 353 l 1,8,-1
 1041 707 l 1,9,-1
 1398 1058 l 1,10,-1
 1211 1248 l 1,11,-1
 857 892 l 1,12,-1
 505 1249 l 1,13,-1
 317 1057 l 1,14,-1
 672 705 l 1,15,-1
 315 351 l 1,4,-1
EndSplineSet
EndChar

StartChar: c
Encoding: 99 99 3
Width: 1365
Flags: HMW
HStem: 0 171<380.5 1181 481 1006> 876 171<481 910 481 481>
VStem: 243 238<254 793 793 863.5> 910 239<607 793 607 876 607 876>
LayerCount: 2
Fore
SplineSet
243 254 m 2,0,-1
 243 793 l 2,1,2
 243 899 243 899 298.5 973 c 128,-1,3
 354 1047 354 1047 433 1047 c 2,4,-1
 959 1047 l 2,5,6
 1037 1047 1037 1047 1093 972.5 c 128,-1,7
 1149 898 1149 898 1149 793 c 2,8,-1
 1149 607 l 1,9,-1
 910 607 l 1,10,-1
 910 876 l 1,11,-1
 481 876 l 1,12,-1
 481 171 l 1,13,-1
 1181 171 l 1,14,15
 1173 100 1173 100 1122.5 50 c 128,-1,16
 1072 0 1072 0 1006 0 c 2,17,-1
 433 0 l 2,18,19
 354 0 354 0 298.5 74.5 c 128,-1,20
 243 149 243 149 243 254 c 2,0,-1
EndSplineSet
EndChar

StartChar: d
Encoding: 100 100 4
Width: 1365
Flags: HMW
HStem: 0 171<374.5 889 475 731 1127 1142 475 889> 876 171<475 889 475 475>
VStem: 237 238<254 793 793 863.5> 889 238<0 1590 109 1590 171 876 876 876 1047 1590 171 1590>
LayerCount: 2
Fore
SplineSet
237 254 m 2,0,-1
 237 793 l 2,1,2
 237 899 237 899 292.5 973 c 128,-1,3
 348 1047 348 1047 427 1047 c 2,4,-1
 889 1047 l 1,5,-1
 889 1590 l 1,6,-1
 1127 1590 l 1,7,-1
 1127 171 l 1,8,-1
 1317 171 l 1,9,10
 1309 100 1309 100 1258.5 50 c 128,-1,11
 1208 0 1208 0 1142 0 c 2,12,-1
 889 0 l 1,13,-1
 889 109 l 1,14,15
 862 59 862 59 819.5 29.5 c 128,-1,16
 777 0 777 0 731 0 c 2,17,-1
 427 0 l 2,18,19
 348 0 348 0 292.5 74.5 c 128,-1,20
 237 149 237 149 237 254 c 2,0,-1
475 171 m 1,21,-1
 889 171 l 1,22,-1
 889 876 l 1,23,-1
 475 876 l 1,24,-1
 475 171 l 1,21,-1
EndSplineSet
EndChar

StartChar: f
Encoding: 102 102 5
Width: 852
Flags: HMW
HStem: 894 154<213 293 213 293 531 777> 1417 174<531 861 531 531>
VStem: 293 238<-339 -269 -269 894 1048 1336 1336 1406.5>
LayerCount: 2
Fore
SplineSet
531 -269 m 2,0,1
 531 -374 531 -374 471.5 -449.5 c 128,-1,2
 412 -525 412 -525 329 -525 c 2,3,-1
 293 -525 l 1,4,-1
 293 894 l 1,5,-1
 213 894 l 1,6,-1
 213 1048 l 1,7,-1
 293 1048 l 1,8,-1
 293 1336 l 2,9,10
 293 1442 293 1442 348.5 1516.5 c 128,-1,11
 404 1591 404 1591 483 1591 c 2,12,-1
 861 1591 l 1,13,-1
 861 1417 l 1,14,-1
 531 1417 l 1,15,-1
 531 1048 l 1,16,-1
 777 1048 l 1,17,-1
 777 894 l 1,18,-1
 531 894 l 1,19,-1
 531 -269 l 2,0,1
EndSplineSet
EndChar

StartChar: b
Encoding: 98 98 6
Width: 1365
Flags: HMW
HStem: 0 171<237 889 603.5 636 636 889 1127 1163> 113 58<475 889> 876 171<636 889 475 938>
VStem: 237 238<0 113 171 876 931 1591> 889 238<171 793 171 876 171 876>
LayerCount: 2
Fore
SplineSet
636 0 m 2,0,1
 536.830188679 0 536.830188679 0 475 113 c 1,2,-1
 475 0 l 1,3,-1
 237 0 l 1,4,-1
 237 1591 l 1,5,-1
 475 1591 l 1,6,-1
 475 931 l 1,7,8
 503 985 503 985 545.5 1016 c 128,-1,9
 588 1047 588 1047 636 1047 c 2,10,-1
 938 1047 l 2,11,12
 1016 1047 1016 1047 1071.5 972.5 c 128,-1,13
 1127 898 1127 898 1127 793 c 2,14,-1
 1127 171 l 1,15,-1
 1338 171 l 1,16,17
 1330 100 1330 100 1279.5 50 c 128,-1,18
 1229 0 1229 0 1163 0 c 2,19,-1
 636 0 l 2,0,1
475 171 m 1,20,-1
 889 171 l 1,21,-1
 889 876 l 1,22,-1
 475 876 l 1,23,-1
 475 171 l 1,20,-1
EndSplineSet
EndChar

StartChar: g
Encoding: 103 103 7
Width: 1365
Flags: HMW
HStem: -541 173<453 888 453 938 453 888> 0 171<374.5 888 475 729 1127 1163> 876 171<475 888 475 475>
VStem: 237 238<254 793 793 863.5> 888 239<-355 -285 -285 0 171 876 876 876>
LayerCount: 2
Fore
SplineSet
888 111 m 1,0,1
 826.096153846 -6.39488462184e-14 826.096153846 -6.39488462184e-14 729 0 c 2,2,-1
 427 0 l 2,3,4
 348 0 348 0 292.5 74.5 c 128,-1,5
 237 149 237 149 237 254 c 2,6,-1
 237 793 l 2,7,8
 237 899 237 899 292.5 973 c 128,-1,9
 348 1047 348 1047 427 1047 c 2,10,-1
 1127 1047 l 1,11,-1
 1127 171 l 1,12,-1
 1338 171 l 1,13,14
 1330 100 1330 100 1279.5 50 c 128,-1,15
 1229 0 1229 0 1163 0 c 2,16,-1
 1127 0 l 1,17,-1
 1127 -285 l 2,18,19
 1127 -390 1127 -390 1071 -465.5 c 128,-1,20
 1015 -541 1015 -541 938 -541 c 2,21,-1
 453 -541 l 1,22,-1
 453 -368 l 1,23,-1
 888 -368 l 1,24,-1
 888 111 l 1,0,1
475 171 m 1,25,-1
 888 171 l 1,26,-1
 888 876 l 1,27,-1
 475 876 l 1,28,-1
 475 171 l 1,25,-1
EndSplineSet
EndChar

StartChar: h
Encoding: 104 104 8
Width: 1365
Flags: HMW
HStem: 0 171<1026.5 1341 1127 1168> 876 171<636 888 476 937>
VStem: 237 239<0 876 933 1590> 888 239<254 793 171 876 171 876>
LayerCount: 2
Fore
SplineSet
476 933 m 1,0,1
 535.111111111 1047 535.111111111 1047 636 1047 c 2,2,-1
 937 1047 l 2,3,4
 1015 1047 1015 1047 1071 972.5 c 128,-1,5
 1127 898 1127 898 1127 793 c 2,6,-1
 1127 171 l 1,7,-1
 1341 171 l 1,8,9
 1333 100 1333 100 1282.5 50 c 128,-1,10
 1232 0 1232 0 1168 0 c 2,11,-1
 1079 0 l 2,12,13
 1000 0 1000 0 944 74.5 c 128,-1,14
 888 149 888 149 888 254 c 2,15,-1
 888 876 l 1,16,-1
 476 876 l 1,17,-1
 476 0 l 1,18,-1
 237 0 l 1,19,-1
 237 1590 l 1,20,-1
 476 1590 l 1,21,-1
 476 933 l 1,0,1
EndSplineSet
EndChar

StartChar: n
Encoding: 110 110 9
Width: 1401
Flags: HMW
HStem: 0 172<1069 1375 1173 1200> 1027 20G<273 512 512 512> 1028 20G<938 1023.5>
VStem: 273 239<0 430 651 1047> 932 241<254 794 172 862 172 862>
LayerCount: 2
Fore
SplineSet
273 0 m 1,0,-1
 273 1047 l 1,1,-1
 512 1047 l 1,2,-1
 512 651 l 1,3,-1
 821 971 l 1,4,5
 887 1048 887 1048 969 1048 c 0,6,7
 1051 1048 1051 1048 1112 973.5 c 128,-1,8
 1173 899 1173 899 1173 794 c 2,9,-1
 1173 172 l 1,10,-1
 1375 172 l 1,11,12
 1367 100 1367 100 1316.5 50 c 128,-1,13
 1266 0 1266 0 1200 0 c 2,14,-1
 1122 0 l 2,15,16
 1043 0 1043 0 987.5 74.5 c 128,-1,17
 932 149 932 149 932 254 c 2,18,-1
 932 862 l 1,19,-1
 512 430 l 1,20,-1
 512 0 l 1,21,-1
 273 0 l 1,0,-1
EndSplineSet
EndChar

StartChar: i
Encoding: 105 105 10
Width: 682
Flags: HMW
HStem: 0 171<355.5 670 456 496> 1027 20G<217 456 456 456>
VStem: 217 239<254 1047 171 1047>
LayerCount: 2
Fore
SplineSet
453 1338.5 m 128,-1,1
 403 1289 403 1289 333.5 1289 c 128,-1,2
 264 1289 264 1289 215 1338 c 128,-1,3
 166 1387 166 1387 166 1457 c 128,-1,4
 166 1527 166 1527 215 1576.5 c 128,-1,5
 264 1626 264 1626 334 1626 c 128,-1,6
 404 1626 404 1626 453.5 1576.5 c 128,-1,7
 503 1527 503 1527 503 1457.5 c 128,-1,0
 503 1388 503 1388 453 1338.5 c 128,-1,1
217 254 m 2,8,-1
 217 1047 l 1,9,-1
 456 1047 l 1,10,-1
 456 171 l 1,11,-1
 670 171 l 1,12,13
 663 100 663 100 612.5 50 c 128,-1,14
 562 0 562 0 496 0 c 2,15,-1
 408 0 l 2,16,17
 329 0 329 0 273 74.5 c 128,-1,18
 217 149 217 149 217 254 c 2,8,-1
EndSplineSet
EndChar

StartChar: k
Encoding: 107 107 11
Width: 1365
Flags: HMW
HStem: 0 171<998.5 1328 1098 1153> 457 168<476 671 476 860 476 671> 1027 20G<898 1149 1149 1149>
VStem: 237 239<0 457 625 1591> 860 238<254 371 171 457 171 457>
LayerCount: 2
Fore
SplineSet
237 0 m 1,0,-1
 237 1591 l 1,1,-1
 476 1591 l 1,2,-1
 476 625 l 1,3,-1
 671 625 l 1,4,-1
 898 1047 l 1,5,-1
 1149 1047 l 1,6,-1
 908 628 l 1,7,8
 990 614 990 614 1044 541.5 c 128,-1,9
 1098 469 1098 469 1098 371 c 2,10,-1
 1098 171 l 1,11,-1
 1328 171 l 1,12,13
 1320 100 1320 100 1269.5 50 c 128,-1,14
 1219 0 1219 0 1153 0 c 2,15,-1
 1050 0 l 2,16,17
 972 0 972 0 916 74.5 c 128,-1,18
 860 149 860 149 860 254 c 2,19,-1
 860 457 l 1,20,-1
 476 457 l 1,21,-1
 476 0 l 1,22,-1
 237 0 l 1,0,-1
EndSplineSet
EndChar

StartChar: l
Encoding: 108 108 12
Width: 682
Flags: HMW
HStem: 0 171<355.5 669 456 492>
VStem: 217 239<254 1591 171 1591>
LayerCount: 2
Fore
SplineSet
217 254 m 2,0,-1
 217 1591 l 1,1,-1
 456 1591 l 1,2,-1
 456 171 l 1,3,-1
 669 171 l 1,4,5
 657 93 657 93 607.5 46.5 c 128,-1,6
 558 0 558 0 492 0 c 2,7,-1
 408 0 l 2,8,9
 329 0 329 0 273 74.5 c 128,-1,10
 217 149 217 149 217 254 c 2,0,-1
EndSplineSet
EndChar

StartChar: p
Encoding: 112 112 13
Width: 1365
Flags: HMW
HStem: -541 21G<237 289 237 237> 0 172<604 636 636 888 475 1163> 112 60<475 888> 876 171<475 888 475 475>
VStem: 237 238<112 112 172 876> 888 239<172 793 171 876 171 876>
LayerCount: 2
Fore
SplineSet
636 0 m 2,0,1
 539.615384615 0 539.615384615 0 475 112 c 1,2,-1
 476 -285 l 2,3,4
 476 -390 476 -390 421.5 -465.5 c 128,-1,5
 367 -541 367 -541 289 -541 c 2,6,-1
 237 -541 l 1,7,-1
 237 1047 l 1,8,-1
 938 1047 l 2,9,10
 1016 1047 1016 1047 1071.5 972.5 c 128,-1,11
 1127 898 1127 898 1127 793 c 2,12,-1
 1127 171 l 1,13,-1
 1338 171 l 1,14,15
 1330 100 1330 100 1279.5 50 c 128,-1,16
 1229 0 1229 0 1163 0 c 2,17,-1
 636 0 l 2,0,1
475 172 m 1,18,-1
 888 172 l 1,19,-1
 888 876 l 1,20,-1
 475 876 l 1,21,-1
 475 172 l 1,18,-1
EndSplineSet
EndChar

StartChar: q
Encoding: 113 113 14
Width: 1365
Flags: HMW
HStem: -541 21G<888 1127 888 888> 0 171<374.5 888 475 704 1127 1163> 876 171<475 888 475 475>
VStem: 237 238<254 793 793 863.5> 888 239<-541 0 -541 120 -541 120 171 876 876 876>
LayerCount: 2
Fore
SplineSet
237 254 m 2,0,-1
 237 793 l 2,1,2
 237 899 237 899 292.5 973 c 128,-1,3
 348 1047 348 1047 427 1047 c 2,4,-1
 1127 1047 l 1,5,-1
 1127 171 l 1,6,-1
 1338 171 l 1,7,8
 1330 100 1330 100 1279.5 50 c 128,-1,9
 1229 0 1229 0 1163 0 c 2,10,-1
 1127 0 l 1,11,-1
 1127 -541 l 1,12,-1
 888 -541 l 1,13,-1
 888 120 l 1,14,15
 859 68 859 68 805.5 34 c 128,-1,16
 752 0 752 0 704 0 c 2,17,-1
 427 0 l 2,18,19
 348 0 348 0 292.5 74.5 c 128,-1,20
 237 149 237 149 237 254 c 2,0,-1
475 171 m 1,21,-1
 888 171 l 1,22,-1
 888 876 l 1,23,-1
 475 876 l 1,24,-1
 475 171 l 1,21,-1
EndSplineSet
EndChar

StartChar: t
Encoding: 116 116 15
Width: 855
Flags: HMW
HStem: 0 171<404.5 854 506 678> 893 154<187 267 187 267 506 755>
VStem: 267 239<254 893 171 893 1047 1325 1325 1325>
LayerCount: 2
Fore
SplineSet
267 254 m 2,0,-1
 267 893 l 1,1,-1
 187 893 l 1,2,-1
 187 1047 l 1,3,-1
 267 1047 l 1,4,-1
 267 1325 l 1,5,-1
 506 1444 l 1,6,-1
 506 1047 l 1,7,-1
 755 1047 l 1,8,-1
 755 893 l 1,9,-1
 506 893 l 1,10,-1
 506 171 l 1,11,-1
 854 171 l 1,12,13
 846 100 846 100 795 50 c 128,-1,14
 744 0 744 0 678 0 c 2,15,-1
 457 0 l 2,16,17
 378 0 378 0 322.5 74.5 c 128,-1,18
 267 149 267 149 267 254 c 2,0,-1
EndSplineSet
EndChar

StartChar: y
Encoding: 121 121 16
Width: 1365
Flags: HMW
HStem: -541 173<453 888 453 937 453 888> 0 171<374.5 888 476 728 1127 1154> 1027 20G<237 476 476 476 888 1127 1127 1127>
VStem: 237 239<254 1047 171 1047> 888 239<-355 -285 -285 0 171 1047>
LayerCount: 2
Fore
SplineSet
237 254 m 2,0,-1
 237 1047 l 1,1,-1
 476 1047 l 1,2,-1
 476 171 l 1,3,-1
 888 171 l 1,4,-1
 888 1047 l 1,5,-1
 1127 1047 l 1,6,-1
 1127 171 l 1,7,-1
 1329 171 l 1,8,9
 1321 100 1321 100 1270.5 50 c 128,-1,10
 1220 0 1220 0 1154 0 c 2,11,-1
 1127 0 l 1,12,-1
 1127 -285 l 2,13,14
 1127 -390 1127 -390 1071 -465.5 c 128,-1,15
 1015 -541 1015 -541 937 -541 c 2,16,-1
 453 -541 l 1,17,-1
 453 -368 l 1,18,-1
 888 -368 l 1,19,-1
 888 107 l 1,20,21
 861 57 861 57 818 28.5 c 128,-1,22
 775 0 775 0 728 0 c 2,23,-1
 427 0 l 2,24,25
 348 0 348 0 292.5 74.5 c 128,-1,26
 237 149 237 149 237 254 c 2,0,-1
EndSplineSet
EndChar

StartChar: u
Encoding: 117 117 17
Width: 1365
Flags: HMW
HStem: 0 171<374.5 889 476 732 1127 1155 476 889> 1027 20G<237 476 476 476 889 1127 1127 1127>
VStem: 237 239<254 1047 171 1047> 889 238<0 1047 107 1047 171 1047 171 1047>
LayerCount: 2
Fore
SplineSet
889 107 m 1,0,1
 824.8 -7.81597009336e-14 824.8 -7.81597009336e-14 732 0 c 2,2,-1
 427 0 l 2,3,4
 348 0 348 0 292.5 74.5 c 128,-1,5
 237 149 237 149 237 254 c 2,6,-1
 237 1047 l 1,7,-1
 476 1047 l 1,8,-1
 476 171 l 1,9,-1
 889 171 l 1,10,-1
 889 1047 l 1,11,-1
 1127 1047 l 1,12,-1
 1127 171 l 1,13,-1
 1330 171 l 1,14,15
 1322 100 1322 100 1271.5 50 c 128,-1,16
 1221 0 1221 0 1155 0 c 2,17,-1
 889 0 l 1,18,-1
 889 107 l 1,0,1
EndSplineSet
EndChar

StartChar: v
Encoding: 118 118 18
Width: 1193
Flags: HMW
HStem: 0 21G<433 433 433 759> 0 167<433 597 597 597 597 759> 1027 20G<81 320 320 320 873 1112 1112 1112>
VStem: 81 1031<1047 1047>
LayerCount: 2
Fore
SplineSet
433 0 m 1,0,-1
 81 1047 l 1,1,-1
 320 1047 l 1,2,-1
 597 167 l 1,3,-1
 873 1047 l 1,4,-1
 1112 1047 l 1,5,-1
 759 0 l 1,6,-1
 433 0 l 1,0,-1
EndSplineSet
EndChar

StartChar: x
Encoding: 120 120 19
Width: 1193
Flags: HMW
HStem: 0 171<904 1185 904 1185> 1027 20G<113 347 347 347 871 1105 1105 1105>
VStem: 60 1125<0 171>
LayerCount: 2
Fore
SplineSet
904 0 m 1,0,-1
 113 1047 l 1,1,-1
 347 1047 l 1,2,-1
 1043 171 l 1,3,-1
 1185 171 l 1,4,5
 1177 101 1177 101 1128 50.5 c 128,-1,6
 1079 0 1079 0 1015 0 c 2,7,-1
 904 0 l 1,0,-1
60 0 m 1,8,-1
 871 1047 l 1,9,-1
 1105 1047 l 1,10,-1
 314 0 l 1,11,-1
 60 0 l 1,8,-1
EndSplineSet
EndChar

StartChar: z
Encoding: 122 122 20
Width: 1193
Flags: HMW
HStem: 0 171<463 933> 876 171<230 790 230 1045>
VStem: 205 903<171 171 171 186 171 186>
LayerCount: 2
Fore
SplineSet
205 0 m 1,0,-1
 205 186 l 1,1,-1
 790 876 l 1,2,-1
 230 876 l 1,3,-1
 230 1047 l 1,4,-1
 1045 1047 l 1,5,-1
 1045 863 l 1,6,-1
 463 171 l 1,7,-1
 1108 171 l 1,8,9
 1100 100 1100 100 1049.5 50 c 128,-1,10
 999 0 999 0 933 0 c 2,11,-1
 205 0 l 1,0,-1
EndSplineSet
EndChar

StartChar: w
Encoding: 119 119 21
Width: 1880
Flags: HMW
HStem: 0 172<375.5 836 476 787 1086.5 1119 1119 1436> 876 171<1675 1704 1675 1675>
VStem: 237 239<254 1047 172 1047> 836 240<172 1047 172 1047> 1436 239<184 254 254 876>
CounterMasks: 1 38
LayerCount: 2
Fore
SplineSet
237 254 m 2,0,-1
 237 1047 l 1,1,-1
 476 1047 l 1,2,-1
 476 172 l 1,3,-1
 836 172 l 1,4,-1
 836 1047 l 1,5,-1
 1076 1047 l 1,6,-1
 1076 172 l 1,7,-1
 1436 172 l 1,8,-1
 1436 1047 l 1,9,-1
 1879 1047 l 1,10,11
 1871 976 1871 976 1820.5 926 c 128,-1,12
 1770 876 1770 876 1704 876 c 2,13,-1
 1675 876 l 1,14,-1
 1675 254 l 2,15,16
 1675 149 1675 149 1619 74.5 c 128,-1,17
 1563 0 1563 0 1484 0 c 2,18,-1
 1119 0 l 2,19,20
 1070 0 1070 0 1026 33.5 c 128,-1,21
 982 67 982 67 953 124 c 1,22,23
 924 67 924 67 880 33.5 c 128,-1,24
 836 0 836 0 787 0 c 2,25,-1
 428 0 l 2,26,27
 349 0 349 0 293 74.5 c 128,-1,28
 237 149 237 149 237 254 c 2,0,-1
EndSplineSet
EndChar

StartChar: j
Encoding: 106 106 22
Width: 682
Flags: HMW
HStem: -541 173<71 217 71 267 71 217> 1027 20G<217 456 456 456>
VStem: 217 239<-355 -285 -285 1047>
LayerCount: 2
Fore
SplineSet
453 1338.5 m 128,-1,1
 403 1289 403 1289 333.5 1289 c 128,-1,2
 264 1289 264 1289 215 1338 c 128,-1,3
 166 1387 166 1387 166 1457 c 128,-1,4
 166 1527 166 1527 215 1576.5 c 128,-1,5
 264 1626 264 1626 334 1626 c 128,-1,6
 404 1626 404 1626 453.5 1576.5 c 128,-1,7
 503 1527 503 1527 503 1457.5 c 128,-1,0
 503 1388 503 1388 453 1338.5 c 128,-1,1
71 -368 m 1,8,-1
 217 -368 l 1,9,-1
 217 1047 l 1,10,-1
 456 1047 l 1,11,-1
 456 -285 l 2,12,13
 456 -390 456 -390 400.5 -465.5 c 128,-1,14
 345 -541 345 -541 267 -541 c 2,15,-1
 71 -541 l 1,16,-1
 71 -368 l 1,8,-1
EndSplineSet
EndChar

StartChar: m
Encoding: 109 109 23
Width: 1907
Flags: HMW
HStem: 0 171<1575.5 1857 1679 1682> 1027 20G<273 512 512 512> 1028 20G<873 959.5 1445.5 1531.5>
VStem: 273 239<0 415 645 1047> 868 239<0 450 681 794> 1441 238<254 794 171 855 171 855>
LayerCount: 2
Fore
SplineSet
273 0 m 1,0,-1
 273 1047 l 1,1,-1
 512 1047 l 1,2,-1
 512 645 l 1,3,-1
 755 971 l 1,4,5
 820 1048 820 1048 903.5 1048 c 0,6,7
 987 1048 987 1048 1047 973.5 c 128,-1,8
 1107 899 1107 899 1107 794 c 2,9,-1
 1107 681 l 1,10,-1
 1317 971 l 1,11,12
 1383 1048 1383 1048 1471 1048 c 0,13,14
 1559 1048 1559 1048 1619 973.5 c 128,-1,15
 1679 899 1679 899 1679 794 c 2,16,-1
 1679 171 l 1,17,-1
 1857 171 l 1,18,19
 1849 100 1849 100 1798.5 50 c 128,-1,20
 1748 0 1748 0 1682 0 c 2,21,-1
 1628 0 l 2,22,23
 1550 0 1550 0 1495.5 74.5 c 128,-1,24
 1441 149 1441 149 1441 254 c 2,25,-1
 1441 855 l 1,26,-1
 1107 450 l 1,27,-1
 1107 0 l 1,28,-1
 868 0 l 1,29,-1
 868 855 l 1,30,-1
 512 415 l 1,31,-1
 512 0 l 1,32,-1
 273 0 l 1,0,-1
EndSplineSet
EndChar

StartChar: r
Encoding: 114 114 24
Width: 1365
Flags: HMW
HStem: 0 171<959.5 1292 1060 1112> 876 171<477 821 475 1231 1060 1102>
VStem: 237 238<0 876 0 1157> 821 239<254 876 171 876>
LayerCount: 2
Fore
SplineSet
237 0 m 1,0,-1
 237 1157 l 1,1,-1
 477 1157 l 1,2,-1
 477 1047 l 1,3,-1
 1231 1047 l 1,4,5
 1224 977 1224 977 1173.5 926.5 c 128,-1,6
 1123 876 1123 876 1060 876 c 1,7,-1
 1060 171 l 1,8,-1
 1292 171 l 1,9,10
 1284 100 1284 100 1232.5 50 c 128,-1,11
 1181 0 1181 0 1112 0 c 2,12,-1
 1012 0 l 2,13,14
 933 0 933 0 877 74.5 c 128,-1,15
 821 149 821 149 821 254 c 2,16,-1
 821 876 l 1,17,-1
 475 876 l 1,18,-1
 475 0 l 1,19,-1
 237 0 l 1,0,-1
EndSplineSet
EndChar

StartChar: s
Encoding: 115 115 25
Width: 1365
Flags: HMW
HStem: 0 173<819.5 1346 974 1155>
VStem: 120 1226<0 173> 909 258
LayerCount: 2
Fore
SplineSet
120 0 m 1,0,-1
 540 1107 l 1,1,-1
 780 1107 l 1,2,3
 765 1070 765 1070 761.5 1035 c 128,-1,4
 758 1000 758 1000 765.5 975.5 c 128,-1,5
 773 951 773 951 795.5 924.5 c 128,-1,6
 818 898 818 898 832.5 883.5 c 128,-1,7
 847 869 847 869 886.5 836.5 c 128,-1,8
 926 804 926 804 940 792 c 0,9,10
 1036 717 1036 717 1103 616 c 128,-1,11
 1170 515 1170 515 1167 419.5 c 128,-1,12
 1164 324 1164 324 1108 258.5 c 128,-1,13
 1052 193 1052 193 974 173 c 1,14,-1
 1346 173 l 1,15,16
 1318 94 1318 94 1267.5 47 c 128,-1,17
 1217 0 1217 0 1155 0 c 2,18,-1
 881 0 l 2,19,20
 795 0 795 0 759 49 c 128,-1,21
 723 98 723 98 729 174 c 1,22,23
 801 182 801 182 851.5 232 c 128,-1,24
 902 282 902 282 909 379 c 0,25,26
 915.056179775 453.692883895 915.056179775 453.692883895 882.528089888 502.846441948 c 0,27,28
 840.810031079 565.887064148 840.810031079 565.887064148 810.405015539 598.943532074 c 128,-1,29
 780 632 780 632 777.5 635 c 128,-1,30
 775 638 775 638 772 641 c 0,31,32
 699 735 699 735 683 840 c 1,33,-1
 367 0 l 1,34,-1
 120 0 l 1,0,-1
EndSplineSet
EndChar

StartChar: A
Encoding: 65 65 26
Width: 1365
Flags: HMW
HStem: 0 21G<210 210 210 446 1060 1060 1060 1299> 381 171<159 1048> 1347 169<660 843 660 660>
VStem: -16 1315<0 381>
LayerCount: 2
Fore
SplineSet
660 1347 m 1,0,-1
 446 0 l 1,1,-1
 210 0 l 1,2,-1
 438 1327 l 2,3,4
 452 1408 452 1408 509.5 1462 c 128,-1,5
 567 1516 567 1516 633 1516 c 2,6,-1
 876 1516 l 2,7,8
 941 1516 941 1516 999 1461.5 c 128,-1,9
 1057 1407 1057 1407 1071 1326 c 2,10,-1
 1299 0 l 1,11,-1
 1060 0 l 1,12,-1
 843 1347 l 1,13,-1
 660 1347 l 1,0,-1
-16 381 m 1,14,15
 -8 452 -8 452 42.5 502 c 128,-1,16
 93 552 93 552 159 552 c 2,17,-1
 1070 552 l 1,18,-1
 1048 381 l 1,19,-1
 -16 381 l 1,14,15
EndSplineSet
EndChar

StartChar: one
Encoding: 49 49 27
Width: 852
Flags: HMW
HStem: 0 21G<354 354 354 593> 1078 171<200 354 200 593>
VStem: 354 239<0 1078 1078 1078>
LayerCount: 2
Fore
SplineSet
354 0 m 1,0,-1
 354 1078 l 1,1,-1
 200 1078 l 1,2,-1
 200 1249 l 1,3,-1
 593 1249 l 1,4,-1
 593 0 l 1,5,-1
 354 0 l 1,0,-1
EndSplineSet
EndChar

StartChar: B
Encoding: 66 66 28
Width: 1365
Flags: HMW
HStem: 0 171<494 966 494 1014> 565 171<121 257 121 257 494 928> 1345 171<494 928 494 494>
VStem: 257 237<171 171 171 565 736 1345> 928 237<839.5 888 888 1262> 966 239<182.5 252 252 402 182.5 565>
LayerCount: 2
Fore
SplineSet
257 0 m 1,0,-1
 257 565 l 1,1,-1
 -54 565 l 1,2,3
 -48 636 -48 636 3 686 c 128,-1,4
 54 736 54 736 121 736 c 2,5,-1
 257 736 l 1,6,-1
 257 1516 l 1,7,-1
 959 1516 l 2,8,9
 1040 1516 1040 1516 1102.5 1441.5 c 128,-1,10
 1165 1367 1165 1367 1165 1262 c 2,11,-1
 1165 888 l 2,12,13
 1165 815 1165 815 1131.5 753.5 c 128,-1,14
 1098 692 1098 692 1036 656 c 1,15,16
 1118 626 1118 626 1161.5 552.5 c 128,-1,17
 1205 479 1205 479 1205 402 c 2,18,-1
 1205 252 l 2,19,20
 1205 148 1205 148 1148.5 74 c 128,-1,21
 1092 0 1092 0 1014 0 c 2,22,-1
 257 0 l 1,0,-1
494 736 m 1,23,-1
 928 736 l 1,24,-1
 928 1345 l 1,25,-1
 494 1345 l 1,26,-1
 494 736 l 1,23,-1
494 171 m 1,27,-1
 966 171 l 1,28,-1
 966 565 l 1,29,-1
 494 565 l 1,30,-1
 494 171 l 1,27,-1
EndSplineSet
EndChar

StartChar: C
Encoding: 67 67 29
Width: 1365
Flags: HMW
HStem: 0 171<374.5 1284 474 1109> 1347 169<474 934 474 474>
VStem: 237 237<252 1262 1262 1333> 934 238<871 1262 871 1347 871 1347>
LayerCount: 2
Fore
SplineSet
237 252 m 2,0,-1
 237 1262 l 2,1,2
 237 1368 237 1368 292.5 1442 c 128,-1,3
 348 1516 348 1516 426 1516 c 2,4,-1
 982 1516 l 2,5,6
 1060 1516 1060 1516 1116 1442 c 128,-1,7
 1172 1368 1172 1368 1172 1262 c 2,8,-1
 1172 871 l 1,9,-1
 934 871 l 1,10,-1
 934 1347 l 1,11,-1
 474 1347 l 1,12,-1
 474 171 l 1,13,-1
 1284 171 l 1,14,15
 1276 100 1276 100 1225.5 50 c 128,-1,16
 1175 0 1175 0 1109 0 c 2,17,-1
 426 0 l 2,18,19
 349 0 349 0 293 74 c 128,-1,20
 237 148 237 148 237 252 c 2,0,-1
EndSplineSet
EndChar

StartChar: D
Encoding: 68 68 30
Width: 1365
Flags: HMW
HStem: 0 171<475 936 475 986> 1347 169<217 936>
VStem: 236 239<982 1051> 936 239<182.5 252 252 1262>
LayerCount: 2
Fore
SplineSet
237 0 m 1,0,-1
 236 982 l 2,1,2
 236 1085 236 1085 293 1159.5 c 128,-1,3
 350 1234 350 1234 430 1234 c 2,4,-1
 475 1234 l 1,5,-1
 475 171 l 1,6,-1
 936 171 l 1,7,-1
 936 1347 l 1,8,-1
 42 1347 l 1,9,10
 49 1418 49 1418 99.5 1467 c 128,-1,11
 150 1516 150 1516 217 1516 c 2,12,-1
 985 1516 l 2,13,14
 1064 1516 1064 1516 1119.5 1442 c 128,-1,15
 1175 1368 1175 1368 1175 1262 c 2,16,-1
 1175 252 l 2,17,18
 1175 148 1175 148 1120 74 c 128,-1,19
 1065 0 1065 0 986 0 c 2,20,-1
 237 0 l 1,0,-1
EndSplineSet
EndChar

StartChar: F
Encoding: 70 70 31
Width: 1193
Flags: HMW
HStem: 564 161<321 639 321 639 879 1113> 1346 170<173 639>
VStem: 639 240<-80.5 -11 -11 564 725 1346 1346 1346>
LayerCount: 2
Fore
SplineSet
1113 725 m 1,0,-1
 1114 564 l 1,1,-1
 879 564 l 1,2,-1
 879 -11 l 2,3,4
 879 -114 879 -114 820.5 -188 c 128,-1,5
 762 -262 762 -262 685 -262 c 2,6,-1
 639 -262 l 1,7,-1
 639 564 l 1,8,-1
 156 564 l 1,9,10
 162 631 162 631 210 678 c 128,-1,11
 258 725 258 725 321 725 c 2,12,-1
 639 725 l 1,13,-1
 639 1346 l 1,14,-1
 -2 1346 l 1,15,16
 6 1416 6 1416 56.5 1466 c 128,-1,17
 107 1516 107 1516 173 1516 c 2,18,-1
 879 1516 l 1,19,-1
 879 725 l 1,20,-1
 1113 725 l 1,0,-1
EndSplineSet
EndChar

StartChar: G
Encoding: 71 71 32
Width: 1385
Flags: HMW
HStem: 0 172<373.5 986 476 986 476 986> 1346 169<476 1225 476 476>
VStem: 237 239<252 1261 1261 1332> 986 239<-185 -117 -185 0 -185 0>
LayerCount: 2
Fore
SplineSet
237 252 m 2,0,-1
 237 1261 l 2,1,2
 237 1367 237 1367 292 1441 c 128,-1,3
 347 1515 347 1515 425 1515 c 2,4,-1
 1225 1515 l 1,5,-1
 1225 1346 l 1,6,-1
 476 1346 l 1,7,-1
 476 172 l 1,8,-1
 986 172 l 1,9,-1
 986 883 l 1,10,-1
 1227 883 l 1,11,-1
 1225 -117 l 2,12,13
 1225 -219 1225 -219 1170.5 -293.5 c 128,-1,14
 1116 -368 1116 -368 1040 -368 c 2,15,-1
 986 -368 l 1,16,-1
 986 0 l 1,17,-1
 425 0 l 2,18,19
 348 0 348 0 292.5 74 c 128,-1,20
 237 148 237 148 237 252 c 2,0,-1
EndSplineSet
EndChar

StartChar: H
Encoding: 72 72 33
Width: 1365
Flags: HMW
HStem: 0 21G<237 237 237 475 994 994 994 1234> 565 171<123 1019> 1496 20G<237 475 475 475 994 1234 1234 1234>
VStem: 237 238<0 1516 0 1516> 994 240<0 1516 0 1516>
LayerCount: 2
Fore
SplineSet
994 0 m 1,0,-1
 994 1516 l 1,1,-1
 1234 1516 l 1,2,-1
 1234 0 l 1,3,-1
 994 0 l 1,0,-1
237 0 m 1,4,-1
 237 1516 l 1,5,-1
 475 1516 l 1,6,-1
 475 0 l 1,7,-1
 237 0 l 1,4,-1
-52 565 m 1,8,9
 -44 636 -44 636 6.5 686 c 128,-1,10
 57 736 57 736 123 736 c 2,11,-1
 1194 736 l 1,12,13
 1186 665 1186 665 1135.5 615 c 128,-1,14
 1085 565 1085 565 1019 565 c 2,15,-1
 -52 565 l 1,8,9
EndSplineSet
EndChar

StartChar: I
Encoding: 73 73 34
Width: 1193
Flags: HMW
HStem: 0 171<396 711 396 711 396 761> 1347 169<383 711 383 383>
VStem: 177 206<1002 1262 1262 1333> 711 240<182.5 252 252 1347 1347 1347>
LayerCount: 2
Fore
SplineSet
396 0 m 1,0,-1
 396 171 l 1,1,-1
 711 171 l 1,2,-1
 711 1347 l 1,3,-1
 383 1347 l 1,4,-1
 383 1002 l 1,5,-1
 177 1002 l 1,6,-1
 177 1262 l 2,7,8
 177 1368 177 1368 232.5 1442 c 128,-1,9
 288 1516 288 1516 368 1516 c 2,10,-1
 951 1516 l 1,11,-1
 951 252 l 2,12,13
 951 148 951 148 895 74 c 128,-1,14
 839 0 839 0 761 0 c 2,15,-1
 396 0 l 1,0,-1
EndSplineSet
EndChar

StartChar: J
Encoding: 74 74 35
Width: 1365
Flags: HMW
HStem: 0 171<374 896 472 896 472 956> 1347 169<457 896 457 1147>
VStem: 237 235<252 670 171 670> 896 251<184.5 254 254 1347 1347 1347>
LayerCount: 2
Fore
SplineSet
237 252 m 2,0,-1
 237 670 l 1,1,-1
 472 670 l 1,2,-1
 472 171 l 1,3,-1
 896 171 l 1,4,-1
 896 1347 l 1,5,-1
 457 1347 l 1,6,-1
 457 1516 l 1,7,-1
 1147 1516 l 1,8,-1
 1147 254 l 2,9,10
 1147 149 1147 149 1091 74.5 c 128,-1,11
 1035 0 1035 0 956 0 c 2,12,-1
 426 0 l 2,13,14
 348 0 348 0 292.5 74 c 128,-1,15
 237 148 237 148 237 252 c 2,0,-1
EndSplineSet
EndChar

StartChar: K
Encoding: 75 75 36
Width: 1365
Flags: HMW
HStem: 0 172<1024 1392 1126 1217> 743 20<473 950 950 1002> 1496 20G<233 473 473 473 930 1184 1184 1184>
VStem: 233 240<0 595 763 1516> 886 240<252 512 172 595 172 595>
LayerCount: 2
Fore
SplineSet
233 0 m 1,0,-1
 233 1516 l 1,1,-1
 473 1516 l 1,2,-1
 473 763 l 1,3,-1
 950 763 l 2,4,5
 1027 763 1027 763 1076.5 690 c 128,-1,6
 1126 617 1126 617 1126 512 c 2,7,-1
 1126 172 l 1,8,-1
 1392 172 l 1,9,10
 1384 100 1384 100 1333.5 50 c 128,-1,11
 1283 0 1283 0 1217 0 c 2,12,-1
 1076 0 l 2,13,14
 998 0 998 0 942 74 c 128,-1,15
 886 148 886 148 886 252 c 2,16,-1
 886 595 l 1,17,-1
 473 595 l 1,18,-1
 473 0 l 1,19,-1
 233 0 l 1,0,-1
666 744 m 1,20,-1
 902 742 l 1,21,-1
 1184 1516 l 1,22,-1
 930 1516 l 1,23,-1
 666 744 l 1,20,-1
EndSplineSet
EndChar

StartChar: M
Encoding: 77 77 37
Width: 1882
Flags: HMW
HStem: 0 171<1578.5 1900 1684 1725> 1496 20G<217 456 456 456 848.5 936.5 1448.5 1536.5>
VStem: 422 34<818 1074 1074 1074> 1022 62<818 1074 1074 1074> 1445 239<252 1284 171 1320 171 1320>
LayerCount: 2
Fore
SplineSet
1022 818 m 1,0,-1
 1022 1074 l 1,1,-1
 1327 1438 l 2,2,3
 1393 1516 1393 1516 1479 1516 c 0,4,5
 1565 1516 1565 1516 1624.5 1448.5 c 128,-1,6
 1684 1381 1684 1381 1684 1284 c 2,7,-1
 1684 171 l 1,8,-1
 1900 171 l 1,9,10
 1892 100 1892 100 1841.5 50 c 128,-1,11
 1791 0 1791 0 1725 0 c 2,12,-1
 1631 0 l 2,13,14
 1553 0 1553 0 1499 73.5 c 128,-1,15
 1445 147 1445 147 1445 252 c 2,16,-1
 1445 1320 l 1,17,-1
 1022 818 l 1,0,-1
845 0 m 1,18,-1
 845 1320 l 1,19,-1
 422 818 l 1,20,-1
 422 1074 l 1,21,-1
 727 1438 l 2,22,23
 793 1516 793 1516 879 1516 c 0,24,25
 965 1516 965 1516 1024.5 1448.5 c 128,-1,26
 1084 1381 1084 1381 1084 1284 c 2,27,-1
 1084 0 l 1,28,-1
 845 0 l 1,18,-1
217 0 m 1,29,-1
 217 1516 l 1,30,-1
 456 1516 l 1,31,-1
 456 0 l 1,32,-1
 217 0 l 1,29,-1
EndSplineSet
EndChar

StartChar: O
Encoding: 79 79 38
Width: 1365
Flags: HMW
HStem: 0 171<339.5 923 442 923 442 971> 1347 169<442 923 442 442>
VStem: 203 239<252 1262 1262 1333> 923 239<1262 1333 1262 1347 1262 1347>
LayerCount: 2
Fore
SplineSet
203 252 m 2,0,-1
 203 1262 l 2,1,2
 203 1368 203 1368 258 1442 c 128,-1,3
 313 1516 313 1516 391 1516 c 2,4,-1
 971 1516 l 2,5,6
 1050 1516 1050 1516 1106 1442 c 128,-1,7
 1162 1368 1162 1368 1162 1262 c 2,8,-1
 1161 252 l 2,9,10
 1161 148 1161 148 1105 74 c 128,-1,11
 1049 0 1049 0 971 0 c 2,12,-1
 391 0 l 2,13,14
 314 0 314 0 258.5 74 c 128,-1,15
 203 148 203 148 203 252 c 2,0,-1
442 171 m 1,16,-1
 923 171 l 1,17,-1
 923 1347 l 1,18,-1
 442 1347 l 1,19,-1
 442 171 l 1,16,-1
EndSplineSet
EndChar

StartChar: Q
Encoding: 81 81 39
Width: 1365
Flags: HMW
HStem: 0 171<445 901 1004 1186> 1347 169<428 901 428 428>
VStem: 188 240<715 1262 1262 1333> 901 239<354 409 409 1262>
LayerCount: 2
Fore
SplineSet
270 0 m 1,0,1
 278 71 278 71 329 121 c 128,-1,2
 380 171 380 171 445 171 c 2,3,-1
 901 171 l 1,4,-1
 901 1347 l 1,5,-1
 428 1347 l 1,6,-1
 428 460 l 1,7,-1
 378 460 l 2,8,9
 300 460 300 460 244 534.5 c 128,-1,10
 188 609 188 609 188 715 c 2,11,-1
 188 1262 l 2,12,13
 188 1368 188 1368 243.5 1442 c 128,-1,14
 299 1516 299 1516 377 1516 c 2,15,-1
 949 1516 l 2,16,17
 1028 1516 1028 1516 1084 1442 c 128,-1,18
 1140 1368 1140 1368 1140 1262 c 2,19,-1
 1140 409 l 2,20,21
 1140 328 1140 328 1102 263.5 c 128,-1,22
 1064 199 1064 199 1004 171 c 1,23,-1
 1361 171 l 1,24,25
 1353 101 1353 101 1302.5 50.5 c 128,-1,26
 1252 0 1252 0 1186 0 c 2,27,-1
 270 0 l 1,0,1
EndSplineSet
EndChar

StartChar: R
Encoding: 82 82 40
Width: 1365
Flags: HMW
HStem: 0 172<1058 1423 1160 1248> 564 171<139 237 139 237 474 883> 1345 171<474 883 474 474>
VStem: 237 237<0 564 564 564 735 1345> 883 237<832.5 889 889 1262> 920 241<403 453.5 403 564 403 564>
LayerCount: 2
Fore
SplineSet
237 0 m 1,0,-1
 237 564 l 1,1,-1
 -36 564 l 1,2,3
 -29 635 -29 635 21.5 685 c 128,-1,4
 72 735 72 735 139 735 c 2,5,-1
 237 735 l 1,6,-1
 237 1516 l 1,7,-1
 915 1516 l 2,8,9
 996 1516 996 1516 1058 1441.5 c 128,-1,10
 1120 1367 1120 1367 1120 1262 c 2,11,-1
 1120 889 l 2,12,13
 1120 803 1120 803 1074 734.5 c 128,-1,14
 1028 666 1028 666 946 635 c 1,15,16
 948 634 948 634 951 651 c 128,-1,17
 954 668 954 668 957 667 c 0,18,19
 1024 653 1024 653 1072 608 c 0,20,21
 1161 524.5625 1161 524.5625 1161 403 c 2,22,-1
 1160 172 l 1,23,-1
 1423 172 l 1,24,25
 1415 100 1415 100 1364.5 50 c 128,-1,26
 1314 0 1314 0 1248 0 c 2,27,-1
 1110 0 l 2,28,29
 1032 0 1032 0 976 74 c 128,-1,30
 920 148 920 148 920 252 c 2,31,-1
 920 564 l 1,32,-1
 474 564 l 1,33,-1
 473 0 l 1,34,-1
 237 0 l 1,0,-1
474 735 m 1,35,-1
 883 735 l 1,36,-1
 883 1345 l 1,37,-1
 474 1345 l 1,38,-1
 474 735 l 1,35,-1
EndSplineSet
EndChar

StartChar: U
Encoding: 85 85 41
Width: 1365
Flags: HMW
HStem: 0 172<1163 1188> 0 182<352 540 447 520> 1496 20G<207 447 447 447 925 1163 1163 1163>
VStem: 207 240<252 1516 182 1516> 925 238<172 288 288 288 486 1516 172 1516>
LayerCount: 2
Fore
SplineSet
207 252 m 2,0,-1
 207 1516 l 1,1,-1
 447 1516 l 1,2,-1
 447 182 l 1,3,-1
 540 182 l 1,4,-1
 925 486 l 1,5,-1
 925 1516 l 1,6,-1
 1163 1516 l 1,7,-1
 1163 172 l 1,8,-1
 1363 172 l 1,9,10
 1355 100 1355 100 1304.5 50 c 128,-1,11
 1254 0 1254 0 1188 0 c 2,12,-1
 925 0 l 1,13,-1
 925 288 l 1,14,-1
 608 33 l 1,15,16
 570 0 570 0 520 0 c 2,17,-1
 405 0 l 2,18,19
 325 0 325 0 266 74 c 128,-1,20
 207 148 207 148 207 252 c 2,0,-1
EndSplineSet
EndChar

StartChar: E
Encoding: 69 69 42
Width: 1193
Flags: HMW
HStem: 0 171<403 1171 506 996> 564 161<149 902 149 902> 1347 169<506 1082 506 506>
VStem: 266 240<252 1262 1262 1333>
LayerCount: 2
Fore
SplineSet
266 252 m 2,0,-1
 266 1262 l 2,1,2
 266 1368 266 1368 321 1442 c 128,-1,3
 376 1516 376 1516 454 1516 c 2,4,-1
 1082 1516 l 1,5,-1
 1082 1347 l 1,6,-1
 506 1347 l 1,7,-1
 506 171 l 1,8,-1
 1171 171 l 1,9,10
 1163 100 1163 100 1112.5 50 c 128,-1,11
 1062 0 1062 0 996 0 c 2,12,-1
 456 0 l 2,13,14
 377 0 377 0 321.5 73.5 c 128,-1,15
 266 147 266 147 266 252 c 2,0,-1
-16 564 m 1,16,17
 -10 631 -10 631 38 678 c 128,-1,18
 86 725 86 725 149 725 c 2,19,-1
 902 725 l 1,20,-1
 902 564 l 1,21,-1
 -16 564 l 1,16,17
EndSplineSet
EndChar

StartChar: W
Encoding: 87 87 43
Width: 1882
Flags: HMW
HStem: 0 172<375.5 846 476 799 1098.5 1131 1131 1456> 1346 171<148 237>
VStem: 237 239<254 1346 1346 1346> 846 240<172 1517 172 1517> 1456 239<184 254 254 1517>
CounterMasks: 1 38
LayerCount: 2
Fore
SplineSet
237 254 m 2,0,-1
 237 1346 l 1,1,-1
 -27 1346 l 1,2,3
 -19 1417 -19 1417 31.5 1467 c 128,-1,4
 82 1517 82 1517 148 1517 c 2,5,-1
 476 1517 l 1,6,-1
 476 172 l 1,7,-1
 846 172 l 1,8,-1
 846 1517 l 1,9,-1
 1086 1517 l 1,10,-1
 1086 172 l 1,11,-1
 1456 172 l 1,12,-1
 1456 1517 l 1,13,-1
 1695 1517 l 1,14,-1
 1695 254 l 2,15,16
 1695 149 1695 149 1639 74.5 c 128,-1,17
 1583 0 1583 0 1504 0 c 2,18,-1
 1131 0 l 2,19,20
 1082 0 1082 0 1038 33.5 c 128,-1,21
 994 67 994 67 965 124 c 1,22,23
 936 67 936 67 892 33.5 c 128,-1,24
 848 0 848 0 799 0 c 2,25,-1
 428 0 l 2,26,27
 349 0 349 0 293 74.5 c 128,-1,28
 237 149 237 149 237 254 c 2,0,-1
EndSplineSet
EndChar

StartChar: a
Encoding: 97 97 44
Width: 1365
Flags: HMW
HStem: 0 171<374.5 889 475 730 475 1062 1127 1169> 876 172<475 889 475 475>
VStem: 237 238<251 765 765 845.5> 889 238<171 876 876 876>
LayerCount: 2
Fore
SplineSet
237 251 m 2,0,-1
 237 765 l 2,1,2
 237 886 237 886 299 967 c 128,-1,3
 361 1048 361 1048 453 1048 c 2,4,-1
 1127 1048 l 1,5,-1
 1127 171 l 1,6,-1
 1344 171 l 1,7,8
 1336 100 1336 100 1285.5 50 c 128,-1,9
 1235 0 1235 0 1169 0 c 2,10,-1
 1062 0 l 2,11,12
 1013 0 1013 0 969 33.5 c 128,-1,13
 925 67 925 67 896 124 c 1,14,15
 867 67 867 67 823 33.5 c 128,-1,16
 779 0 779 0 730 0 c 2,17,-1
 427 0 l 2,18,19
 348 0 348 0 292.5 73.5 c 128,-1,20
 237 147 237 147 237 251 c 2,0,-1
475 171 m 1,21,-1
 889 171 l 1,22,-1
 889 876 l 1,23,-1
 475 876 l 1,24,-1
 475 171 l 1,21,-1
EndSplineSet
EndChar

StartChar: o
Encoding: 111 111 45
Width: 1365
Flags: HMW
HStem: 0 171<373.5 888 476 888 476 937> 876 171<476 888 476 476 1025 1088 1025 1025>
VStem: 237 239<252 793 793 864> 888 239<182.5 252 252 651>
LayerCount: 2
Fore
SplineSet
237 252 m 2,0,-1
 237 793 l 2,1,2
 237 899 237 899 292 973 c 128,-1,3
 347 1047 347 1047 425 1047 c 2,4,-1
 1263 1047 l 1,5,6
 1255 976 1255 976 1204.5 926 c 128,-1,7
 1154 876 1154 876 1088 876 c 2,8,-1
 1025 876 l 1,9,10
 1068 845 1068 845 1097.5 785.5 c 128,-1,11
 1127 726 1127 726 1127 651 c 2,12,-1
 1127 252 l 2,13,14
 1127 148 1127 148 1071 74 c 128,-1,15
 1015 0 1015 0 937 0 c 2,16,-1
 425 0 l 2,17,18
 348 0 348 0 292.5 74 c 128,-1,19
 237 148 237 148 237 252 c 2,0,-1
476 171 m 1,20,-1
 888 171 l 1,21,-1
 888 876 l 1,22,-1
 476 876 l 1,23,-1
 476 171 l 1,20,-1
EndSplineSet
EndChar

StartChar: e
Encoding: 101 101 46
Width: 1365
Flags: HMW
HStem: 0 171<374.5 1210 476 1035> 460 140<476 909 476 1148 476 909> 876 171<476 909 476 476>
VStem: 237 239<254 460 600 793 793 863.5> 909 239<600 793 460 876 460 876>
LayerCount: 2
Fore
SplineSet
237 254 m 2,0,-1
 237 793 l 2,1,2
 237 899 237 899 292.5 973 c 128,-1,3
 348 1047 348 1047 427 1047 c 2,4,-1
 958 1047 l 2,5,6
 1036 1047 1036 1047 1092 972.5 c 128,-1,7
 1148 898 1148 898 1148 793 c 2,8,-1
 1148 460 l 1,9,-1
 476 460 l 1,10,-1
 476 171 l 1,11,-1
 1210 171 l 1,12,13
 1202 100 1202 100 1151.5 50 c 128,-1,14
 1101 0 1101 0 1035 0 c 2,15,-1
 427 0 l 2,16,17
 348 0 348 0 292.5 74.5 c 128,-1,18
 237 149 237 149 237 254 c 2,0,-1
476 600 m 1,19,-1
 909 600 l 1,20,-1
 909 876 l 1,21,-1
 476 876 l 1,22,-1
 476 600 l 1,19,-1
EndSplineSet
EndChar

StartChar: T
Encoding: 84 84 47
Width: 1365
Flags: HMW
HStem: 0 171<601 895 601 944> 1347 169<451 895 451 451 1133 1133 1133 1340>
VStem: 212 239<1022 1262 1262 1333> 895 238<183.5 253 253 1347>
LayerCount: 2
Fore
SplineSet
426 0 m 1,0,1
 434 71 434 71 484.5 121 c 128,-1,2
 535 171 535 171 601 171 c 2,3,-1
 895 171 l 1,4,-1
 895 1347 l 1,5,-1
 451 1347 l 1,6,-1
 451 1022 l 1,7,-1
 212 1022 l 1,8,-1
 212 1262 l 2,9,10
 212 1368 212 1368 267.5 1442 c 128,-1,11
 323 1516 323 1516 401 1516 c 2,12,-1
 1340 1516 l 1,13,-1
 1340 1347 l 1,14,-1
 1133 1347 l 1,15,-1
 1133 253 l 2,16,17
 1133 149 1133 149 1077 74.5 c 128,-1,18
 1021 0 1021 0 944 0 c 2,19,-1
 426 0 l 1,0,1
EndSplineSet
EndChar

StartChar: L
Encoding: 76 76 48
Width: 1193
Flags: HMW
HStem: 0 171<205 267 358 944> 1357 159<505 776 505 505>
VStem: 267 238<347 416 416 1262 1262 1333> 944 211<171 371 122 371>
LayerCount: 2
Fore
SplineSet
30 0 m 1,0,1
 37 70 37 70 87.5 120.5 c 128,-1,2
 138 171 138 171 205 171 c 2,3,-1
 267 171 l 1,4,-1
 267 1262 l 2,5,6
 267 1368 267 1368 322.5 1442 c 128,-1,7
 378 1516 378 1516 456 1516 c 2,8,-1
 776 1516 l 1,9,-1
 776 1357 l 1,10,-1
 505 1357 l 1,11,-1
 505 416 l 2,12,13
 505 320 505 320 457.5 250 c 128,-1,14
 410 180 410 180 358 171 c 1,15,-1
 944 171 l 1,16,-1
 944 371 l 1,17,-1
 1155 371 l 1,18,-1
 1155 170 l 2,19,20
 1155 100 1155 100 1101.5 50 c 128,-1,21
 1048 0 1048 0 980 0 c 2,22,-1
 30 0 l 1,0,1
EndSplineSet
EndChar

StartChar: P
Encoding: 80 80 49
Width: 1365
Flags: HMW
HStem: 0 21G<338 338 338 578> 526 171<225 337 225 338 578 578 578 1039> 1347 169<577 1039 577 577>
VStem: 337 240<697 1347> 1039 233<708 778 778 1262>
LayerCount: 2
Fore
SplineSet
338 0 m 1,0,-1
 338 526 l 1,1,-1
 50 526 l 1,2,3
 58 597 58 597 108.5 647 c 128,-1,4
 159 697 159 697 225 697 c 2,5,-1
 337 697 l 1,6,-1
 337 1516 l 1,7,-1
 1082 1516 l 2,8,9
 1160 1516 1160 1516 1216 1442 c 128,-1,10
 1272 1368 1272 1368 1272 1262 c 2,11,-1
 1272 778 l 2,12,13
 1272 673 1272 673 1216 599.5 c 128,-1,14
 1160 526 1160 526 1082 526 c 2,15,-1
 578 526 l 1,16,-1
 578 0 l 1,17,-1
 338 0 l 1,0,-1
577 697 m 1,18,-1
 1039 697 l 1,19,-1
 1039 1347 l 1,20,-1
 577 1347 l 1,21,-1
 577 697 l 1,18,-1
EndSplineSet
EndChar

StartChar: Y
Encoding: 89 89 50
Width: 1365
Flags: HMW
HStem: 0 171<475 955 475 1003> 406 172<382 570 477 548> 1345 171<210 237>
VStem: 237 240<658 1345 1345 1345> 955 238<183 251 251 618 618 618 815 1516>
LayerCount: 2
Fore
SplineSet
300 0 m 1,0,1
 308 71 308 71 358.5 121 c 128,-1,2
 409 171 409 171 475 171 c 2,3,-1
 955 171 l 1,4,-1
 955 618 l 1,5,-1
 651 434 l 1,6,7
 604 404 604 404 548 406 c 1,8,-1
 435 406 l 2,9,10
 355 406 355 406 296 480 c 128,-1,11
 237 554 237 554 237 658 c 2,12,-1
 237 1345 l 1,13,-1
 25 1345 l 1,14,15
 33 1417 33 1417 85.5 1466.5 c 128,-1,16
 138 1516 138 1516 210 1516 c 2,17,-1
 477 1516 l 1,18,-1
 477 578 l 1,19,-1
 570 578 l 1,20,-1
 955 815 l 1,21,-1
 955 1516 l 1,22,-1
 1193 1516 l 1,23,-1
 1193 251 l 2,24,25
 1193 149 1193 149 1137 74.5 c 128,-1,26
 1081 0 1081 0 1003 0 c 2,27,-1
 300 0 l 1,0,1
EndSplineSet
EndChar

StartChar: three
Encoding: 51 51 51
Width: 1365
Flags: HMW
HStem: 0 172<398.5 900 498 900 498 949> 553 171<602 900 602 900> 1078 172<498 900 498 498>
VStem: 260 238<254 322 172 322 889 996 996 1066.5> 900 240<184 254 254 393 184 553 839 894 894 996>
LayerCount: 2
Fore
SplineSet
260 254 m 2,0,-1
 260 322 l 1,1,-1
 498 322 l 1,2,-1
 498 172 l 1,3,-1
 900 172 l 1,4,-1
 900 553 l 1,5,-1
 602 553 l 1,6,-1
 602 724 l 1,7,-1
 900 724 l 1,8,-1
 900 1078 l 1,9,-1
 498 1078 l 1,10,-1
 498 889 l 1,11,-1
 260 889 l 1,12,-1
 260 996 l 2,13,14
 260 1102 260 1102 316 1176 c 128,-1,15
 372 1250 372 1250 451 1250 c 2,16,-1
 949 1250 l 2,17,18
 1028 1250 1028 1250 1084 1176 c 128,-1,19
 1140 1102 1140 1102 1140 996 c 2,20,-1
 1140 894 l 2,21,22
 1140 813 1140 813 1098 744 c 128,-1,23
 1056 675 1056 675 990 643 c 1,24,25
 1056 609 1056 609 1098 541.5 c 128,-1,26
 1140 474 1140 474 1140 393 c 2,27,-1
 1140 254 l 2,28,29
 1140 149 1140 149 1084 74.5 c 128,-1,30
 1028 0 1028 0 949 0 c 2,31,-1
 451 0 l 2,32,33
 372 0 372 0 316 74.5 c 128,-1,34
 260 149 260 149 260 254 c 2,0,-1
EndSplineSet
EndChar

StartChar: zero
Encoding: 48 48 52
Width: 1365
Flags: HMW
HStem: 0 172<404.5 860 505 860 505 909> 1059 171<505 860 505 505>
VStem: 267 238<254 975 975 1046.5> 860 238<184 254 254 975>
LayerCount: 2
Fore
SplineSet
267 254 m 2,0,-1
 267 975 l 2,1,2
 267 1082 267 1082 322.5 1156 c 128,-1,3
 378 1230 378 1230 457 1230 c 2,4,-1
 908 1230 l 2,5,6
 986 1230 986 1230 1042 1155.5 c 128,-1,7
 1098 1081 1098 1081 1098 975 c 2,8,-1
 1098 254 l 2,9,10
 1098 149 1098 149 1042 74.5 c 128,-1,11
 986 0 986 0 909 0 c 2,12,-1
 457 0 l 2,13,14
 378 0 378 0 322.5 74.5 c 128,-1,15
 267 149 267 149 267 254 c 2,0,-1
505 172 m 1,16,-1
 860 172 l 1,17,-1
 860 1059 l 1,18,-1
 505 1059 l 1,19,-1
 505 172 l 1,16,-1
EndSplineSet
EndChar

StartChar: two
Encoding: 50 50 53
Width: 1365
Flags: HMW
HStem: 0 172<522 1132 522 1132> 1078 172<522 894 522 522>
VStem: 285 237<172 288 288 339 891 996 996 1066.5> 894 238<787.5 841 841 996>
LayerCount: 2
Fore
SplineSet
285 0 m 1,0,-1
 285 288 l 2,1,2
 285 365 285 365 314.5 429.5 c 128,-1,3
 344 494 344 494 392 519 c 2,4,-1
 894 779 l 1,5,-1
 894 1078 l 1,6,-1
 522 1078 l 1,7,-1
 522 891 l 1,8,-1
 285 891 l 1,9,-1
 285 996 l 2,10,11
 285 1102 285 1102 340.5 1176 c 128,-1,12
 396 1250 396 1250 475 1250 c 2,13,-1
 942 1250 l 2,14,15
 1021 1250 1021 1250 1076.5 1176 c 128,-1,16
 1132 1102 1132 1102 1132 996 c 2,17,-1
 1132 841 l 2,18,19
 1132 761 1132 761 1100 697.5 c 128,-1,20
 1068 634 1068 634 1015 607 c 2,21,-1
 522 349 l 1,22,-1
 522 172 l 1,23,-1
 1132 172 l 1,24,-1
 1132 0 l 1,25,-1
 285 0 l 1,0,-1
EndSplineSet
EndChar

StartChar: five
Encoding: 53 53 54
Width: 1365
Flags: HMW
HStem: 0 172<434.5 891 534 891 534 939> 638 171<534 891> 1078 172<534 1093 534 534>
VStem: 297 237<254 360 172 360 809 1078> 891 237<184 254 254 552>
LayerCount: 2
Fore
SplineSet
297 254 m 2,0,-1
 297 360 l 1,1,-1
 534 360 l 1,2,-1
 534 172 l 1,3,-1
 891 172 l 1,4,-1
 891 638 l 1,5,-1
 297 638 l 1,6,-1
 297 1250 l 1,7,-1
 1093 1250 l 1,8,-1
 1093 1078 l 1,9,-1
 534 1078 l 1,10,-1
 534 809 l 1,11,-1
 939 809 l 2,12,13
 1017 809 1017 809 1072.5 734 c 128,-1,14
 1128 659 1128 659 1128 552 c 2,15,-1
 1128 254 l 2,16,17
 1128 149 1128 149 1072 74.5 c 128,-1,18
 1016 0 1016 0 939 0 c 2,19,-1
 487 0 l 2,20,21
 408 0 408 0 352.5 74.5 c 128,-1,22
 297 149 297 149 297 254 c 2,0,-1
EndSplineSet
EndChar

StartChar: six
Encoding: 54 54 55
Width: 1365
Flags: HMW
HStem: 0 172<414.5 909 514 909 514 956> 648 161<514 909 514 956> 1078 172<514 1045 514 514>
VStem: 276 238<254 648 809 996 996 1066.5> 909 240<184 254 254 552>
LayerCount: 2
Fore
SplineSet
276 254 m 2,0,-1
 276 996 l 2,1,2
 276 1102 276 1102 332 1176 c 128,-1,3
 388 1250 388 1250 467 1250 c 2,4,-1
 1045 1250 l 1,5,-1
 1045 1078 l 1,6,-1
 514 1078 l 1,7,-1
 514 809 l 1,8,-1
 956 809 l 2,9,10
 1036 809 1036 809 1092.5 734 c 128,-1,11
 1149 659 1149 659 1149 552 c 2,12,-1
 1149 254 l 2,13,14
 1149 149 1149 149 1092.5 74.5 c 128,-1,15
 1036 0 1036 0 956 0 c 2,16,-1
 467 0 l 2,17,18
 388 0 388 0 332 74.5 c 128,-1,19
 276 149 276 149 276 254 c 2,0,-1
514 172 m 1,20,-1
 909 172 l 1,21,-1
 909 648 l 1,22,-1
 514 648 l 1,23,-1
 514 172 l 1,20,-1
EndSplineSet
EndChar

StartChar: nine
Encoding: 57 57 56
Width: 1365
Flags: HMW
HStem: 0 172<387 889 387 889 387 936> 454 163<394.5 889 494 889 494 889> 1078 172<494 889 494 494>
VStem: 256 238<710 996 996 1066.5> 889 240<184 254 254 454 454 454 617 996>
LayerCount: 2
Fore
SplineSet
387 0 m 1,0,-1
 387 172 l 1,1,-1
 889 172 l 1,2,-1
 889 454 l 1,3,-1
 447 454 l 2,4,5
 368 454 368 454 312 528.5 c 128,-1,6
 256 603 256 603 256 710 c 2,7,-1
 256 996 l 2,8,9
 256 1102 256 1102 312 1176 c 128,-1,10
 368 1250 368 1250 447 1250 c 2,11,-1
 936 1250 l 2,12,13
 1016 1250 1016 1250 1072.5 1176 c 128,-1,14
 1129 1102 1129 1102 1129 996 c 2,15,-1
 1129 254 l 2,16,17
 1129 149 1129 149 1072.5 74.5 c 128,-1,18
 1016 0 1016 0 936 0 c 2,19,-1
 387 0 l 1,0,-1
494 617 m 1,20,-1
 889 617 l 1,21,-1
 889 1078 l 1,22,-1
 494 1078 l 1,23,-1
 494 617 l 1,20,-1
EndSplineSet
EndChar

StartChar: eight
Encoding: 56 56 57
Width: 1365
Flags: HMW
HStem: 0 172<410 911 510 911 510 960> 553 171<510 911 510 911> 1078 171<510 911 510 510>
VStem: 271 239<254 393 393 448.5 894 995 995 1065> 911 240<184 254 254 393 184 553 839 894 894 995>
LayerCount: 2
Fore
SplineSet
271 254 m 2,0,-1
 271 393 l 2,1,2
 271 475 271 475 312.5 542.5 c 128,-1,3
 354 610 354 610 421 643 c 1,4,5
 355 676 355 676 313 744.5 c 128,-1,6
 271 813 271 813 271 894 c 2,7,-1
 271 995 l 2,8,9
 271 1100 271 1100 327.5 1174.5 c 128,-1,10
 384 1249 384 1249 462 1249 c 2,11,-1
 960 1249 l 2,12,13
 1039 1249 1039 1249 1095 1174.5 c 128,-1,14
 1151 1100 1151 1100 1151 995 c 2,15,-1
 1151 894 l 2,16,17
 1151 813 1151 813 1109 744 c 128,-1,18
 1067 675 1067 675 1001 643 c 1,19,20
 1067 609 1067 609 1109 541.5 c 128,-1,21
 1151 474 1151 474 1151 393 c 2,22,-1
 1151 254 l 2,23,24
 1151 149 1151 149 1095 74.5 c 128,-1,25
 1039 0 1039 0 960 0 c 2,26,-1
 462 0 l 2,27,28
 384 0 384 0 327.5 74.5 c 128,-1,29
 271 149 271 149 271 254 c 2,0,-1
510 724 m 1,30,-1
 911 724 l 1,31,-1
 911 1078 l 1,32,-1
 510 1078 l 1,33,-1
 510 724 l 1,30,-1
510 172 m 1,34,-1
 911 172 l 1,35,-1
 911 553 l 1,36,-1
 510 553 l 1,37,-1
 510 172 l 1,34,-1
EndSplineSet
EndChar

StartChar: seven
Encoding: 55 55 58
Width: 1365
Flags: HMW
HStem: 0 21G<535 535 535 789> 1078 171<481 926 481 481>
VStem: 257 224<877 1078 877 1249 877 1249>
LayerCount: 2
Fore
SplineSet
535 0 m 1,0,-1
 926 1078 l 1,1,-1
 481 1078 l 1,2,-1
 481 877 l 1,3,-1
 257 877 l 1,4,-1
 257 1249 l 1,5,-1
 1148 1249 l 1,6,-1
 1148 1063 l 1,7,-1
 789 0 l 1,8,-1
 535 0 l 1,0,-1
EndSplineSet
EndChar

StartChar: four
Encoding: 52 52 59
Width: 1365
Flags: HMW
HStem: 0 21G<826 1064 826 826> 214 170<435 826 435 826 1064 1272>
VStem: 826 238<0 214 0 214 384 846>
LayerCount: 2
Fore
SplineSet
193 399 m 1,0,-1
 488 1250 l 1,1,-1
 733 1250 l 1,2,-1
 435 384 l 1,3,-1
 826 384 l 1,4,-1
 826 846 l 1,5,-1
 1064 846 l 1,6,-1
 1064 384 l 1,7,-1
 1272 384 l 1,8,-1
 1272 214 l 1,9,-1
 1064 214 l 1,10,-1
 1064 0 l 1,11,-1
 826 0 l 1,12,-1
 826 214 l 1,13,-1
 193 214 l 1,14,-1
 193 399 l 1,0,-1
EndSplineSet
EndChar

StartChar: N
Encoding: 78 78 60
Width: 1365
Flags: HMW
HStem: 0 172<1078 1413 1188 1238> 1496 20G<230 467 467 467 967.5 1052.5>
VStem: 230 237<0 944 1149 1516> 943 245<252 1284 172 1315 172 1315>
LayerCount: 2
Fore
SplineSet
230 0 m 1,0,-1
 230 1516 l 1,1,-1
 467 1516 l 1,2,-1
 467 1149 l 1,3,-1
 840 1441 l 1,4,5
 932.307692308 1516 932.307692308 1516 1005.65384615 1516 c 128,-1,6
 1079 1516 1079 1516 1133.5 1449 c 128,-1,7
 1188 1382 1188 1382 1188 1284 c 2,8,-1
 1188 172 l 1,9,-1
 1413 172 l 1,10,11
 1405 100 1405 100 1354.5 50 c 128,-1,12
 1304 0 1304 0 1238 0 c 2,13,-1
 1130 0 l 2,14,15
 1052 0 1052 0 997.5 74 c 128,-1,16
 943 148 943 148 943 252 c 2,17,-1
 943 1315 l 1,18,-1
 467 944 l 1,19,-1
 467 0 l 1,20,-1
 230 0 l 1,0,-1
EndSplineSet
EndChar

StartChar: V
Encoding: 86 86 61
Width: 1365
Flags: HMW
HStem: 0 21G<635 635 635 997> 0 171<815 815 815 997> 1345 171<203 294>
VStem: 28 1341<1345 1516>
LayerCount: 2
Fore
SplineSet
635 0 m 1,0,-1
 294 1345 l 1,1,-1
 28 1345 l 1,2,3
 36 1416 36 1416 86.5 1466 c 128,-1,4
 137 1516 137 1516 203 1516 c 2,5,-1
 502 1516 l 1,6,-1
 815 171 l 1,7,-1
 1121 1516 l 1,8,-1
 1369 1516 l 1,9,-1
 997 0 l 1,10,-1
 635 0 l 1,0,-1
EndSplineSet
EndChar

StartChar: X
Encoding: 88 88 62
Width: 1193
Flags: HMW
HStem: 0 171<926 937 874 1246 937 1071 937 937> 96 75<1069 1069> 1496 20G<62 311 311 311 830 1079 1079 1079>
VStem: 11 1235<0 171>
LayerCount: 2
Fore
SplineSet
11 0 m 1,0,-1
 830 1516 l 1,1,-1
 1079 1516 l 1,2,-1
 267 0 l 1,3,-1
 11 0 l 1,0,-1
874 0 m 1,4,-1
 62 1516 l 1,5,-1
 311 1516 l 1,6,-1
 1069 96 l 1,7,-1
 937 0 l 1,8,-1
 874 0 l 1,4,-1
937 0 m 1,9,-1
 1071 0 l 2,10,11
 1137 0 1137 0 1187.5 50 c 128,-1,12
 1238 100 1238 100 1246 171 c 1,13,-1
 926 171 l 1,14,-1
 937 0 l 1,9,-1
EndSplineSet
EndChar

StartChar: Z
Encoding: 90 90 63
Width: 1193
Flags: HMW
HStem: 0 171<439 439 439 1008> 1347 169<190 832 190 1106>
VStem: 165 1018<172 172 172 176 172 176>
LayerCount: 2
Fore
SplineSet
165 0 m 1,0,-1
 165 176 l 1,1,-1
 832 1347 l 1,2,-1
 190 1347 l 1,3,-1
 190 1516 l 1,4,-1
 1106 1516 l 1,5,-1
 1106 1343 l 1,6,-1
 439 171 l 1,7,-1
 1183 172 l 1,8,9
 1175 100 1175 100 1124.5 50 c 128,-1,10
 1074 0 1074 0 1008 0 c 2,11,-1
 165 0 l 1,0,-1
EndSplineSet
EndChar

StartChar: S
Encoding: 83 83 64
Width: 1365
Flags: HMW
HStem: 0 171<526 893 526 944> 1345 171<476 926 476 476>
VStem: 237 239<918 1262 1262 1333> 893 239<182.5 252 252 360 182.5 414 182.5 414> 926 239<966 1262 966 1345 966 1345>
LayerCount: 2
Fore
SplineSet
351 0 m 1,0,1
 359 71 359 71 409.5 121 c 128,-1,2
 460 171 460 171 526 171 c 2,3,-1
 893 171 l 1,4,-1
 893 414 l 1,5,-1
 369 675 l 2,6,7
 237 741 237 741 237 918 c 2,8,-1
 237 1262 l 2,9,10
 237 1368 237 1368 291.5 1442 c 128,-1,11
 346 1516 346 1516 424 1516 c 2,12,-1
 977 1516 l 2,13,14
 1055 1516 1055 1516 1110 1442 c 128,-1,15
 1165 1368 1165 1368 1165 1262 c 2,16,-1
 1165 966 l 1,17,-1
 926 966 l 1,18,-1
 926 1345 l 1,19,-1
 476 1345 l 1,20,-1
 476 871 l 1,21,-1
 1018 594 l 2,22,23
 1070 568 1070 568 1101 504.5 c 128,-1,24
 1132 441 1132 441 1132 360 c 2,25,-1
 1132 252 l 2,26,27
 1132 148 1132 148 1077 74 c 128,-1,28
 1022 0 1022 0 944 0 c 2,29,-1
 351 0 l 1,0,1
EndSplineSet
EndChar

StartChar: ampersand
Encoding: 38 38 65
Width: 1365
Flags: HMW
HStem: 0 171<298.5 593 410 593 410 740> 1345 171<559 808 559 559>
VStem: 159 251<254 633 633 680> 322 237<1119 1259 1259 1330.5> 808 238<1135 1260 1135 1345 1135 1345>
LayerCount: 2
Fore
SplineSet
159 254 m 2,0,-1
 159 633 l 2,1,2
 159 710.763636364 159 710.763636364 214.5 792.5 c 0,3,4
 276.472477064 883.768557131 276.472477064 883.768557131 410 904 c 1,5,-1
 379 946 l 2,6,7
 322 1023 322 1023 322 1119 c 2,8,-1
 322 1259 l 2,9,10
 322 1366 322 1366 378 1441 c 128,-1,11
 434 1516 434 1516 514 1516 c 2,12,-1
 857 1516 l 2,13,14
 936 1516 936 1516 991 1441.5 c 128,-1,15
 1046 1367 1046 1367 1046 1260 c 2,16,-1
 1046 1135 l 1,17,-1
 808 1135 l 1,18,-1
 808 1345 l 1,19,-1
 559 1345 l 1,20,-1
 559 1052 l 1,21,-1
 872 622 l 1,22,-1
 1071 944 l 1,23,-1
 1324 944 l 1,24,-1
 1008 434 l 1,25,-1
 1324 0 l 1,26,-1
 1067 0 l 1,27,-1
 890 243 l 1,28,-1
 740 0 l 1,29,-1
 350 0 l 2,30,31
 272 0 272 0 215.5 75 c 128,-1,32
 159 150 159 150 159 254 c 2,0,-1
410 171 m 1,33,-1
 593 171 l 1,34,-1
 753 431 l 1,35,-1
 539 726 l 1,36,-1
 410 726 l 1,37,-1
 410 171 l 1,33,-1
EndSplineSet
EndChar

StartChar: IJ
Encoding: 306 306 66
Width: 1365
Flags: HMW
HStem: 0 171<474 953 474 1001> 469 171<375.5 804 476 630> 1496 20G<237 476 476 476 953 1192 1192 1192>
VStem: 237 239<723 1516 640 1516> 953 239<184 254 254 1516>
LayerCount: 2
Fore
SplineSet
300 0 m 1,0,1
 307 71 307 71 357.5 121 c 128,-1,2
 408 171 408 171 474 171 c 2,3,-1
 953 171 l 1,4,-1
 953 1516 l 1,5,-1
 1192 1516 l 1,6,-1
 1192 254 l 2,7,8
 1192 149 1192 149 1136 74.5 c 128,-1,9
 1080 0 1080 0 1001 0 c 2,10,-1
 300 0 l 1,0,1
428 469 m 2,11,12
 349 469 349 469 293 543.5 c 128,-1,13
 237 618 237 618 237 723 c 2,14,-1
 237 1516 l 1,15,-1
 476 1516 l 1,16,-1
 476 640 l 1,17,-1
 804 640 l 1,18,19
 797 569 797 569 746.5 519 c 128,-1,20
 696 469 696 469 630 469 c 2,21,-1
 428 469 l 2,11,12
EndSplineSet
EndChar

StartChar: period
Encoding: 46 46 67
Width: 855
Flags: HMW
HStem: -12 337<380.5 473>
VStem: 259 337<109.5 202.5>
LayerCount: 2
Fore
SplineSet
259 156 m 128,-1,1
 259 226 259 226 308 275.5 c 128,-1,2
 357 325 357 325 427 325 c 128,-1,3
 497 325 497 325 546.5 275.5 c 128,-1,4
 596 226 596 226 596 156.5 c 0,5,6
 596 87 596 87 546 37.5 c 128,-1,7
 496 -12 496 -12 426.5 -12 c 0,8,9
 357 -12 357 -12 308 37 c 128,-1,0
 259 86 259 86 259 156 c 128,-1,1
EndSplineSet
EndChar

StartChar: acute
Encoding: 180 180 68
Width: 1233
Flags: HMW
HStem: 1430 412
VStem: 366 609
LayerCount: 2
Fore
SplineSet
427 1430 m 1,0,-1
 366 1535 l 1,1,-1
 747 1809 l 1,2,3
 810 1853 810 1853 871 1837.5 c 128,-1,4
 932 1822 932 1822 962 1756 c 128,-1,5
 992 1690 992 1690 956 1626 c 128,-1,6
 920 1562 920 1562 851 1543 c 2,7,-1
 427 1430 l 1,0,-1
EndSplineSet
EndChar

StartChar: grave
Encoding: 96 96 69
Width: 1233
Flags: HMW
HStem: 1430 412
VStem: 211 609
LayerCount: 2
Fore
SplineSet
335 1543 m 2,0,1
 266 1562 266 1562 230 1626 c 128,-1,2
 194 1690 194 1690 224 1756.5 c 0,3,4
 254 1823 254 1823 315 1838 c 128,-1,5
 376 1853 376 1853 439 1809 c 1,6,-1
 820 1535 l 1,7,-1
 759 1430 l 1,8,-1
 335 1543 l 2,0,1
EndSplineSet
EndChar

StartChar: tilde
Encoding: 732 732 70
Width: 1470
Flags: HMW
HStem: 1459 188<819 1008> 1628 188
VStem: 313 885<1518 1757>
LayerCount: 2
Fore
SplineSet
313 1518 m 1,0,1
 318 1548 318 1548 334 1625 c 0,2,3
 350 1702 350 1702 436.5 1759.5 c 128,-1,4
 523 1817 523 1817 620.5 1816 c 0,5,6
 718 1815 718 1815 793 1768.5 c 128,-1,7
 868 1722 868 1722 907 1647 c 1,8,-1
 1008 1647 l 1,9,-1
 1062 1757 l 1,10,-1
 1198 1757 l 1,11,12
 1189 1689 1189 1689 1182 1661 c 0,13,14
 1161 1571 1161 1571 1075 1514.5 c 128,-1,15
 989 1458 989 1458 889.5 1458.5 c 0,16,17
 790 1459 790 1459 713.5 1506 c 128,-1,18
 637 1553 637 1553 596 1628 c 1,19,-1
 504 1628 l 1,20,-1
 449 1518 l 1,21,-1
 313 1518 l 1,0,1
EndSplineSet
EndChar

StartChar: asciitilde
Encoding: 126 126 71
Width: 1365
Flags: HMW
HStem: 354 200<818 820> 533 200
VStem: 138 1049<417 670>
LayerCount: 2
Fore
SplineSet
138 417 m 1,0,-1
 168 519 l 2,1,2
 195 613 195 613 290.5 673.5 c 128,-1,3
 386 734 386 734 495.5 733 c 0,4,5
 605 732 605 732 689 683 c 128,-1,6
 773 634 773 634 818 554 c 1,7,-1
 975 554 l 1,8,-1
 1043 670 l 1,9,-1
 1187 670 l 1,10,-1
 1160 568 l 2,11,12
 1135 472 1135 472 1038.5 412.5 c 128,-1,13
 942 353 942 353 830.5 353.5 c 0,14,15
 719 354 719 354 632 403.5 c 128,-1,16
 545 453 545 453 498 533 c 1,17,-1
 351 533 l 1,18,-1
 282 417 l 1,19,-1
 138 417 l 1,0,-1
EndSplineSet
EndChar

StartChar: dieresis
Encoding: 168 168 72
Width: 1588
Flags: HMW
HStem: 1459 341<491.5 586 1025.5 1120>
VStem: 373 867<1577 1676.5>
LayerCount: 2
Fore
SplineSet
1192 1506 m 128,-1,1
 1144 1459 1144 1459 1072.5 1459 c 128,-1,2
 1001 1459 1001 1459 954 1505.5 c 128,-1,3
 907 1552 907 1552 907 1627 c 128,-1,4
 907 1702 907 1702 954.5 1751 c 128,-1,5
 1002 1800 1002 1800 1073 1800 c 128,-1,6
 1144 1800 1144 1800 1192 1750.5 c 128,-1,7
 1240 1701 1240 1701 1240 1627 c 128,-1,0
 1240 1553 1240 1553 1192 1506 c 128,-1,1
658 1506 m 128,-1,9
 610 1459 610 1459 538.5 1459 c 128,-1,10
 467 1459 467 1459 420 1505.5 c 128,-1,11
 373 1552 373 1552 373 1627 c 128,-1,12
 373 1702 373 1702 420.5 1751 c 128,-1,13
 468 1800 468 1800 539 1800 c 128,-1,14
 610 1800 610 1800 658 1750.5 c 128,-1,15
 706 1701 706 1701 706 1627 c 128,-1,8
 706 1553 706 1553 658 1506 c 128,-1,9
EndSplineSet
EndChar

StartChar: cedilla
Encoding: 184 184 73
Width: 1132
Flags: HMW
HStem: -508 170<395 664 395 705> -222 126<578 664 458 705>
VStem: 458 120<-96 0 -96 0 -96 0> 664 205<-338 -246 -359 -222 -359 -222>
LayerCount: 2
Fore
SplineSet
458 0 m 1,0,-1
 578 0 l 1,1,-1
 578 -96 l 1,2,-1
 705 -96 l 2,3,4
 773 -96 773 -96 821 -157 c 128,-1,5
 869 -218 869 -218 869 -302.5 c 0,6,7
 869 -387 869 -387 820.5 -447.5 c 128,-1,8
 772 -508 772 -508 705 -508 c 2,9,-1
 220 -508 l 1,10,11
 228 -438 228 -438 278.5 -388 c 128,-1,12
 329 -338 329 -338 395 -338 c 2,13,-1
 664 -338 l 1,14,-1
 664 -222 l 1,15,-1
 458 -222 l 1,16,-1
 458 0 l 1,0,-1
EndSplineSet
EndChar

StartChar: circumflex
Encoding: 710 710 74
Width: 1393
Flags: HMW
HStem: 1415 433<682 1044>
VStem: 286 842<1521 1521>
LayerCount: 2
Fore
SplineSet
708 1607 m 1,0,1
 559.2 1525.4 559.2 1525.4 366 1415 c 1,2,-1
 286 1521 l 1,3,-1
 551 1774 l 2,4,5
 629 1848 629 1848 707.5 1848 c 128,-1,6
 786 1848 786 1848 863 1774 c 2,7,-1
 1128 1521 l 1,8,-1
 1044 1415 l 1,9,-1
 708 1607 l 1,0,1
EndSplineSet
EndChar

StartChar: macron
Encoding: 175 175 75
Width: 1391
Flags: HMW
HStem: 1399 171<425 978>
VStem: 250 902<1399 1570>
LayerCount: 2
Fore
SplineSet
250 1399 m 1,0,1
 258 1469 258 1469 308.5 1519.5 c 128,-1,2
 359 1570 359 1570 425 1570 c 2,3,-1
 1152 1570 l 1,4,5
 1145 1499 1145 1499 1094.5 1449 c 128,-1,6
 1044 1399 1044 1399 978 1399 c 2,7,-1
 250 1399 l 1,0,1
EndSplineSet
EndChar

StartChar: ring
Encoding: 730 730 76
Width: 1286
Flags: HMW
HStem: 1297 154<604 678 604 721> 1722 152<604 678>
VStem: 353 155<1548.5 1622 1548.5 1665> 775 155<1548.5 1622>
LayerCount: 2
Fore
SplineSet
845.5 1381.5 m 128,-1,1
 761 1297 761 1297 641.5 1297 c 128,-1,2
 522 1297 522 1297 437.5 1381.5 c 128,-1,3
 353 1466 353 1466 353 1585.5 c 128,-1,4
 353 1705 353 1705 437.5 1789.5 c 128,-1,5
 522 1874 522 1874 641.5 1874 c 128,-1,6
 761 1874 761 1874 845.5 1789.5 c 128,-1,7
 930 1705 930 1705 930 1585.5 c 128,-1,0
 930 1466 930 1466 845.5 1381.5 c 128,-1,1
547 1490.5 m 128,-1,9
 586 1451 586 1451 641.5 1451 c 128,-1,10
 697 1451 697 1451 736 1490.5 c 128,-1,11
 775 1530 775 1530 775 1585.5 c 128,-1,12
 775 1641 775 1641 735.5 1681.5 c 128,-1,13
 696 1722 696 1722 641 1722 c 128,-1,14
 586 1722 586 1722 547 1681.5 c 128,-1,15
 508 1641 508 1641 508 1585.5 c 128,-1,8
 508 1530 508 1530 547 1490.5 c 128,-1,9
EndSplineSet
EndChar

StartChar: commaaccent
Encoding: 65538 -1 77
Width: 1050
Flags: HMW
HStem: -541 21G<485 485>
VStem: 367 338<-219.5 -145>
LayerCount: 2
Fore
SplineSet
459 -317 m 1,0,1
 367 -275.380952381 367 -275.380952381 367 -198.19047619 c 128,-1,2
 367 -121 367 -121 415.5 -72.5 c 128,-1,3
 464 -24 464 -24 535 -24 c 128,-1,4
 606 -24 606 -24 655.5 -73 c 128,-1,5
 705 -122 705 -122 705 -178 c 128,-1,6
 705 -234 705 -234 691 -273 c 128,-1,7
 677 -312 677 -312 639.5 -362 c 0,8,9
 590.795918367 -426.93877551 590.795918367 -426.93877551 485 -541 c 1,10,-1
 391 -496 l 1,11,-1
 459 -317 l 1,0,1
EndSplineSet
EndChar

StartChar: grave.cap
Encoding: 65539 -1 78
Width: 1233
Flags: HMW
HStem: 1633 371
VStem: 138 547
LayerCount: 2
Fore
SplineSet
630 1633 m 1,0,-1
 249 1735 l 2,1,2
 187 1751 187 1751 154.5 1808.5 c 128,-1,3
 122 1866 122 1866 149 1926 c 128,-1,4
 176 1986 176 1986 231 2000 c 128,-1,5
 286 2014 286 2014 342 1974 c 2,6,-1
 685 1727 l 1,7,-1
 630 1633 l 1,0,-1
EndSplineSet
EndChar

StartChar: acute.cap
Encoding: 65540 -1 79
Width: 1233
Flags: HMW
HStem: 1630 370
VStem: 352 547
LayerCount: 2
Fore
SplineSet
407 1630 m 1,0,-1
 352 1724 l 1,1,-1
 695 1971 l 2,2,3
 751 2011 751 2011 806 1997 c 128,-1,4
 861 1983 861 1983 888 1923 c 128,-1,5
 915 1863 915 1863 882.5 1805.5 c 128,-1,6
 850 1748 850 1748 788 1732 c 2,7,-1
 407 1630 l 1,0,-1
EndSplineSet
EndChar

StartChar: circumflex.cap
Encoding: 65541 -1 80
Width: 1062
Flags: HMW
HStem: 1615 389<502.5 828>
VStem: 146 758<1710 1710>
LayerCount: 2
Fore
SplineSet
526 1787 m 1,0,-1
 218 1615 l 1,1,-1
 146 1710 l 1,2,-1
 385 1938 l 2,3,4
 454 2004 454 2004 526 2004 c 128,-1,5
 598 2004 598 2004 665 1938 c 1,6,-1
 904 1710 l 1,7,8
 886.117647059 1686.52941176 886.117647059 1686.52941176 828 1615 c 1,9,-1
 526 1787 l 1,0,-1
EndSplineSet
EndChar

StartChar: dieresis.cap
Encoding: 65542 -1 81
Width: 1588
Flags: HMW
HStem: 1671 307<248 333 728.5 813.5>
VStem: 141 781<1777 1866.5>
LayerCount: 2
Fore
SplineSet
878.5 1713.5 m 128,-1,1
 835 1671 835 1671 770.5 1671 c 128,-1,2
 706 1671 706 1671 664 1713 c 128,-1,3
 622 1755 622 1755 622 1822 c 128,-1,4
 622 1889 622 1889 664.5 1933.5 c 128,-1,5
 707 1978 707 1978 771 1978 c 128,-1,6
 835 1978 835 1978 878.5 1933 c 128,-1,7
 922 1888 922 1888 922 1822 c 128,-1,0
 922 1756 922 1756 878.5 1713.5 c 128,-1,1
398 1713.5 m 128,-1,9
 355 1671 355 1671 290.5 1671 c 128,-1,10
 226 1671 226 1671 183.5 1713 c 128,-1,11
 141 1755 141 1755 141 1822 c 128,-1,12
 141 1889 141 1889 183.5 1933.5 c 128,-1,13
 226 1978 226 1978 290 1978 c 128,-1,14
 354 1978 354 1978 397.5 1933 c 128,-1,15
 441 1888 441 1888 441 1822 c 128,-1,8
 441 1756 441 1756 398 1713.5 c 128,-1,9
EndSplineSet
EndChar

StartChar: caron.cap
Encoding: 65543 -1 82
Width: 1393
Flags: HMW
HStem: 1615 389<230 555.5>
VStem: 154 758<1909 1909>
LayerCount: 2
Fore
SplineSet
840 2004 m 1,0,-1
 912 1909 l 1,1,-1
 673 1681 l 2,2,3
 604 1615 604 1615 532 1615 c 128,-1,4
 460 1615 460 1615 393 1681 c 1,5,-1
 154 1909 l 1,6,7
 171.882352941 1932.47058824 171.882352941 1932.47058824 230 2004 c 1,8,-1
 532 1832 l 1,9,-1
 840 2004 l 1,0,-1
EndSplineSet
EndChar

StartChar: ring.cap
Encoding: 65544 -1 83
Width: 1062
Flags: HMW
HStem: 1427 154<494 568 494 611> 1852 152<494 568>
VStem: 243 155<1678.5 1752 1678.5 1795> 665 155<1678.5 1752>
LayerCount: 2
Fore
SplineSet
735.5 1511.5 m 128,-1,1
 651 1427 651 1427 531.5 1427 c 128,-1,2
 412 1427 412 1427 327.5 1511.5 c 128,-1,3
 243 1596 243 1596 243 1715.5 c 128,-1,4
 243 1835 243 1835 327.5 1919.5 c 128,-1,5
 412 2004 412 2004 531.5 2004 c 128,-1,6
 651 2004 651 2004 735.5 1919.5 c 128,-1,7
 820 1835 820 1835 820 1715.5 c 128,-1,0
 820 1596 820 1596 735.5 1511.5 c 128,-1,1
437 1620.5 m 128,-1,9
 476 1581 476 1581 531.5 1581 c 128,-1,10
 587 1581 587 1581 626 1620.5 c 128,-1,11
 665 1660 665 1660 665 1715.5 c 128,-1,12
 665 1771 665 1771 625.5 1811.5 c 128,-1,13
 586 1852 586 1852 531 1852 c 128,-1,14
 476 1852 476 1852 437 1811.5 c 128,-1,15
 398 1771 398 1771 398 1715.5 c 128,-1,8
 398 1660 398 1660 437 1620.5 c 128,-1,9
EndSplineSet
EndChar

StartChar: tilde.cap
Encoding: 65545 -1 84
Width: 1030
Flags: HMW
HStem: 1683 169<576 746> 1835 169<343 375 292 460>
VStem: 120 797<1736 1951>
LayerCount: 2
Fore
SplineSet
120 1736 m 1,0,1
 126 1771 126 1771 137 1822 c 0,2,3
 153 1901 153 1901 231 1952.5 c 128,-1,4
 309 2004 309 2004 397 2004 c 0,5,6
 485 2004 485 2004 552 1962 c 128,-1,7
 619 1920 619 1920 655 1852 c 1,8,-1
 746 1852 l 1,9,-1
 794 1951 l 1,10,-1
 917 1951 l 1,11,12
 909 1890 909 1890 902 1865 c 1,13,14
 883 1784 883 1784 805.5 1733 c 128,-1,15
 728 1682 728 1682 639 1682.5 c 0,16,17
 550 1683 550 1683 481 1725 c 128,-1,18
 412 1767 412 1767 375 1835 c 1,19,-1
 292 1835 l 1,20,-1
 243 1736 l 1,21,-1
 120 1736 l 1,0,1
EndSplineSet
EndChar

StartChar: comma
Encoding: 44 44 85
Width: 855
Flags: HMW
HStem: -291 617<344 474.5>
VStem: 250 347<-246 204>
LayerCount: 2
Fore
SplineSet
341 12 m 1,0,1
 259 59.4736842105 259 59.4736842105 259 157 c 0,2,3
 259 228 259 228 307.5 277 c 128,-1,4
 356 326 356 326 427 326 c 128,-1,5
 498 326 498 326 547.5 276.5 c 128,-1,6
 597 227 597 227 597 151.5 c 128,-1,7
 597 76 597 76 564 8.5 c 128,-1,8
 531 -59 531 -59 458 -148 c 1,9,-1
 344 -291 l 1,10,-1
 250 -246 l 1,11,-1
 341 12 l 1,0,1
EndSplineSet
EndChar

StartChar: semicolon
Encoding: 59 59 86
Width: 855
Flags: HMW
HStem: -291 617<343 473.5> 644 337<380.5 473>
VStem: 249 347<-246 204> 259 337<765.5 858.5>
LayerCount: 2
Fore
SplineSet
259 812 m 128,-1,1
 259 882 259 882 308 931.5 c 128,-1,2
 357 981 357 981 427 981 c 128,-1,3
 497 981 497 981 546.5 931.5 c 128,-1,4
 596 882 596 882 596 812.5 c 128,-1,5
 596 743 596 743 546 693.5 c 128,-1,6
 496 644 496 644 426.5 644 c 128,-1,7
 357 644 357 644 308 693 c 128,-1,0
 259 742 259 742 259 812 c 128,-1,1
340 12 m 1,8,9
 258 59.4736842105 258 59.4736842105 258 157 c 0,10,11
 258 228 258 228 306.5 277 c 128,-1,12
 355 326 355 326 426 326 c 128,-1,13
 497 326 497 326 546.5 276.5 c 128,-1,14
 596 227 596 227 596 151.5 c 128,-1,15
 596 76 596 76 563 8.5 c 128,-1,16
 530 -59 530 -59 457 -148 c 1,17,-1
 343 -291 l 1,18,-1
 249 -246 l 1,19,-1
 340 12 l 1,8,9
EndSplineSet
EndChar

StartChar: quotedblright
Encoding: 8221 8221 88
Width: 1161
Flags: HMW
HStem: 1495 20G<313 407.5 828 922.5>
VStem: 183 862<943 1393>
LayerCount: 2
Fore
SplineSet
789 1201 m 1,0,1
 707 1248.47368421 707 1248.47368421 707 1346 c 0,2,3
 707 1417 707 1417 755.5 1466 c 128,-1,4
 804 1515 804 1515 875 1515 c 128,-1,5
 946 1515 946 1515 995.5 1465.5 c 128,-1,6
 1045 1416 1045 1416 1045 1340.5 c 128,-1,7
 1045 1265 1045 1265 1012 1199 c 128,-1,8
 979 1133 979 1133 906 1041 c 2,9,-1
 792 898 l 1,10,-1
 698 943 l 1,11,-1
 789 1201 l 1,0,1
274 1201 m 1,12,13
 192 1248.47368421 192 1248.47368421 192 1346 c 0,14,15
 192 1417 192 1417 240.5 1466 c 128,-1,16
 289 1515 289 1515 360 1515 c 128,-1,17
 431 1515 431 1515 480.5 1465.5 c 128,-1,18
 530 1416 530 1416 530 1340.5 c 128,-1,19
 530 1265 530 1265 497 1199 c 128,-1,20
 464 1133 464 1133 391 1041 c 2,21,-1
 277 898 l 1,22,-1
 183 943 l 1,23,-1
 274 1201 l 1,12,13
EndSplineSet
EndChar

StartChar: quotedblleft
Encoding: 8220 8220 89
Width: 1161
Flags: HMW
HStem: 1495 20G<396 396 911 911>
VStem: 143 862<1020 1470>
LayerCount: 2
Fore
SplineSet
914 1212 m 1,0,1
 996 1164.52631579 996 1164.52631579 996 1067 c 0,2,3
 996 996 996 996 947.5 947 c 128,-1,4
 899 898 899 898 828 898 c 128,-1,5
 757 898 757 898 707.5 947.5 c 128,-1,6
 658 997 658 997 658 1072.5 c 128,-1,7
 658 1148 658 1148 691 1214 c 128,-1,8
 724 1280 724 1280 797 1372 c 2,9,-1
 911 1515 l 1,10,-1
 1005 1470 l 1,11,-1
 914 1212 l 1,0,1
399 1212 m 1,12,13
 481 1164.52631579 481 1164.52631579 481 1067 c 0,14,15
 481 996 481 996 432.5 947 c 128,-1,16
 384 898 384 898 313 898 c 128,-1,17
 242 898 242 898 192.5 947.5 c 128,-1,18
 143 997 143 997 143 1072.5 c 128,-1,19
 143 1148 143 1148 176 1214 c 128,-1,20
 209 1280 209 1280 282 1372 c 2,21,-1
 396 1515 l 1,22,-1
 490 1470 l 1,23,-1
 399 1212 l 1,12,13
EndSplineSet
EndChar

StartChar: guilsinglleft
Encoding: 8249 8249 90
Width: 1162
Flags: HMW
HStem: 31 998<709 868 709 868>
VStem: 334 534<31 555.5>
LayerCount: 2
Fore
SplineSet
393 393 m 1,0,1
 334 459 334 459 334 526.5 c 0,2,3
 334 594 334 594 393 664 c 1,4,-1
 709 1029 l 1,5,-1
 868 1029 l 1,6,-1
 622 530 l 1,7,-1
 868 31 l 1,8,-1
 709 31 l 1,9,-1
 393 393 l 1,0,1
EndSplineSet
EndChar

StartChar: guilsinglright
Encoding: 8250 8250 91
Width: 1162
Flags: HMW
HStem: 31 998<354 513 354 513>
VStem: 354 534<31 555.5 501.5 1029>
LayerCount: 2
Fore
SplineSet
354 31 m 1,0,-1
 600 530 l 1,1,-1
 354 1029 l 1,2,-1
 513 1029 l 1,3,-1
 829 664 l 1,4,5
 888 594 888 594 888 526.5 c 0,6,7
 888 459 888 459 829 393 c 1,8,-1
 513 31 l 1,9,-1
 354 31 l 1,0,-1
EndSplineSet
EndChar

StartChar: guillemotleft
Encoding: 171 171 92
Width: 1709
Flags: HMW
HStem: 31 998<709 868 709 868 1256 1415 709 1256>
VStem: 334 1081<31 555.5>
LayerCount: 2
Fore
SplineSet
940 393 m 1,0,1
 881 459 881 459 881 526.5 c 0,2,3
 881 594 881 594 940 664 c 1,4,-1
 1256 1029 l 1,5,-1
 1415 1029 l 1,6,-1
 1169 530 l 1,7,-1
 1415 31 l 1,8,-1
 1256 31 l 1,9,-1
 940 393 l 1,0,1
393 393 m 1,10,11
 334 459 334 459 334 526.5 c 0,12,13
 334 594 334 594 393 664 c 1,14,-1
 709 1029 l 1,15,-1
 868 1029 l 1,16,-1
 622 530 l 1,17,-1
 868 31 l 1,18,-1
 709 31 l 1,19,-1
 393 393 l 1,10,11
EndSplineSet
EndChar

StartChar: guillemotright
Encoding: 187 187 93
Width: 1709
Flags: HMW
HStem: 31 998<354 513 354 513 354 901 901 1060>
VStem: 354 1081<31 555.5 501.5 1029>
LayerCount: 2
Fore
SplineSet
901 31 m 1,0,-1
 1147 530 l 1,1,-1
 901 1029 l 1,2,-1
 1060 1029 l 1,3,-1
 1376 664 l 1,4,5
 1435 594 1435 594 1435 526.5 c 0,6,7
 1435 459 1435 459 1376 393 c 1,8,-1
 1060 31 l 1,9,-1
 901 31 l 1,0,-1
354 31 m 1,10,-1
 600 530 l 1,11,-1
 354 1029 l 1,12,-1
 513 1029 l 1,13,-1
 829 664 l 1,14,15
 888 594 888 594 888 526.5 c 0,16,17
 888 459 888 459 829 393 c 1,18,-1
 513 31 l 1,19,-1
 354 31 l 1,10,-1
EndSplineSet
EndChar

StartChar: numbersign
Encoding: 35 35 94
Width: 1365
Flags: HMW
HStem: 0 21G<312 465 312 312 793 944 793 793> 290 175<114 354 129 340 129 491 508 816 985 1194> 764 176<174 381 156 394 174 531 548 856 1027 1236>
VStem: 114 1137<290 940>
LayerCount: 2
Fore
SplineSet
967 290 m 1,0,1
 961.594594595 234.594594595 961.594594595 234.594594595 944 0 c 1,2,-1
 793 0 l 1,3,-1
 816 290 l 1,4,-1
 491 290 l 1,5,-1
 465 0 l 1,6,-1
 312 0 l 1,7,-1
 340 290 l 1,8,-1
 114 290 l 1,9,10
 127.421052632 442.105263158 127.421052632 442.105263158 129 465 c 1,11,-1
 354 465 l 1,12,-1
 381 764 l 1,13,-1
 156 764 l 1,14,-1
 174 940 l 1,15,-1
 394 940 l 1,16,-1
 421 1230 l 1,17,-1
 571 1230 l 1,18,-1
 548 940 l 1,19,-1
 874 940 l 1,20,21
 879.405405405 995.405405405 879.405405405 995.405405405 897 1230 c 1,22,-1
 1050 1230 l 1,23,-1
 1027 940 l 1,24,-1
 1251 940 l 1,25,26
 1236.3 768.5 1236.3 768.5 1236 764 c 1,27,-1
 1011 764 l 1,28,-1
 985 465 l 1,29,-1
 1211 465 l 1,30,-1
 1194 290 l 1,31,-1
 967 290 l 1,0,1
508 465 m 1,32,-1
 832 465 l 1,33,-1
 856 764 l 1,34,-1
 531 764 l 1,35,-1
 508 465 l 1,32,-1
EndSplineSet
EndChar

StartChar: sterling
Encoding: 163 163 95
Width: 1365
Flags: HMW
HStem: 0 171<337 425 516 1108> 537 171<364 901> 1186 159<663 817 663 663 748 748 748 817 817 902>
VStem: 425 238<347 416 416 1091 1091 1162> 748 69<1186 1345 1186 1345> 902 238<1000 1091 1000 1186 1000 1186>
CounterMasks: 1 1c
LayerCount: 2
Fore
SplineSet
162 0 m 1,0,1
 169 70 169 70 219.5 120.5 c 128,-1,2
 270 171 270 171 337 171 c 2,3,-1
 425 171 l 1,4,-1
 425 1091 l 2,5,6
 425 1197 425 1197 480.5 1271 c 128,-1,7
 536 1345 536 1345 614 1345 c 2,8,-1
 817 1345 l 1,9,-1
 817 1186 l 1,10,-1
 663 1186 l 1,11,-1
 663 416 l 2,12,13
 663 320 663 320 615.5 250 c 128,-1,14
 568 180 568 180 516 171 c 1,15,-1
 1283 171 l 1,16,17
 1283 101 1283 101 1229.5 50.5 c 128,-1,18
 1176 0 1176 0 1108 0 c 2,19,-1
 162 0 l 1,0,1
902 1000 m 1,20,-1
 902 1186 l 1,21,-1
 748 1186 l 1,22,-1
 748 1345 l 1,23,-1
 951 1345 l 2,24,25
 1029 1345 1029 1345 1084.5 1271 c 128,-1,26
 1140 1197 1140 1197 1140 1091 c 2,27,-1
 1140 1000 l 1,28,-1
 902 1000 l 1,20,-1
189 537 m 1,29,30
 196 607 196 607 246.5 657.5 c 128,-1,31
 297 708 297 708 364 708 c 2,32,-1
 1076 708 l 1,33,34
 1076 638 1076 638 1022.5 587.5 c 128,-1,35
 969 537 969 537 901 537 c 2,36,-1
 189 537 l 1,29,30
EndSplineSet
EndChar

StartChar: Euro
Encoding: 8364 8364 96
Width: 1365
Flags: HMW
HStem: 0 171<467.5 1051 570 1051 570 1099> 434 171<309 846> 719 171<309 948> 1176 169<570 1051 570 570>
VStem: 331 239<252 1091 1091 1162> 1051 238<182.5 252 252 317 182.5 317>
LayerCount: 2
Fore
SplineSet
331 252 m 2,0,-1
 331 1091 l 2,1,2
 331 1197 331 1197 386 1271 c 128,-1,3
 441 1345 441 1345 519 1345 c 2,4,-1
 1099 1345 l 2,5,6
 1178 1345 1178 1345 1234 1271 c 128,-1,7
 1290 1197 1290 1197 1290 1091 c 1,8,-1
 1289 1030 l 1,9,-1
 1051 1030 l 1,10,-1
 1051 1176 l 1,11,-1
 570 1176 l 1,12,-1
 570 171 l 1,13,-1
 1051 171 l 1,14,-1
 1051 317 l 1,15,-1
 1289 317 l 1,16,-1
 1289 252 l 2,17,18
 1289 148 1289 148 1233 74 c 128,-1,19
 1177 0 1177 0 1099 0 c 2,20,-1
 519 0 l 2,21,22
 442 0 442 0 386.5 74 c 128,-1,23
 331 148 331 148 331 252 c 2,0,-1
134 719 m 1,24,25
 141 789 141 789 191.5 839.5 c 128,-1,26
 242 890 242 890 309 890 c 2,27,-1
 1123 890 l 1,28,29
 1123 820 1123 820 1069.5 769.5 c 128,-1,30
 1016 719 1016 719 948 719 c 2,31,-1
 134 719 l 1,24,25
134 434 m 1,32,33
 141 504 141 504 191.5 554.5 c 128,-1,34
 242 605 242 605 309 605 c 2,35,-1
 1021 605 l 1,36,37
 1021 535 1021 535 967.5 484.5 c 128,-1,38
 914 434 914 434 846 434 c 2,39,-1
 134 434 l 1,32,33
EndSplineSet
EndChar

StartChar: yen
Encoding: 165 165 97
Width: 1365
Flags: HMW
HStem: 0 21G<601 601 601 840> 294 171<411 1050> 693 48<541 541 541 902>
VStem: 601 239<0 746 0 746>
LayerCount: 2
Fore
SplineSet
541 693 m 1,0,-1
 902 693 l 1,1,-1
 1263 1350 l 1,2,-1
 1007 1350 l 1,3,-1
 723 798 l 1,4,-1
 437 1350 l 1,5,-1
 182 1350 l 1,6,-1
 541 693 l 1,0,-1
601 0 m 1,7,-1
 601 746 l 1,8,-1
 840 746 l 1,9,-1
 840 0 l 1,10,-1
 601 0 l 1,7,-1
236 570 m 1,11,12
 243 640 243 640 293.5 690.5 c 128,-1,13
 344 741 344 741 411 741 c 2,14,-1
 1225 741 l 1,15,16
 1225 671 1225 671 1171.5 620.5 c 128,-1,17
 1118 570 1118 570 1050 570 c 2,18,-1
 236 570 l 1,11,12
236 294 m 1,19,20
 243 364 243 364 293.5 414.5 c 128,-1,21
 344 465 344 465 411 465 c 2,22,-1
 1225 465 l 1,23,24
 1225 395 1225 395 1171.5 344.5 c 128,-1,25
 1118 294 1118 294 1050 294 c 2,26,-1
 236 294 l 1,19,20
EndSplineSet
EndChar

StartChar: dollar
Encoding: 36 36 98
Width: 1365
Flags: HMW
HStem: 0 171<399.5 942 502 942 502 994> 1175 171<502 942 502 502>
VStem: 263 239<254 357 171 357 980 1092 1092 1163> 649 157<-217 119> 942 239<183 254 254 385 183 462 183 462 989 1092>
LayerCount: 2
Fore
SplineSet
649 -217 m 1,0,1
 650 1565 l 1,2,-1
 806 1565 l 1,3,-1
 806 -217 l 1,4,-1
 649 -217 l 1,0,1
395 737 m 2,5,6
 919 476 l 1,7,-1
 1044 626 l 1,8,-1
 502 903 l 1,9,-1
 502 1175 l 1,10,-1
 942 1175 l 1,11,-1
 942 989 l 1,12,-1
 1181 989 l 1,13,-1
 1181 1092 l 2,14,15
 1181 1198 1181 1198 1126 1272 c 128,-1,16
 1071 1346 1071 1346 993 1346 c 2,17,-1
 450 1346 l 2,18,19
 372 1346 372 1346 317.5 1272 c 128,-1,20
 263 1198 263 1198 263 1092 c 2,21,-1
 263 980 l 2,22,23
 263 803 263 803 395 737 c 2,5,6
263 254 m 2,24,-1
 263 357 l 1,25,-1
 502 357 l 1,26,-1
 502 171 l 1,27,-1
 942 171 l 1,28,-1
 942 462 l 1,29,-1
 400 739 l 1,30,-1
 525 889 l 1,31,-1
 1049 628 l 2,32,33
 1181 562 1181 562 1181 385 c 2,34,-1
 1181 254 l 2,35,36
 1181 148 1181 148 1126.5 74 c 128,-1,37
 1072 0 1072 0 994 0 c 2,38,-1
 451 0 l 2,39,40
 373 0 373 0 318 74 c 128,-1,41
 263 148 263 148 263 254 c 2,24,-1
EndSplineSet
EndChar

StartChar: at
Encoding: 64 64 99
Width: 2394
Flags: HMW
HStem: -391 147<475 507 507 1545> 0 171<947.5 1432 1048 1273 1048 1605 1670 1969> 876 171<1048 1432 1048 1048> 1323 144<507 1965 1965 1997 475 1965>
VStem: 283 192<-144 1221 1221 1289.5> 810 238<251 764 764 844.5> 1432 238<171 876 876 876> 1997 194<176.5 252 252 1221>
LayerCount: 2
Fore
SplineSet
283 -144 m 2,0,-1
 283 1221 l 2,1,2
 283 1323 283 1323 349 1395 c 128,-1,3
 415 1467 415 1467 507 1467 c 2,4,-1
 1965 1467 l 2,5,6
 2059 1467 2059 1467 2125 1395.5 c 128,-1,7
 2191 1324 2191 1324 2191 1221 c 2,8,-1
 2191 252 l 2,9,10
 2191 143 2191 143 2123.5 71.5 c 128,-1,11
 2056 0 2056 0 1969 0 c 2,12,-1
 1605 0 l 2,13,14
 1556 0 1556 0 1512 33.5 c 128,-1,15
 1468 67 1468 67 1439 124 c 1,16,17
 1410 67 1410 67 1366 33.5 c 128,-1,18
 1322 0 1322 0 1273 0 c 2,19,-1
 1000 0 l 2,20,21
 921 0 921 0 865.5 73.5 c 128,-1,22
 810 147 810 147 810 251 c 2,23,-1
 810 764 l 2,24,25
 810 885 810 885 872 966 c 128,-1,26
 934 1047 934 1047 1026 1047 c 2,27,-1
 1670 1047 l 1,28,-1
 1670 171 l 1,29,-1
 1997 171 l 1,30,-1
 1997 1323 l 1,31,-1
 475 1323 l 1,32,-1
 475 -244 l 1,33,-1
 1755 -244 l 1,34,35
 1728 -310 1728 -310 1671 -350.5 c 128,-1,36
 1614 -391 1614 -391 1545 -391 c 2,37,-1
 507 -391 l 2,38,39
 415 -391 415 -391 349 -318.5 c 128,-1,40
 283 -246 283 -246 283 -144 c 2,0,-1
1048 171 m 1,41,-1
 1432 171 l 1,42,-1
 1432 876 l 1,43,-1
 1048 876 l 1,44,-1
 1048 171 l 1,41,-1
EndSplineSet
EndChar

StartChar: ae
Encoding: 230 230 100
Width: 2008
Flags: HMW
HStem: 0 171<1027.5 1853 1129 1678> 460 140<1129 1562 1129 1801 1129 1562> 876 171<1186 1562 1129 1611> 876 172<476 890 476 476 454 1562 454 1129>
VStem: 237 240<252 669> 890 126<453 1048 876 1048> 1562 239<600 793 460 876 460 876>
LayerCount: 2
Fore
SplineSet
237 252 m 2,0,-1
 237 669 l 1,1,-1
 238 669 l 1,2,-1
 238 765 l 2,3,4
 238 886 238 886 300 967 c 128,-1,5
 362 1048 362 1048 454 1048 c 2,6,-1
 1016 1048 l 1,7,-1
 1016 907 l 1,8,9
 1040 970 1040 970 1085.5 1008.5 c 128,-1,10
 1131 1047 1131 1047 1186 1047 c 2,11,-1
 1611 1047 l 2,12,13
 1689 1047 1689 1047 1745 972.5 c 128,-1,14
 1801 898 1801 898 1801 793 c 2,15,-1
 1801 460 l 1,16,-1
 1129 460 l 1,17,-1
 1129 171 l 1,18,-1
 1853 171 l 1,19,20
 1845 100 1845 100 1794.5 50 c 128,-1,21
 1744 0 1744 0 1678 0 c 2,22,-1
 1080 0 l 2,23,24
 1001 0 1001 0 946 73.5 c 128,-1,25
 891 147 891 147 890 251 c 1,26,-1
 638 33 l 2,27,28
 600 0 600 0 550 0 c 2,29,-1
 435 0 l 2,30,31
 355 0 355 0 296 74 c 128,-1,32
 237 148 237 148 237 252 c 2,0,-1
1129 600 m 1,33,-1
 1562 600 l 1,34,-1
 1562 876 l 1,35,-1
 1129 876 l 1,36,-1
 1129 600 l 1,33,-1
477 172 m 1,37,-1
 570 172 l 1,38,-1
 890 453 l 1,39,-1
 890 876 l 1,40,-1
 476 876 l 1,41,-1
 476 669 l 1,42,-1
 477 669 l 1,43,-1
 477 172 l 1,37,-1
EndSplineSet
EndChar

StartChar: periodcentered
Encoding: 183 183 101
Width: 855
Flags: HMW
HStem: 547 337<380.5 473>
VStem: 259 337<668.5 761.5>
LayerCount: 2
Fore
SplineSet
259 715 m 128,-1,1
 259 785 259 785 308 834.5 c 128,-1,2
 357 884 357 884 427 884 c 128,-1,3
 497 884 497 884 546.5 834.5 c 128,-1,4
 596 785 596 785 596 715.5 c 0,5,6
 596 646 596 646 546 596.5 c 128,-1,7
 496 547 496 547 426.5 547 c 0,8,9
 357 547 357 547 308 596 c 128,-1,0
 259 645 259 645 259 715 c 128,-1,1
EndSplineSet
EndChar

StartChar: quotesingle
Encoding: 39 39 102
Width: 855
Flags: HMW
HStem: 1495 20G<386 465>
VStem: 286 282<1361.5 1409.5 1361.5 1409.5>
LayerCount: 2
Fore
SplineSet
376 822 m 1,0,-1
 291 1321 l 2,1,2
 286 1351 286 1351 286 1369 c 0,3,4
 286 1430 286 1430 326.5 1472.5 c 128,-1,5
 367 1515 367 1515 426 1515 c 0,6,7
 485 1515 485 1515 526.5 1472.5 c 128,-1,8
 568 1430 568 1430 568 1385 c 0,9,10
 568 1340 568 1340 564 1319 c 2,11,-1
 476 822 l 1,12,-1
 376 822 l 1,0,-1
EndSplineSet
EndChar

StartChar: exclam
Encoding: 33 33 103
Width: 855
Flags: HMW
HStem: -11 1554<380.5 468 377 473>
VStem: 259 337<110.5 203.5>
LayerCount: 2
Fore
SplineSet
365 505 m 1,0,-1
 268 1282 l 2,1,2
 262 1336 262 1336 262 1354 c 0,3,4
 262 1432 262 1432 308.5 1487.5 c 128,-1,5
 355 1543 355 1543 423 1543 c 0,6,7
 491 1543 491 1543 538.5 1488.5 c 128,-1,8
 586 1434 586 1434 586 1356 c 0,9,10
 586 1319 586 1319 581 1279 c 2,11,-1
 480 505 l 1,12,-1
 365 505 l 1,0,-1
259 157 m 128,-1,14
 259 227 259 227 308 276.5 c 128,-1,15
 357 326 357 326 427 326 c 128,-1,16
 497 326 497 326 546.5 276.5 c 128,-1,17
 596 227 596 227 596 157.5 c 0,18,19
 596 88 596 88 546 38.5 c 128,-1,20
 496 -11 496 -11 426.5 -11 c 0,21,22
 357 -11 357 -11 308 38 c 128,-1,13
 259 87 259 87 259 157 c 128,-1,14
EndSplineSet
EndChar

StartChar: quotedbl
Encoding: 34 34 104
Width: 1161
Flags: HMW
HStem: 1495 20G<248 327 686 765>
VStem: 148 282<1361.5 1409.5 1361.5 1409.5> 586 282<1361.5 1409.5 1361.5 1409.5>
LayerCount: 2
Fore
SplineSet
238 822 m 1,0,-1
 153 1321 l 2,1,2
 148 1351 148 1351 148 1369 c 0,3,4
 148 1430 148 1430 188.5 1472.5 c 128,-1,5
 229 1515 229 1515 288 1515 c 0,6,7
 347 1515 347 1515 388.5 1472.5 c 128,-1,8
 430 1430 430 1430 430 1385 c 0,9,10
 430 1340 430 1340 426 1319 c 2,11,-1
 338 822 l 1,12,-1
 238 822 l 1,0,-1
676 822 m 1,13,-1
 591 1321 l 2,14,15
 586 1351 586 1351 586 1369 c 0,16,17
 586 1430 586 1430 626.5 1472.5 c 128,-1,18
 667 1515 667 1515 726 1515 c 0,19,20
 785 1515 785 1515 826.5 1472.5 c 128,-1,21
 868 1430 868 1430 868 1385 c 0,22,23
 868 1340 868 1340 864 1319 c 2,24,-1
 776 822 l 1,25,-1
 676 822 l 1,13,-1
EndSplineSet
EndChar

StartChar: bullet
Encoding: 8226 8226 105
Width: 855
Flags: HMW
HStem: 340 559<349.5 503>
VStem: 148 559<541.5 696>
LayerCount: 2
Fore
SplineSet
148 619 m 128,-1,1
 148 735 148 735 229.5 817 c 128,-1,2
 311 899 311 899 426.5 899 c 0,3,4
 542 899 542 899 624.5 816.5 c 128,-1,5
 707 734 707 734 707 618.5 c 0,6,7
 707 503 707 503 624.5 421.5 c 128,-1,8
 542 340 542 340 426.5 340 c 0,9,10
 311 340 311 340 229.5 421.5 c 128,-1,0
 148 503 148 503 148 619 c 128,-1,1
EndSplineSet
EndChar

StartChar: question
Encoding: 63 63 106
Width: 1193
Flags: HMW
HStem: 1344 172<391 801 391 391>
VStem: 152 239<1131 1262 1262 1332.5> 443 238<521 645 645 695 521 696.5> 801 239<1003 1054 1054 1262 1003 1344>
LayerCount: 2
Fore
SplineSet
443 521 m 1,0,-1
 443 645 l 2,1,2
 443 723 443 723 472.5 787 c 128,-1,3
 502 851 502 851 551 876 c 2,4,-1
 801 1003 l 1,5,-1
 801 1344 l 1,6,-1
 391 1344 l 1,7,-1
 391 1131 l 1,8,-1
 152 1131 l 1,9,-1
 152 1262 l 2,10,11
 152 1368 152 1368 207.5 1442 c 128,-1,12
 263 1516 263 1516 342 1516 c 2,13,-1
 850 1516 l 2,14,15
 929 1516 929 1516 984.5 1442 c 128,-1,16
 1040 1368 1040 1368 1040 1262 c 2,17,-1
 1040 1054 l 2,18,19
 1040 978 1040 978 1007 911.5 c 128,-1,20
 974 845 974 845 924 819 c 2,21,-1
 681 695 l 1,22,-1
 681 521 l 1,23,-1
 443 521 l 1,0,-1
395 157 m 128,-1,25
 395 227 395 227 444 276.5 c 128,-1,26
 493 326 493 326 563 326 c 128,-1,27
 633 326 633 326 682.5 276.5 c 128,-1,28
 732 227 732 227 732 157.5 c 0,29,30
 732 88 732 88 682 38.5 c 128,-1,31
 632 -11 632 -11 562.5 -11 c 0,32,33
 493 -11 493 -11 444 38 c 128,-1,24
 395 87 395 87 395 157 c 128,-1,25
EndSplineSet
EndChar

StartChar: mu
Encoding: 181 181 107
AltUni2: 0003bc.ffffffff.0
Width: 1365
Flags: HMW
HStem: -541 21G<217 269 217 217> 0 171<456 869 456 712 456 869 1107 1143> 1027 20G<217 456 456 456 869 1107 1107 1107>
VStem: 217 239<-355 -285 -285 0 171 1047> 869 238<0 1047 107 1047 171 1047 171 1047>
LayerCount: 2
Fore
SplineSet
869 107 m 1,0,1
 804.8 1.13686837722e-13 804.8 1.13686837722e-13 712 0 c 2,2,-1
 456 0 l 1,3,-1
 456 -285 l 2,4,5
 456 -390 456 -390 401.5 -465.5 c 128,-1,6
 347 -541 347 -541 269 -541 c 2,7,-1
 217 -541 l 1,8,-1
 217 1047 l 1,9,-1
 456 1047 l 1,10,-1
 456 171 l 1,11,-1
 869 171 l 1,12,-1
 869 1047 l 1,13,-1
 1107 1047 l 1,14,-1
 1107 171 l 1,15,-1
 1318 171 l 1,16,17
 1310 100 1310 100 1259.5 50 c 128,-1,18
 1209 0 1209 0 1143 0 c 2,19,-1
 869 0 l 1,20,-1
 869 107 l 1,0,1
EndSplineSet
EndChar

StartChar: slash
Encoding: 47 47 108
Width: 1245
Flags: HMW
HStem: -176 1945<163 1081 163 1081>
VStem: 163 918
LayerCount: 2
Fore
SplineSet
163 -176 m 1,0,1
 910 1769 l 1,2,-1
 1081 1769 l 1,3,-1
 334 -176 l 1,4,-1
 163 -176 l 1,0,1
EndSplineSet
EndChar

StartChar: dotlessj
Encoding: 567 567 109
Width: 682
Flags: HMW
HStem: -541 173<71 217 71 267 71 217> 1027 20G<217 456 456 456>
VStem: 217 239<-355 -285 -285 1047>
LayerCount: 2
Fore
SplineSet
71 -368 m 1,0,-1
 217 -368 l 1,1,-1
 217 1047 l 1,2,-1
 456 1047 l 1,3,-1
 456 -285 l 2,4,5
 456 -390 456 -390 400.5 -465.5 c 128,-1,6
 345 -541 345 -541 267 -541 c 2,7,-1
 71 -541 l 1,8,-1
 71 -368 l 1,0,-1
EndSplineSet
EndChar

StartChar: dotlessi
Encoding: 305 305 110
Width: 682
Flags: HMW
HStem: 0 171<355.5 670 456 496> 1027 20G<217 456 456 456>
VStem: 217 239<254 1047 171 1047>
LayerCount: 2
Fore
SplineSet
217 254 m 2,0,-1
 217 1047 l 1,1,-1
 456 1047 l 1,2,-1
 456 171 l 1,3,-1
 670 171 l 1,4,5
 663 100 663 100 612.5 50 c 128,-1,6
 562 0 562 0 496 0 c 2,7,-1
 408 0 l 2,8,9
 329 0 329 0 273 74.5 c 128,-1,10
 217 149 217 149 217 254 c 2,0,-1
EndSplineSet
EndChar

StartChar: less
Encoding: 60 60 111
Width: 1365
Flags: HMW
HStem: 161 722<1126 1126>
VStem: 290 836<161 615 161 615>
LayerCount: 2
Fore
SplineSet
290 429 m 1,0,-1
 290 615 l 1,1,-1
 1126 883 l 1,2,-1
 1126 701 l 1,3,-1
 478 523 l 1,4,-1
 1126 342 l 1,5,-1
 1126 161 l 1,6,-1
 290 429 l 1,0,-1
EndSplineSet
EndChar

StartChar: greater
Encoding: 62 62 112
Width: 1365
Flags: HMW
HStem: 161 722<290 290>
VStem: 290 836<161 615 342 615 429 883 429 883>
LayerCount: 2
Fore
SplineSet
290 161 m 1,0,-1
 290 342 l 1,1,-1
 938 523 l 1,2,-1
 290 701 l 1,3,-1
 290 883 l 1,4,-1
 1126 615 l 1,5,-1
 1126 429 l 1,6,-1
 290 161 l 1,0,-1
EndSplineSet
EndChar

StartChar: plus
Encoding: 43 43 113
Width: 1365
Flags: HMW
HStem: 432 176<291 640 291 640 817 1165>
VStem: 640 177<71 432 71 432 608 966>
LayerCount: 2
Fore
SplineSet
291 432 m 1,0,-1
 291 608 l 1,1,-1
 640 608 l 1,2,-1
 640 966 l 1,3,-1
 817 966 l 1,4,-1
 817 608 l 1,5,-1
 1165 608 l 1,6,-1
 1165 432 l 1,7,-1
 817 432 l 1,8,-1
 817 71 l 1,9,-1
 640 71 l 1,10,-1
 640 432 l 1,11,-1
 291 432 l 1,0,-1
EndSplineSet
EndChar

StartChar: plusminus
Encoding: 177 177 114
Width: 1365
Flags: HMW
HStem: 35 176<290 1164 290 1164> 643 176<290 639 290 639 816 1164>
VStem: 639 177<355 643 355 643 819 1117>
LayerCount: 2
Fore
SplineSet
290 643 m 1,0,-1
 290 819 l 1,1,-1
 639 819 l 1,2,-1
 639 1117 l 1,3,-1
 816 1117 l 1,4,-1
 816 819 l 1,5,-1
 1164 819 l 1,6,-1
 1164 643 l 1,7,-1
 816 643 l 1,8,-1
 816 355 l 1,9,-1
 639 355 l 1,10,-1
 639 643 l 1,11,-1
 290 643 l 1,0,-1
290 35 m 1,12,-1
 290 211 l 1,13,-1
 1164 211 l 1,14,-1
 1164 35 l 1,15,-1
 290 35 l 1,12,-1
EndSplineSet
EndChar

StartChar: hyphen
Encoding: 45 45 115
Width: 1365
Flags: HMW
HStem: 431 176<290 1164 290 1164>
VStem: 290 874<431 607 431 607>
LayerCount: 2
Fore
SplineSet
290 431 m 1,0,-1
 290 607 l 1,1,-1
 1164 607 l 1,2,-1
 1164 431 l 1,3,-1
 290 431 l 1,0,-1
EndSplineSet
EndChar

StartChar: equal
Encoding: 61 61 116
Width: 1365
Flags: HMW
HStem: 181 175<290 1164 290 1164> 683 176<290 1164 290 1164>
VStem: 290 874<181 356 181 356 683 859 181 859>
LayerCount: 2
Fore
SplineSet
290 683 m 1,0,-1
 290 859 l 1,1,-1
 1164 859 l 1,2,-1
 1164 683 l 1,3,-1
 290 683 l 1,0,-1
290 181 m 1,4,-1
 290 356 l 1,5,-1
 1164 356 l 1,6,-1
 1164 181 l 1,7,-1
 290 181 l 1,4,-1
EndSplineSet
EndChar

StartChar: multiply
Encoding: 215 215 117
Width: 1365
Flags: HMW
HStem: 96 851<419 423 423 1012>
VStem: 290 851<227 228>
LayerCount: 2
Fore
SplineSet
841 525 m 1,0,1
 967 399 967 399 1141 228 c 1,2,-1
 1012 96 l 1,3,-1
 715 395 l 1,4,-1
 419 96 l 1,5,-1
 290 227 l 1,6,-1
 591 522 l 1,7,-1
 294 818 l 1,8,-1
 423 947 l 1,9,-1
 717 648 l 1,10,-1
 1012 945 l 1,11,-1
 1138 820 l 1,12,-1
 841 525 l 1,0,1
EndSplineSet
EndChar

StartChar: divide
Encoding: 247 247 118
Width: 1365
Flags: HMW
HStem: 431 176<290 1164 290 1164>
VStem: 593 269<88 170 865.5 946.5>
LayerCount: 2
Fore
SplineSet
821.5 804 m 128,-1,1
 781 762 781 762 725 762 c 128,-1,2
 669 762 669 762 631 803.5 c 128,-1,3
 593 845 593 845 593 906 c 128,-1,4
 593 967 593 967 631 1008.5 c 128,-1,5
 669 1050 669 1050 725 1050 c 128,-1,6
 781 1050 781 1050 821.5 1008 c 128,-1,7
 862 966 862 966 862 906 c 128,-1,0
 862 846 862 846 821.5 804 c 128,-1,1
290 431 m 1,8,-1
 290 607 l 1,9,-1
 1164 607 l 1,10,-1
 1164 431 l 1,11,-1
 290 431 l 1,8,-1
593 129 m 128,-1,13
 593 191 593 191 631 233 c 128,-1,14
 669 275 669 275 725 275 c 128,-1,15
 781 275 781 275 821.5 232.5 c 128,-1,16
 862 190 862 190 862 129 c 128,-1,17
 862 68 862 68 822 27 c 128,-1,18
 782 -14 782 -14 725 -14 c 128,-1,19
 668 -14 668 -14 630.5 26.5 c 128,-1,12
 593 67 593 67 593 129 c 128,-1,13
EndSplineSet
EndChar

StartChar: logicalnot
Encoding: 172 172 119
Width: 1365
Flags: HMW
HStem: 692 176<290 1291 290 1114>
VStem: 1114 177<293 692 692 692>
LayerCount: 2
Fore
SplineSet
290 692 m 1,0,-1
 290 868 l 1,1,-1
 1291 868 l 1,2,-1
 1291 293 l 1,3,-1
 1114 293 l 1,4,-1
 1114 692 l 1,5,-1
 290 692 l 1,0,-1
EndSplineSet
EndChar

StartChar: endash
Encoding: 8211 8211 120
Width: 1760
Flags: HMW
HStem: 533 171<359 1401>
VStem: 184 1392<533 704>
LayerCount: 2
Fore
SplineSet
184 533 m 1,0,1
 191 604 191 604 241.5 654 c 128,-1,2
 292 704 292 704 359 704 c 2,3,-1
 1576 704 l 1,4,5
 1568 633 1568 633 1517.5 583 c 128,-1,6
 1467 533 1467 533 1401 533 c 2,7,-1
 184 533 l 1,0,1
EndSplineSet
EndChar

StartChar: emdash
Encoding: 8212 8212 121
Width: 2171
Flags: HMW
HStem: 533 171<355 1817>
VStem: 180 1811<533 704>
LayerCount: 2
Fore
SplineSet
180 533 m 1,0,1
 187 604 187 604 238 654 c 128,-1,2
 289 704 289 704 355 704 c 2,3,-1
 1991 704 l 1,4,5
 1984 633 1984 633 1933.5 583 c 128,-1,6
 1883 533 1883 533 1817 533 c 2,7,-1
 180 533 l 1,0,1
EndSplineSet
EndChar

StartChar: caron
Encoding: 711 711 122
Width: 1393
Flags: HMW
HStem: 1487 433<361 723>
VStem: 277 842<1814 1814>
LayerCount: 2
Fore
SplineSet
1039 1920 m 1,0,-1
 1119 1814 l 1,1,-1
 854 1561 l 2,2,3
 776 1487 776 1487 697.5 1487 c 128,-1,4
 619 1487 619 1487 542 1561 c 2,5,-1
 277 1814 l 1,6,-1
 361 1920 l 1,7,-1
 697 1728 l 1,8,9
 845.8 1809.6 845.8 1809.6 1039 1920 c 1,0,-1
EndSplineSet
EndChar

StartChar: dotaccentcmb
Encoding: 775 775 123
Width: 687
Flags: HMW
HStem: 1459 341<293.5 388>
VStem: 175 333<1577 1676.5>
LayerCount: 2
Fore
SplineSet
460 1506 m 128,-1,1
 412 1459 412 1459 340.5 1459 c 128,-1,2
 269 1459 269 1459 222 1505.5 c 128,-1,3
 175 1552 175 1552 175 1627 c 128,-1,4
 175 1702 175 1702 222.5 1751 c 128,-1,5
 270 1800 270 1800 341 1800 c 128,-1,6
 412 1800 412 1800 460 1750.5 c 128,-1,7
 508 1701 508 1701 508 1627 c 128,-1,0
 508 1553 508 1553 460 1506 c 128,-1,1
EndSplineSet
EndChar

StartChar: dotaccentcmb.cap
Encoding: 65546 -1 124
Width: 709
Flags: HMW
HStem: 1663 341<293.5 388>
VStem: 175 333<1781 1880.5>
LayerCount: 2
Fore
SplineSet
460 1710 m 128,-1,1
 412 1663 412 1663 340.5 1663 c 128,-1,2
 269 1663 269 1663 222 1709.5 c 128,-1,3
 175 1756 175 1756 175 1831 c 128,-1,4
 175 1906 175 1906 222.5 1955 c 128,-1,5
 270 2004 270 2004 341 2004 c 128,-1,6
 412 2004 412 2004 460 1954.5 c 128,-1,7
 508 1905 508 1905 508 1831 c 128,-1,0
 508 1757 508 1757 460 1710 c 128,-1,1
EndSplineSet
EndChar

StartChar: thorn
Encoding: 254 254 125
Width: 1376
Flags: HMW
HStem: -541 21G<237 289 237 237> 0 171<604 636 636 899 1138 1174> 112 59<475 899> 876 171<476 899 475 949>
VStem: 237 239<-355 -285 1047 1591> 899 239<171 793 171 876 171 876>
LayerCount: 2
Fore
SplineSet
636 0 m 2,0,1
 539.615384615 0 539.615384615 0 475 112 c 1,2,-1
 476 -285 l 2,3,4
 476 -390 476 -390 421.5 -465.5 c 128,-1,5
 367 -541 367 -541 289 -541 c 2,6,-1
 237 -541 l 1,7,-1
 237 1591 l 1,8,-1
 476 1591 l 1,9,-1
 476 1047 l 1,10,-1
 949 1047 l 2,11,12
 1027 1047 1027 1047 1082.5 972.5 c 128,-1,13
 1138 898 1138 898 1138 793 c 2,14,-1
 1138 171 l 1,15,-1
 1349 171 l 1,16,17
 1341 100 1341 100 1290.5 50 c 128,-1,18
 1240 0 1240 0 1174 0 c 2,19,-1
 636 0 l 2,0,1
475 171 m 1,20,-1
 899 171 l 1,21,-1
 899 876 l 1,22,-1
 475 876 l 1,23,-1
 475 171 l 1,20,-1
EndSplineSet
EndChar

StartChar: fraction
Encoding: 8260 8260 126
Width: 1128
Flags: HMW
HStem: -59 1370<215 912 215 912>
VStem: 215 697
LayerCount: 2
Fore
SplineSet
215 -59 m 1,0,1
 448 549 448 549 740 1311 c 1,2,-1
 912 1311 l 1,3,-1
 386 -59 l 1,4,-1
 215 -59 l 1,0,1
EndSplineSet
EndChar

StartChar: onesuperior
Encoding: 185 185 127
Width: 682
Flags: HMW
HStem: 1151 98<119 251 119 463>
VStem: 251 212<454 1151 1151 1151>
LayerCount: 2
Fore
SplineSet
251 454 m 1,0,-1
 251 1151 l 1,1,-1
 119 1151 l 1,2,-1
 119 1249 l 1,3,-1
 463 1249 l 1,4,-1
 463 454 l 1,5,-1
 251 454 l 1,0,-1
EndSplineSet
EndChar

StartChar: twosuperior
Encoding: 178 178 128
Width: 1193
Flags: HMW
HStem: 454 108<487 1007 487 1007> 1141 109<487 785 487 487>
VStem: 265 222<562 661 661 677 562 694.5 1020 1091 1091 1135.5> 785 222<975 991 991 1091>
LayerCount: 2
Fore
SplineSet
265 454 m 1,0,-1
 265 661 l 2,1,2
 265 712 265 712 286.5 751.5 c 128,-1,3
 308 791 308 791 344 805 c 2,4,-1
 785 975 l 1,5,-1
 785 1141 l 1,6,-1
 487 1141 l 1,7,-1
 487 1020 l 1,8,-1
 265 1020 l 1,9,-1
 265 1091 l 2,10,11
 265 1158 265 1158 308 1204 c 128,-1,12
 351 1250 351 1250 413 1250 c 2,13,-1
 858 1250 l 2,14,15
 920 1250 920 1250 963.5 1203.5 c 128,-1,16
 1007 1157 1007 1157 1007 1091 c 2,17,-1
 1007 991 l 2,18,19
 1007 941 1007 941 982 901.5 c 128,-1,20
 957 862 957 862 918 846 c 2,21,-1
 487 677 l 1,22,-1
 487 562 l 1,23,-1
 1007 562 l 1,24,-1
 1007 454 l 1,25,-1
 265 454 l 1,0,-1
EndSplineSet
EndChar

StartChar: threesuperior
Encoding: 179 179 129
Width: 1193
Flags: HMW
HStem: 454 110<373 774 477 774 477 837> 807 108<551 774 551 774> 1141 109<373 774 373 477>
VStem: 266 211<614 661 564 661 1044 1091 1091 1135.5> 774 212<570 614 614 702 570 807 570 807 991.5 1026 1026 1090>
LayerCount: 2
Fore
SplineSet
414 454 m 2,0,1
 353 454 353 454 309.5 501 c 128,-1,2
 266 548 266 548 266 614 c 2,3,-1
 266 661 l 1,4,-1
 477 661 l 1,5,-1
 477 564 l 1,6,-1
 774 564 l 1,7,-1
 774 807 l 1,8,-1
 551 807 l 1,9,-1
 551 915 l 1,10,-1
 774 915 l 1,11,-1
 774 1141 l 1,12,-1
 477 1141 l 1,13,-1
 477 1044 l 1,14,-1
 266 1044 l 1,15,-1
 266 1091 l 2,16,17
 266 1158 266 1158 309 1204 c 128,-1,18
 352 1250 352 1250 414 1250 c 2,19,-1
 837 1249 l 2,20,21
 899 1249 899 1249 942.5 1202.5 c 128,-1,22
 986 1156 986 1156 986 1090 c 2,23,-1
 986 1026 l 2,24,25
 986 975 986 975 949.5 930.5 c 128,-1,26
 913 886 913 886 855 863 c 1,27,28
 913 841 913 841 949.5 797 c 128,-1,29
 986 753 986 753 986 702 c 2,30,-1
 986 614 l 2,31,32
 986 548 986 548 942 501 c 128,-1,33
 898 454 898 454 837 454 c 2,34,-1
 414 454 l 2,0,1
EndSplineSet
EndChar

StartChar: onequarter
Encoding: 188 188 130
Width: 2046
Flags: HMW
HStem: -1 239<1323 1802 1323 1599> 132 106<1323 1599 1323 1599 1802 1885> 1151 98<181 313 181 524>
VStem: 313 211<454 1151 1151 1151> 1599 203<-1 132 -1 132 238 627>
LayerCount: 2
Fore
SplineSet
538 -59 m 1,0,1
 770 549 770 549 1063 1311 c 1,2,-1
 1235 1311 l 1,3,-1
 709 -59 l 1,4,-1
 538 -59 l 1,0,1
313 454 m 1,5,-1
 313 1151 l 1,6,-1
 181 1151 l 1,7,-1
 181 1249 l 1,8,-1
 524 1249 l 1,9,-1
 524 454 l 1,10,-1
 313 454 l 1,5,-1
1122 132 m 1,11,-1
 1122 244 l 1,12,-1
 1332 797 l 1,13,-1
 1541 797 l 1,14,-1
 1323 238 l 1,15,-1
 1599 238 l 1,16,-1
 1599 627 l 1,17,-1
 1802 627 l 1,18,-1
 1802 238 l 1,19,-1
 1885 238 l 1,20,-1
 1885 132 l 1,21,-1
 1802 132 l 1,22,-1
 1802 -1 l 1,23,-1
 1599 -1 l 1,24,-1
 1599 132 l 1,25,-1
 1122 132 l 1,11,-1
EndSplineSet
EndChar

StartChar: onehalf
Encoding: 189 189 131
Width: 2046
Flags: HMW
HStem: 0 108<1409 1929 1409 1929> 687 109<1409 1707 1409 1409> 1151 98<116 248 116 460>
VStem: 248 212<454 1151 1151 1151> 1187 222<108 207 207 223 108 240.5 566 637 637 681.5> 1707 222<521 537 537 637>
LayerCount: 2
Fore
SplineSet
473 -59 m 1,0,1
 475 -54 475 -54 999 1311 c 1,2,-1
 1170 1311 l 1,3,-1
 644 -59 l 1,4,-1
 473 -59 l 1,0,1
248 454 m 1,5,-1
 248 1151 l 1,6,-1
 116 1151 l 1,7,-1
 116 1249 l 1,8,-1
 460 1249 l 1,9,-1
 460 454 l 1,10,-1
 248 454 l 1,5,-1
1187 0 m 1,11,-1
 1187 207 l 2,12,13
 1187 258 1187 258 1208.5 297.5 c 128,-1,14
 1230 337 1230 337 1266 351 c 2,15,-1
 1707 521 l 1,16,-1
 1707 687 l 1,17,-1
 1409 687 l 1,18,-1
 1409 566 l 1,19,-1
 1187 566 l 1,20,-1
 1187 637 l 2,21,22
 1187 704 1187 704 1230 750 c 128,-1,23
 1273 796 1273 796 1335 796 c 2,24,-1
 1780 796 l 2,25,26
 1842 796 1842 796 1885.5 749.5 c 128,-1,27
 1929 703 1929 703 1929 637 c 2,28,-1
 1929 537 l 2,29,30
 1929 487 1929 487 1904 447.5 c 128,-1,31
 1879 408 1879 408 1840 392 c 2,32,-1
 1409 223 l 1,33,-1
 1409 108 l 1,34,-1
 1929 108 l 1,35,-1
 1929 0 l 1,36,-1
 1187 0 l 1,11,-1
EndSplineSet
EndChar

StartChar: threequarters
Encoding: 190 190 132
Width: 2046
Flags: HMW
HStem: 0 239<1443 1922 1443 1719> 133 106<1443 1719 1443 1719 1922 2005> 454 110<148 549 252 549 252 612> 807 108<326 549 326 549> 1141 109<148 549 148 252>
VStem: 41 211<614 661 564 661 1044 1091 1091 1135.5> 549 212<570 614 614 702 570 807 570 807 991.5 1026 1026 1090> 1719 203<0 133 0 133 239 628>
LayerCount: 2
Fore
SplineSet
659 -59 m 1,0,-1
 1183 1311 l 1,1,-1
 1355 1311 l 1,2,-1
 830 -59 l 1,3,-1
 659 -59 l 1,0,-1
1242 133 m 1,4,-1
 1242 245 l 1,5,-1
 1452 798 l 1,6,-1
 1661 798 l 1,7,-1
 1443 239 l 1,8,-1
 1719 239 l 1,9,-1
 1719 628 l 1,10,-1
 1922 628 l 1,11,-1
 1922 239 l 1,12,-1
 2005 239 l 1,13,-1
 2005 133 l 1,14,-1
 1922 133 l 1,15,-1
 1922 0 l 1,16,-1
 1719 0 l 1,17,-1
 1719 133 l 1,18,-1
 1242 133 l 1,4,-1
189 454 m 2,19,20
 128 454 128 454 84.5 501 c 128,-1,21
 41 548 41 548 41 614 c 2,22,-1
 41 661 l 1,23,-1
 252 661 l 1,24,-1
 252 564 l 1,25,-1
 549 564 l 1,26,-1
 549 807 l 1,27,-1
 326 807 l 1,28,-1
 326 915 l 1,29,-1
 549 915 l 1,30,-1
 549 1141 l 1,31,-1
 252 1141 l 1,32,-1
 252 1044 l 1,33,-1
 41 1044 l 1,34,-1
 41 1091 l 2,35,36
 41 1158 41 1158 84 1204 c 128,-1,37
 127 1250 127 1250 189 1250 c 2,38,-1
 612 1249 l 2,39,40
 674 1249 674 1249 717.5 1202.5 c 128,-1,41
 761 1156 761 1156 761 1090 c 2,42,-1
 761 1026 l 2,43,44
 761 975 761 975 724.5 930.5 c 128,-1,45
 688 886 688 886 630 863 c 1,46,47
 688 841 688 841 724.5 797 c 128,-1,48
 761 753 761 753 761 702 c 2,49,-1
 761 614 l 2,50,51
 761 548 761 548 717 501 c 128,-1,52
 673 454 673 454 612 454 c 2,53,-1
 189 454 l 2,19,20
EndSplineSet
EndChar

StartChar: percent
Encoding: 37 37 133
Width: 1882
Flags: HMW
HStem: -1 109<1292 1632> 514 109<1187 1528 1187 1292> 614 109<376 716> 1129 109<271 612 271 376>
VStem: 164 212<774 1079 1079 1123.5> 612 211<728.5 773 773 1078> 1080 212<159 464 464 508.5> 1528 211<113.5 158 158 463>
LayerCount: 2
Fore
SplineSet
462 -59 m 1,0,-1
 1269 1311 l 1,1,-1
 1446 1311 l 1,2,-1
 640 -59 l 1,3,-1
 462 -59 l 1,0,-1
313 615 m 2,4,5
 251 615 251 615 207.5 661.5 c 128,-1,6
 164 708 164 708 164 774 c 2,7,-1
 164 1079 l 2,8,9
 164 1146 164 1146 207 1192 c 128,-1,10
 250 1238 250 1238 312 1238 c 2,11,-1
 674 1237 l 2,12,13
 736 1237 736 1237 779.5 1190.5 c 128,-1,14
 823 1144 823 1144 823 1078 c 2,15,-1
 823 773 l 2,16,17
 823 706 823 706 780 660 c 128,-1,18
 737 614 737 614 675 614 c 2,19,-1
 313 615 l 2,4,5
376 723 m 1,20,-1
 612 723 l 1,21,-1
 612 1129 l 1,22,-1
 376 1129 l 1,23,-1
 376 723 l 1,20,-1
1080 159 m 2,24,-1
 1080 464 l 2,25,26
 1080 531 1080 531 1123 577 c 128,-1,27
 1166 623 1166 623 1228 623 c 2,28,-1
 1590 622 l 2,29,30
 1652 622 1652 622 1695.5 575.5 c 128,-1,31
 1739 529 1739 529 1739 463 c 2,32,-1
 1739 158 l 2,33,34
 1739 91 1739 91 1696 45 c 128,-1,35
 1653 -1 1653 -1 1591 -1 c 2,36,-1
 1229 0 l 2,37,38
 1167 0 1167 0 1123.5 46.5 c 128,-1,39
 1080 93 1080 93 1080 159 c 2,24,-1
1292 108 m 1,40,-1
 1528 108 l 1,41,-1
 1528 514 l 1,42,-1
 1292 514 l 1,43,-1
 1292 108 l 1,40,-1
EndSplineSet
EndChar

StartChar: ordfeminine
Encoding: 170 170 134
Width: 1365
Flags: HMW
HStem: 52 246<648 715.5> 492 117<428 829 536 720 536 947 1031 1070> 1089 117<536 829 536 536>
VStem: 334 202<663 1013 1013 1068> 559 246<141 209> 829 202<609 1089 1089 1089>
LayerCount: 2
Fore
SplineSet
833 576 m 1,0,1
 792.076923077 492 792.076923077 492 720 492 c 2,2,-1
 464 492 l 2,3,4
 410 492 410 492 372 542 c 128,-1,5
 334 592 334 592 334 663 c 2,6,-1
 334 1013 l 2,7,8
 334 1095 334 1095 376.5 1150.5 c 128,-1,9
 419 1206 419 1206 481 1206 c 2,10,-1
 1031 1206 l 1,11,-1
 1031 609 l 1,12,-1
 1189 609 l 1,13,14
 1184 560 1184 560 1149.5 526 c 128,-1,15
 1115 492 1115 492 1070 492 c 2,16,-1
 947 492 l 2,17,18
 876.076923077 492 876.076923077 492 833 576 c 1,0,1
536 609 m 1,19,-1
 829 609 l 1,20,-1
 829 1089 l 1,21,-1
 536 1089 l 1,22,-1
 536 609 l 1,19,-1
559 175 m 128,-1,24
 559 226 559 226 595 262 c 128,-1,25
 631 298 631 298 682 298 c 128,-1,26
 733 298 733 298 769 262 c 128,-1,27
 805 226 805 226 805 175 c 128,-1,28
 805 124 805 124 768.5 88 c 128,-1,29
 732 52 732 52 681.5 52 c 128,-1,30
 631 52 631 52 595 88 c 128,-1,23
 559 124 559 124 559 175 c 128,-1,24
EndSplineSet
EndChar

StartChar: ordmasculine
Encoding: 186 186 135
Width: 1365
Flags: HMW
HStem: 52 246<648 715.5> 492 117<428 829 536 829 536 884> 1089 117<536 829 536 536>
VStem: 334 202<663 1013 1013 1068> 559 246<141 209> 829 202<630 685 685 1035>
LayerCount: 2
Fore
SplineSet
464 492 m 2,0,1
 410 492 410 492 372 542 c 128,-1,2
 334 592 334 592 334 663 c 2,3,-1
 334 1013 l 2,4,5
 334 1095 334 1095 376.5 1150.5 c 128,-1,6
 419 1206 419 1206 481 1206 c 2,7,-1
 901 1206 l 2,8,9
 955 1206 955 1206 993 1156 c 128,-1,10
 1031 1106 1031 1106 1031 1035 c 2,11,-1
 1031 685 l 2,12,13
 1031 603 1031 603 988.5 547.5 c 128,-1,14
 946 492 946 492 884 492 c 2,15,-1
 464 492 l 2,0,1
536 609 m 1,16,-1
 829 609 l 1,17,-1
 829 1089 l 1,18,-1
 536 1089 l 1,19,-1
 536 609 l 1,16,-1
559 175 m 128,-1,21
 559 226 559 226 595 262 c 128,-1,22
 631 298 631 298 682 298 c 128,-1,23
 733 298 733 298 769 262 c 128,-1,24
 805 226 805 226 805 175 c 128,-1,25
 805 124 805 124 768.5 88 c 128,-1,26
 732 52 732 52 681.5 52 c 0,27,28
 631 52 631 52 595 88 c 128,-1,20
 559 124 559 124 559 175 c 128,-1,21
EndSplineSet
EndChar

StartChar: degree
Encoding: 176 176 136
Width: 1365
Flags: HMW
HStem: 557 167<629.5 732 629.5 780> 1103 166<629.5 732>
VStem: 327 165<861.5 965.5 861.5 1012.5> 873 164<861.5 965.5>
LayerCount: 2
Fore
SplineSet
933 661.5 m 128,-1,1
 829 557 829 557 681.5 557 c 128,-1,2
 534 557 534 557 430.5 661.5 c 128,-1,3
 327 766 327 766 327 914 c 128,-1,4
 327 1062 327 1062 430.5 1165.5 c 128,-1,5
 534 1269 534 1269 681.5 1269 c 128,-1,6
 829 1269 829 1269 933 1165.5 c 128,-1,7
 1037 1062 1037 1062 1037 914 c 128,-1,0
 1037 766 1037 766 933 661.5 c 128,-1,1
547.5 779.5 m 128,-1,9
 603 724 603 724 680.5 724 c 128,-1,10
 758 724 758 724 815.5 780 c 128,-1,11
 873 836 873 836 873 913.5 c 128,-1,12
 873 991 873 991 815.5 1047 c 128,-1,13
 758 1103 758 1103 681 1103 c 128,-1,14
 604 1103 604 1103 548 1047.5 c 128,-1,15
 492 992 492 992 492 913.5 c 128,-1,8
 492 835 492 835 547.5 779.5 c 128,-1,9
EndSplineSet
EndChar

StartChar: asterisk
Encoding: 42 42 137
Width: 1365
Flags: HMW
HStem: 1021 29<630 648 648 648 648 726>
VStem: 553 255
LayerCount: 2
Fore
SplineSet
630 1021 m 1,0,-1
 557 1349 l 1,1,2
 542 1411 542 1411 576.5 1467 c 128,-1,3
 611 1523 611 1523 679.5 1523 c 128,-1,4
 748 1523 748 1523 783.5 1468.5 c 128,-1,5
 819 1414 819 1414 803 1347 c 2,6,-1
 726 1021 l 1,7,-1
 630 1021 l 1,0,-1
335 1010 m 2,8,9
 668 979 l 1,10,-1
 699 1071 l 1,11,-1
 412 1242 l 1,12,13
 326.675925926 1295.88888889 326.675925926 1295.88888889 256 1246 c 0,14,15
 222 1222 222 1222 204 1168 c 128,-1,16
 186 1114 186 1114 228 1065.5 c 128,-1,17
 270 1017 270 1017 335 1010 c 2,8,9
696 980 m 1,18,-1
 1028 1007 l 2,19,20
 1097 1013 1097 1013 1137.5 1063.5 c 128,-1,21
 1178 1114 1178 1114 1156 1179 c 1,22,23
 1143 1223 1143 1223 1107 1245 c 0,24,25
 1034.50458716 1289.30275229 1034.50458716 1289.30275229 954 1241 c 2,26,-1
 664 1071 l 1,27,-1
 696 980 l 1,18,-1
774 688 m 2,28,-1
 646 995 l 1,29,-1
 723 1052 l 1,30,-1
 973 832 l 2,31,32
 1043.55878468 770.545574637 1043.55878468 770.545574637 1025 686 c 0,33,34
 1016 645 1016 645 968 611.5 c 128,-1,35
 920 578 920 578 860.5 601 c 128,-1,36
 801 624 801 624 774 688 c 2,28,-1
392 615 m 1,37,38
 336 659 336 659 339 723 c 128,-1,39
 342 787 342 787 396 833 c 2,40,-1
 648 1050 l 1,41,-1
 725 992 l 1,42,-1
 591 685 l 1,43,44
 567 627 567 627 509 602 c 128,-1,45
 451 577 451 577 392 615 c 1,37,38
EndSplineSet
EndChar

StartChar: copyright
Encoding: 169 169 138
Width: 2394
Flags: HMW
HStem: 0 140<644 674 674 1800> 323 163<978 1412 1074 1412 1074 1458> 1039 163<1074 1412 1074 1074> 1379 137<674 1800 1800 1830 644 1800>
VStem: 461 183<235 1282 1282 1347> 847 227<564 959 959 1027> 1412 226<497.5 564 564 609 497.5 609 834 959> 1830 183<170.5 235 235 1282>
LayerCount: 2
Fore
SplineSet
461 235 m 2,0,-1
 461 1282 l 2,1,2
 461 1379 461 1379 524 1447.5 c 128,-1,3
 587 1516 587 1516 674 1516 c 2,4,-1
 1800 1516 l 2,5,6
 1887 1516 1887 1516 1950 1447.5 c 128,-1,7
 2013 1379 2013 1379 2013 1282 c 2,8,-1
 2013 235 l 2,9,10
 2013 138 2013 138 1950 69 c 128,-1,11
 1887 0 1887 0 1800 0 c 2,12,-1
 674 0 l 2,13,14
 587 0 587 0 524 69 c 128,-1,15
 461 138 461 138 461 235 c 2,0,-1
644 140 m 1,16,-1
 1830 140 l 1,17,-1
 1830 1379 l 1,18,-1
 644 1379 l 1,19,-1
 644 140 l 1,16,-1
847 564 m 2,20,-1
 847 959 l 2,21,22
 847 1061 847 1061 900 1131.5 c 128,-1,23
 953 1202 953 1202 1028 1202 c 2,24,-1
 1457 1202 l 2,25,26
 1531 1202 1531 1202 1584.5 1131 c 128,-1,27
 1638 1060 1638 1060 1638 959 c 2,28,-1
 1638 834 l 1,29,-1
 1412 834 l 1,30,-1
 1412 1039 l 1,31,-1
 1074 1039 l 1,32,-1
 1074 486 l 1,33,-1
 1412 486 l 1,34,-1
 1412 609 l 1,35,-1
 1638 609 l 1,36,-1
 1638 564 l 2,37,38
 1638 465 1638 465 1585 394 c 128,-1,39
 1532 323 1532 323 1458 323 c 2,40,-1
 1028 323 l 2,41,42
 953 323 953 323 900 393.5 c 128,-1,43
 847 464 847 464 847 564 c 2,20,-1
EndSplineSet
EndChar

StartChar: registered
Encoding: 174 174 139
Width: 2394
Flags: HMW
HStem: 0 140<644 674 674 1800> 633 143<1074 1411 1074 1412> 1038 163<1074 1412 1074 1074> 1379 137<674 1800 1800 1830 644 1800>
VStem: 461 183<235 1282 1282 1347> 848 225<323 1201> 1411 229<323 489 323 633 323 633> 1412 225<864 914 914 978 864 1038 864 1038> 1830 183<170.5 235 235 1282>
LayerCount: 2
Fore
SplineSet
461 235 m 2,0,-1
 461 1282 l 2,1,2
 461 1379 461 1379 524 1447.5 c 128,-1,3
 587 1516 587 1516 674 1516 c 2,4,-1
 1800 1516 l 2,5,6
 1887 1516 1887 1516 1950 1447.5 c 128,-1,7
 2013 1379 2013 1379 2013 1282 c 2,8,-1
 2013 235 l 2,9,10
 2013 138 2013 138 1950 69 c 128,-1,11
 1887 0 1887 0 1800 0 c 2,12,-1
 674 0 l 2,13,14
 587 0 587 0 524 69 c 128,-1,15
 461 138 461 138 461 235 c 2,0,-1
644 140 m 1,16,-1
 1830 140 l 1,17,-1
 1830 1379 l 1,18,-1
 644 1379 l 1,19,-1
 644 140 l 1,16,-1
848 323 m 1,20,-1
 848 1201 l 1,21,-1
 1442 1201 l 2,22,23
 1519 1201 1519 1201 1578 1135.5 c 128,-1,24
 1637 1070 1637 1070 1637 978 c 2,25,-1
 1637 914 l 2,26,27
 1637 838 1637 838 1596 778 c 128,-1,28
 1555 718 1555 718 1481 691 c 1,29,30
 1481.48925925 690.902148149 1481.48925925 690.902148149 1455 721 c 1,31,32
 1516 709 1516 709 1559.5 669 c 0,33,34
 1640 594.977011494 1640 594.977011494 1640 489 c 2,35,-1
 1640 323 l 1,36,-1
 1411 323 l 1,37,-1
 1411 633 l 1,38,-1
 1074 633 l 1,39,-1
 1073 323 l 1,40,-1
 848 323 l 1,20,-1
1074 776 m 1,41,-1
 1412 776 l 1,42,-1
 1412 1038 l 1,43,-1
 1074 1038 l 1,44,-1
 1074 776 l 1,41,-1
EndSplineSet
EndChar

StartChar: section
Encoding: 167 167 140
Width: 1365
Flags: HMW
HStem: -377 171<403.5 919 506 919 506 971> 1 21G<919 919> 276 155<870 878 547 914 870 870> 783 155<547 554 511 878 547 547> 1420 171<506 919 506 506>
VStem: 267 239<-123 -16 -206 -16 1260 1337 1337 1408> 323 224<487 686 686 755.5> 878 224<458.5 528 528 727 458.5 783> 919 239<-194 -123 -123 -46 -194 1 -194 1 1230 1337>
LayerCount: 2
Fore
SplineSet
267 -16 m 1,0,-1
 506 -16 l 1,1,-1
 506 -206 l 1,2,-1
 919 -206 l 1,3,-1
 919 1 l 1,4,-1
 437 253 l 2,5,6
 385 280 385 280 354 343 c 128,-1,7
 323 406 323 406 323 487 c 2,8,-1
 323 686 l 2,9,10
 323 790 323 790 378 864 c 128,-1,11
 433 938 433 938 511 938 c 2,12,-1
 554 938 l 1,13,-1
 399 1017 l 1,14,15
 267 1083 267 1083 267 1260 c 2,16,-1
 267 1337 l 2,17,18
 267 1443 267 1443 321.5 1517 c 128,-1,19
 376 1591 376 1591 454 1591 c 2,20,-1
 970 1591 l 2,21,22
 1048 1591 1048 1591 1103 1517 c 128,-1,23
 1158 1443 1158 1443 1158 1337 c 2,24,-1
 1158 1230 l 1,25,-1
 919 1230 l 1,26,-1
 919 1420 l 1,27,-1
 506 1420 l 1,28,-1
 506 1213 l 1,29,-1
 988 961 l 2,30,31
 1040 934 1040 934 1071 871 c 128,-1,32
 1102 808 1102 808 1102 727 c 2,33,-1
 1102 528 l 2,34,35
 1102 424 1102 424 1047 350 c 128,-1,36
 992 276 992 276 914 276 c 2,37,-1
 870 276 l 1,38,-1
 1026 197 l 2,39,40
 1158 131 1158 131 1158 -46 c 2,41,-1
 1158 -123 l 2,42,43
 1158 -229 1158 -229 1103.5 -303 c 128,-1,44
 1049 -377 1049 -377 971 -377 c 2,45,-1
 455 -377 l 2,46,47
 377 -377 377 -377 322 -303 c 128,-1,48
 267 -229 267 -229 267 -123 c 2,49,-1
 267 -16 l 1,0,-1
547 431 m 1,50,-1
 878 431 l 1,51,-1
 878 783 l 1,52,-1
 547 783 l 1,53,-1
 547 431 l 1,50,-1
EndSplineSet
EndChar

StartChar: dagger
Encoding: 8224 8224 141
Width: 1365
Flags: HMW
HStem: 892 156<378 566 378 566 804 981>
VStem: 566 238<-339 -269 -269 892 1048 1578>
LayerCount: 2
Fore
SplineSet
566 -525 m 1,0,-1
 566 892 l 1,1,-1
 218 892 l 1,2,3
 225 957 225 957 271.5 1002.5 c 128,-1,4
 318 1048 318 1048 378 1048 c 2,5,-1
 566 1048 l 1,6,-1
 566 1578 l 1,7,-1
 804 1578 l 1,8,-1
 804 1048 l 1,9,-1
 1141 1048 l 1,10,11
 1134 983 1134 983 1087.5 937.5 c 128,-1,12
 1041 892 1041 892 981 892 c 2,13,-1
 804 892 l 1,14,-1
 804 -269 l 2,15,16
 804 -374 804 -374 744.5 -449.5 c 128,-1,17
 685 -525 685 -525 602 -525 c 2,18,-1
 566 -525 l 1,0,-1
EndSplineSet
EndChar

StartChar: bar
Encoding: 124 124 142
Width: 855
Flags: HMW
HStem: -354 2089<349 506 350 506 350 506>
VStem: 349 157<-354 -2>
LayerCount: 2
Fore
SplineSet
349 -354 m 1,0,1
 350 1735 l 1,2,-1
 506 1735 l 1,3,-1
 506 -354 l 1,4,-1
 349 -354 l 1,0,1
EndSplineSet
EndChar

StartChar: bracketleft
Encoding: 91 91 143
Width: 1193
Flags: HMW
HStem: -392 147<520 915 586 915 586 915> 1634 145<586 915 586 586>
VStem: 357 229<-146 1534 1534 1602>
LayerCount: 2
Fore
SplineSet
357 -146 m 2,0,-1
 357 1534 l 2,1,2
 357 1636 357 1636 423 1707.5 c 128,-1,3
 489 1779 489 1779 581 1779 c 2,4,-1
 915 1779 l 1,5,-1
 915 1634 l 1,6,-1
 586 1634 l 1,7,-1
 586 -245 l 1,8,-1
 915 -245 l 1,9,-1
 915 -392 l 1,10,-1
 581 -392 l 2,11,12
 489 -392 489 -392 423 -319.5 c 128,-1,13
 357 -247 357 -247 357 -146 c 2,0,-1
EndSplineSet
EndChar

StartChar: bracketright
Encoding: 93 93 144
Width: 1193
Flags: HMW
HStem: -388 144<357 685 357 686 357 685> 1634 147<357 685 357 686>
VStem: 685 230<-210 -142 -142 1536>
LayerCount: 2
Fore
SplineSet
357 -244 m 1,0,-1
 685 -244 l 1,1,-1
 685 1634 l 1,2,-1
 357 1634 l 1,3,-1
 357 1781 l 1,4,-1
 686 1781 l 2,5,6
 781 1781 781 1781 848 1709.5 c 128,-1,7
 915 1638 915 1638 915 1536 c 2,8,-1
 915 -142 l 2,9,10
 915 -244 915 -244 848 -316 c 128,-1,11
 781 -388 781 -388 686 -388 c 2,12,-1
 357 -388 l 1,13,-1
 357 -244 l 1,0,-1
EndSplineSet
EndChar

StartChar: parenleft
Encoding: 40 40 145
Width: 1193
Flags: HMW
HStem: -388 2165<916 916>
VStem: 357 229<429 960 960 1069>
LayerCount: 2
Fore
SplineSet
357 429 m 2,0,-1
 357 960 l 2,1,2
 357 1188 357 1188 429.5 1371 c 128,-1,3
 502 1554 502 1554 629.5 1660 c 128,-1,4
 757 1766 757 1766 916 1777 c 1,5,-1
 916 1629 l 1,6,7
 774 1601 774 1601 680 1446.5 c 128,-1,8
 586 1292 586 1292 586 1069 c 2,9,-1
 586 319 l 2,10,11
 586 96 586 96 680 -59 c 128,-1,12
 774 -214 774 -214 916 -242 c 1,13,-1
 916 -388 l 1,14,15
 800 -373 800 -373 698 -306.5 c 128,-1,16
 596 -240 596 -240 520.5 -135 c 128,-1,17
 445 -30 445 -30 401 116 c 128,-1,18
 357 262 357 262 357 429 c 2,0,-1
EndSplineSet
EndChar

StartChar: parenright
Encoding: 41 41 146
Width: 1193
Flags: HMW
HStem: -388 2165<357 357>
VStem: 686 230<319 429 429 960>
LayerCount: 2
Fore
SplineSet
357 -242 m 1,0,1
 498 -213 498 -213 592 -58.5 c 128,-1,2
 686 96 686 96 686 319 c 2,3,-1
 686 1069 l 2,4,5
 686 1291 686 1291 592 1445.5 c 128,-1,6
 498 1600 498 1600 357 1629 c 1,7,-1
 357 1777 l 1,8,9
 515 1765 515 1765 642 1659 c 128,-1,10
 769 1553 769 1553 842.5 1370 c 128,-1,11
 916 1187 916 1187 916 960 c 2,12,-1
 916 429 l 2,13,14
 916 263 916 263 872 116.5 c 128,-1,15
 828 -30 828 -30 752 -135 c 128,-1,16
 676 -240 676 -240 574 -306.5 c 128,-1,17
 472 -373 472 -373 357 -388 c 1,18,-1
 357 -242 l 1,0,1
EndSplineSet
EndChar

StartChar: braceleft
Encoding: 123 123 147
Width: 1193
Flags: HMW
HStem: -391 2169<1004 1004>
VStem: 445 229<129 435 933 950 950 1249 1249 1358>
LayerCount: 2
Fore
SplineSet
445 129 m 2,0,-1
 445 466 l 2,1,2
 445 544 445 544 397.5 588 c 128,-1,3
 350 632 350 632 269 644 c 1,4,-1
 269 743 l 1,5,6
 445 763 445 763 445 933 c 2,7,-1
 445 1249 l 2,8,9
 445 1398 445 1398 520.5 1516 c 128,-1,10
 596 1634 596 1634 722 1700 c 128,-1,11
 848 1766 848 1766 1004 1778 c 1,12,-1
 1004 1632 l 1,13,14
 864 1619 864 1619 769 1542.5 c 128,-1,15
 674 1466 674 1466 674 1358 c 2,16,-1
 674 950 l 2,17,18
 674 872 674 872 614.5 803 c 128,-1,19
 555 734 555 734 460 692 c 1,20,21
 555 655 555 655 614.5 584.5 c 128,-1,22
 674 514 674 514 674 435 c 2,23,-1
 674 21 l 2,24,25
 674 -83 674 -83 768.5 -157 c 128,-1,26
 863 -231 863 -231 1004 -245 c 1,27,-1
 1004 -391 l 1,28,29
 845 -381 845 -381 719.5 -316.5 c 128,-1,30
 594 -252 594 -252 519.5 -136 c 128,-1,31
 445 -20 445 -20 445 129 c 2,0,-1
EndSplineSet
EndChar

StartChar: braceright
Encoding: 125 125 148
Width: 1193
Flags: HMW
HStem: -391 2169<269 269>
VStem: 599 229<21 129 129 435 435 466 950 1249>
LayerCount: 2
Fore
SplineSet
269 -245 m 1,0,1
 410 -231 410 -231 504.5 -157 c 128,-1,2
 599 -83 599 -83 599 21 c 2,3,-1
 599 435 l 2,4,5
 599 513 599 513 659 584 c 128,-1,6
 719 655 719 655 813 692 c 1,7,8
 718 734 718 734 658.5 803 c 128,-1,9
 599 872 599 872 599 950 c 2,10,-1
 599 1358 l 2,11,12
 599 1466 599 1466 504 1542.5 c 128,-1,13
 409 1619 409 1619 269 1632 c 1,14,-1
 269 1778 l 1,15,16
 427 1768 427 1768 553 1702.5 c 128,-1,17
 679 1637 679 1637 753.5 1518.5 c 128,-1,18
 828 1400 828 1400 828 1249 c 2,19,-1
 828 933 l 2,20,21
 828 763 828 763 1004 743 c 1,22,-1
 1004 644 l 1,23,24
 923 632 923 632 875.5 588 c 128,-1,25
 828 544 828 544 828 466 c 2,26,-1
 828 129 l 2,27,28
 828 -90 828 -90 668.5 -231 c 128,-1,29
 509 -372 509 -372 269 -391 c 1,30,-1
 269 -245 l 1,0,1
EndSplineSet
EndChar

StartChar: currency
Encoding: 164 164 149
Width: 1365
Flags: HMW
HStem: 152 173<444.5 900 545 900 545 949> 874 171<545 900 545 545>
VStem: 307 119<782 790 790 861.5> 1019 119<336 403 403 403 782 790>
LayerCount: 2
Fore
SplineSet
1019 782 m 1,0,-1
 1307 1059 l 1,1,-1
 1215 1146 l 1,2,-1
 1019 966 l 1,3,-1
 1019 782 l 1,0,-1
426 782 m 1,4,-1
 426 966 l 1,5,-1
 230 1146 l 1,6,-1
 138 1059 l 1,7,-1
 426 782 l 1,4,-1
307 406 m 2,8,-1
 307 790 l 2,9,10
 307 897 307 897 362.5 971 c 128,-1,11
 418 1045 418 1045 497 1045 c 2,12,-1
 948 1045 l 2,13,14
 1026 1045 1026 1045 1082 970.5 c 128,-1,15
 1138 896 1138 896 1138 790 c 2,16,-1
 1138 406 l 2,17,18
 1138 301 1138 301 1082 226.5 c 128,-1,19
 1026 152 1026 152 949 152 c 2,20,-1
 497 152 l 2,21,22
 418 152 418 152 362.5 226.5 c 128,-1,23
 307 301 307 301 307 406 c 2,8,-1
545 325 m 1,24,-1
 900 325 l 1,25,-1
 900 874 l 1,26,-1
 545 874 l 1,27,-1
 545 325 l 1,24,-1
1019 219 m 1,28,-1
 1019 403 l 1,29,-1
 1307 126 l 1,30,-1
 1215 39 l 1,31,-1
 1019 219 l 1,28,-1
138 126 m 1,32,-1
 426 403 l 1,33,-1
 426 219 l 1,34,-1
 230 39 l 1,35,-1
 138 126 l 1,32,-1
EndSplineSet
EndChar

StartChar: cent
Encoding: 162 162 150
Width: 1365
Flags: HMW
HStem: 103 171<403.5 939 506 939 506 987> 979 169<506 939 506 506>
VStem: 267 239<355 894 894 965> 656 157<-156 196> 939 239<894 965 894 979 894 979>
LayerCount: 2
Fore
SplineSet
656 -156 m 1,0,1
 657 1408 l 1,2,-1
 813 1408 l 1,3,-1
 813 -156 l 1,4,-1
 656 -156 l 1,0,1
267 355 m 2,5,-1
 267 894 l 2,6,7
 267 1000 267 1000 322 1074 c 128,-1,8
 377 1148 377 1148 455 1148 c 2,9,-1
 987 1148 l 2,10,11
 1066 1148 1066 1148 1122 1074 c 128,-1,12
 1178 1000 1178 1000 1178 894 c 2,13,-1
 1177 727 l 1,14,-1
 939 727 l 1,15,-1
 939 979 l 1,16,-1
 506 979 l 1,17,-1
 506 274 l 1,18,-1
 939 274 l 1,19,-1
 939 390 l 1,20,-1
 1177 390 l 1,21,-1
 1177 355 l 2,22,23
 1177 251 1177 251 1121 177 c 128,-1,24
 1065 103 1065 103 987 103 c 2,25,-1
 455 103 l 2,26,27
 378 103 378 103 322.5 177 c 128,-1,28
 267 251 267 251 267 355 c 2,5,-1
EndSplineSet
EndChar

StartChar: paragraph
Encoding: 182 182 151
Width: 1715
Flags: HMW
HStem: 1344 171<914 1056 914 914 1274 1342 1274 1274>
VStem: 695 219<-84 -14 -14 249 249 249> 1056 218<-79 -9 -9 1344>
LayerCount: 2
Fore
SplineSet
434 249 m 2,0,1
 356 249 356 249 300 322.5 c 128,-1,2
 244 396 244 396 244 501 c 2,3,-1
 244 1261 l 2,4,5
 244 1367 244 1367 300 1441 c 128,-1,6
 356 1515 356 1515 434 1515 c 2,7,-1
 1517 1515 l 1,8,9
 1509 1444 1509 1444 1458.5 1394 c 128,-1,10
 1408 1344 1408 1344 1342 1344 c 2,11,-1
 1274 1344 l 1,12,-1
 1274 -9 l 2,13,14
 1274 -114 1274 -114 1214.5 -189.5 c 128,-1,15
 1155 -265 1155 -265 1072 -265 c 2,16,-1
 1056 -265 l 1,17,-1
 1056 1344 l 1,18,-1
 914 1344 l 1,19,-1
 914 -14 l 2,20,21
 914 -119 914 -119 854 -194.5 c 128,-1,22
 794 -270 794 -270 711 -270 c 2,23,-1
 695 -270 l 1,24,-1
 695 249 l 1,25,-1
 434 249 l 2,0,1
EndSplineSet
EndChar

StartChar: Oslash
Encoding: 216 216 152
Width: 1399
Flags: HMW
HStem: -177 1894<194 1236 194 1236> 0 171<373.5 957 476 957 476 1005> 1347 169<476 957 476 476>
VStem: 194 1042 237 239<252 1262 1262 1333> 957 239<1262 1333 1262 1347 1262 1347>
LayerCount: 2
Fore
SplineSet
194 -177 m 1,0,-1
 1075 1717 l 1,1,-1
 1236 1717 l 1,2,-1
 345 -177 l 1,3,-1
 194 -177 l 1,0,-1
237 252 m 2,4,5
 237 148 237 148 292.5 74 c 128,-1,6
 348 0 348 0 425 0 c 2,7,-1
 1005 0 l 2,8,9
 1083 0 1083 0 1139 74 c 128,-1,10
 1195 148 1195 148 1195 252 c 2,11,-1
 1196 1262 l 2,12,13
 1196 1368 1196 1368 1140 1442 c 128,-1,14
 1084 1516 1084 1516 1005 1516 c 2,15,-1
 425 1516 l 2,16,17
 347 1516 347 1516 292 1442 c 128,-1,18
 237 1368 237 1368 237 1262 c 2,19,-1
 237 252 l 2,4,5
476 171 m 1,20,-1
 476 1347 l 1,21,-1
 957 1347 l 1,22,-1
 957 171 l 1,23,-1
 476 171 l 1,20,-1
EndSplineSet
EndChar

StartChar: AE
Encoding: 198 198 153
Width: 1868
Flags: HMW
HStem: 0 171<1049 1817 1152 1642> 512 161<205 1598 205 1598> 1347 169<643 912 643 643 1152 1728 1152 1152>
VStem: 912 240<252 1347 171 1347>
LayerCount: 2
Fore
SplineSet
643 1347 m 1,0,-1
 429 0 l 1,1,-1
 193 0 l 1,2,-1
 421 1327 l 2,3,4
 435 1408 435 1408 492.5 1462 c 128,-1,5
 550 1516 550 1516 616 1516 c 2,6,-1
 1728 1516 l 1,7,-1
 1728 1347 l 1,8,-1
 1152 1347 l 1,9,-1
 1152 171 l 1,10,-1
 1817 171 l 1,11,12
 1809 100 1809 100 1758.5 50 c 128,-1,13
 1708 0 1708 0 1642 0 c 2,14,-1
 1102 0 l 2,15,16
 1023 0 1023 0 967.5 73.5 c 128,-1,17
 912 147 912 147 912 252 c 2,18,-1
 912 1347 l 1,19,-1
 643 1347 l 1,0,-1
40 512 m 1,20,21
 46 579 46 579 94 626 c 128,-1,22
 142 673 142 673 205 673 c 2,23,-1
 1598 673 l 1,24,-1
 1598 512 l 1,25,-1
 40 512 l 1,20,21
EndSplineSet
EndChar

StartChar: eth
Encoding: 240 240 154
Width: 1365
Flags: HMW
HStem: 0 171<373.5 910 466 910 466 948> 789 171<466 937 466 466>
VStem: 237 229<252 706 706 777> 910 229<758 829 758 841 758 841>
LayerCount: 2
Fore
SplineSet
1064 588 m 1,0,-1
 1087 933 l 1,1,-1
 604 1593 l 1,2,-1
 335 1593 l 1,3,-1
 1064 588 l 1,0,-1
263 1133 m 1,4,-1
 263 1294 l 1,5,-1
 1035 1560 l 1,6,-1
 1035 1399 l 1,7,-1
 263 1133 l 1,4,-1
237 252 m 2,8,-1
 237 706 l 2,9,10
 237 812 237 812 292 886 c 128,-1,11
 347 960 347 960 425 960 c 2,12,-1
 964 960 l 1,13,-1
 937 789 l 1,14,-1
 466 789 l 1,15,-1
 466 171 l 1,16,-1
 910 171 l 1,17,-1
 910 841 l 1,18,-1
 891 841 l 1,19,-1
 864 1012 l 1,20,-1
 948 1012 l 2,21,22
 1027 1012 1027 1012 1083 938 c 128,-1,23
 1139 864 1139 864 1139 758 c 2,24,-1
 1138 252 l 2,25,26
 1138 148 1138 148 1082 74 c 128,-1,27
 1026 0 1026 0 948 0 c 2,28,-1
 425 0 l 2,29,30
 348 0 348 0 292.5 74 c 128,-1,31
 237 148 237 148 237 252 c 2,8,-1
EndSplineSet
EndChar

StartChar: Thorn
Encoding: 222 222 155
Width: 1365
Flags: HMW
HStem: 0 21G<238 238 238 478> 307 171<125 237 125 238 478 478 478 939> 1087 169<477 939 477 477> 1496 20G<237 476 476 476>
VStem: 237 240<478 1087> 939 233<489 559 559 1002>
LayerCount: 2
Fore
SplineSet
238 0 m 1,0,-1
 238 307 l 1,1,-1
 -50 307 l 1,2,3
 -42 378 -42 378 8.5 428 c 128,-1,4
 59 478 59 478 125 478 c 2,5,-1
 237 478 l 1,6,-1
 237 1516 l 1,7,-1
 476 1516 l 1,8,-1
 476 1256 l 1,9,-1
 982 1256 l 2,10,11
 1060 1256 1060 1256 1116 1182 c 128,-1,12
 1172 1108 1172 1108 1172 1002 c 2,13,-1
 1172 559 l 2,14,15
 1172 454 1172 454 1116 380.5 c 128,-1,16
 1060 307 1060 307 982 307 c 2,17,-1
 478 307 l 1,18,-1
 478 0 l 1,19,-1
 238 0 l 1,0,-1
477 478 m 1,20,-1
 939 478 l 1,21,-1
 939 1087 l 1,22,-1
 477 1087 l 1,23,-1
 477 478 l 1,20,-1
EndSplineSet
EndChar

StartChar: foundryicon
Encoding: 65547 -1 156
Width: 1641
Flags: HMW
HStem: 479 76<1071 1161 1161 1180.5> 878 69<886 963 886 963 1071 1200>
VStem: 708 113 963 108<561.5 593 593 878 555 947 947 1071>
LayerCount: 2
Fore
SplineSet
392 232 m 2,0,1
 310 232 310 232 251.5 290 c 128,-1,2
 193 348 193 348 193 431 c 2,3,-1
 193 1088 l 2,4,5
 193 1170 193 1170 251.5 1228.5 c 128,-1,6
 310 1287 310 1287 392 1287 c 2,7,-1
 1248 1287 l 2,8,9
 1330 1287 1330 1287 1388 1228.5 c 128,-1,10
 1446 1170 1446 1170 1446 1088 c 2,11,-1
 1446 436 l 2,12,13
 1446 347 1446 347 1386 289.5 c 128,-1,14
 1326 232 1326 232 1251 232 c 2,15,-1
 392 232 l 2,0,1
963 593 m 2,16,17
 963 546 963 546 988.5 512.5 c 128,-1,18
 1014 479 1014 479 1049 479 c 2,19,-1
 1161 479 l 2,20,21
 1190 479 1190 479 1212.5 501 c 128,-1,22
 1235 523 1235 523 1240 555 c 1,23,-1
 1071 555 l 1,24,-1
 1071 878 l 1,25,-1
 1200 878 l 1,26,-1
 1200 947 l 1,27,-1
 1071 947 l 1,28,-1
 1071 1124 l 1,29,-1
 963 1071 l 1,30,-1
 963 947 l 1,31,-1
 886 947 l 1,32,-1
 886 878 l 1,33,-1
 963 878 l 1,34,-1
 963 593 l 2,16,17
373 479 m 1,35,-1
 479 479 l 1,36,-1
 613 847 l 1,37,38
 619 803 619 803 665 753 c 128,-1,39
 711 703 711 703 708 648 c 1,40,41
 701 565 701 565 628 557 c 1,42,43
 621.117647059 479 621.117647059 479 695 479 c 2,44,-1
 822 479 l 2,45,46
 850 479 850 479 872 500.5 c 128,-1,47
 894 522 894 522 903 557 c 1,48,-1
 737 557 l 1,49,50
 772 566 772 566 796 595 c 128,-1,51
 820 624 820 624 821 667 c 128,-1,52
 822 710 822 710 796 756 c 128,-1,53
 770 802 770 802 747.5 820.5 c 128,-1,54
 725 839 725 839 706.5 854 c 128,-1,55
 688 869 688 869 682 874.5 c 128,-1,56
 676 880 676 880 665.5 892 c 0,57,58
 639.192307692 922.065934066 639.192307692 922.065934066 659 973 c 1,59,-1
 556 973 l 1,60,-1
 373 479 l 1,35,-1
EndSplineSet
EndChar

StartChar: Lslash
Encoding: 321 321 157
Width: 1193
Flags: HMW
HStem: 0 171<205 267 358 944> 563 436 1357 159<505 776 505 505>
VStem: 0 830<563 999 732 999> 267 238<347 416 416 1262 1262 1333> 944 211<171 371 122 371>
LayerCount: 2
Fore
SplineSet
0 563 m 1,0,-1
 0 732 l 1,1,-1
 830 999 l 1,2,-1
 830 830 l 1,3,-1
 0 563 l 1,0,-1
30 0 m 1,4,5
 37 70 37 70 87.5 120.5 c 128,-1,6
 138 171 138 171 205 171 c 2,7,-1
 267 171 l 1,8,-1
 267 1262 l 2,9,10
 267 1368 267 1368 322.5 1442 c 128,-1,11
 378 1516 378 1516 456 1516 c 2,12,-1
 776 1516 l 1,13,-1
 776 1357 l 1,14,-1
 505 1357 l 1,15,-1
 505 416 l 2,16,17
 505 320 505 320 457.5 250 c 128,-1,18
 410 180 410 180 358 171 c 1,19,-1
 944 171 l 1,20,-1
 944 371 l 1,21,-1
 1155 371 l 1,22,-1
 1155 170 l 2,23,24
 1155 100 1155 100 1101.5 50 c 128,-1,25
 1048 0 1048 0 980 0 c 2,26,-1
 30 0 l 1,4,5
EndSplineSet
EndChar

StartChar: Eth
Encoding: 208 208 158
Width: 1366
Flags: HMW
HStem: 0 171<476 937 476 987> 549 154<15 688 15 688> 1347 169<218 937>
VStem: 15 673<549 703 549 703> 237 239<982 1051> 937 239<182.5 252 252 1262>
LayerCount: 2
Fore
SplineSet
15 549 m 1,0,-1
 15 703 l 1,1,-1
 688 703 l 1,2,-1
 688 549 l 1,3,-1
 15 549 l 1,0,-1
238 0 m 1,4,-1
 237 982 l 2,5,6
 237 1085 237 1085 294 1159.5 c 128,-1,7
 351 1234 351 1234 431 1234 c 2,8,-1
 476 1234 l 1,9,-1
 476 171 l 1,10,-1
 937 171 l 1,11,-1
 937 1347 l 1,12,-1
 43 1347 l 1,13,14
 50 1418 50 1418 100.5 1467 c 128,-1,15
 151 1516 151 1516 218 1516 c 2,16,-1
 986 1516 l 2,17,18
 1065 1516 1065 1516 1120.5 1442 c 128,-1,19
 1176 1368 1176 1368 1176 1262 c 2,20,-1
 1176 252 l 2,21,22
 1176 148 1176 148 1121 74 c 128,-1,23
 1066 0 1066 0 987 0 c 2,24,-1
 238 0 l 1,4,-1
EndSplineSet
EndChar

StartChar: underscore
Encoding: 95 95 161
Width: 1609
Flags: HMW
HStem: -255 128<-38 1648 -38 1648>
VStem: -38 1686<-255 -127 -255 -127>
LayerCount: 2
Fore
SplineSet
-38 -127 m 1,0,-1
 1648 -127 l 1,1,-1
 1648 -255 l 1,2,-1
 -38 -255 l 1,3,-1
 -38 -127 l 1,0,-1
EndSplineSet
EndChar

StartChar: asciicircum
Encoding: 94 94 162
Width: 1365
Flags: HMW
HStem: 1495 20G<607 809 809 809>
VStem: 267 898<467 467>
LayerCount: 2
Fore
SplineSet
267 467 m 1,0,-1
 607 1515 l 1,1,-1
 809 1515 l 1,2,3
 877 1312 877 1312 1003.5 941 c 128,-1,4
 1130 570 1130 570 1165 467 c 1,5,-1
 980 467 l 1,6,-1
 708 1333 l 1,7,-1
 452 467 l 1,8,-1
 267 467 l 1,0,-1
EndSplineSet
EndChar

StartChar: kgreenlandic
Encoding: 312 312 163
Width: 1335
Flags: HMW
HStem: 0 171<968.5 1258 1068 1083> 427 168<476 641 476 830 476 641> 1027 20G<237 476 476 476 828 1079 1079 1079>
VStem: 237 239<0 427 595 1047> 830 238<254 341 171 427 171 427>
LayerCount: 2
Fore
SplineSet
237 0 m 1,0,-1
 237 1047 l 1,1,-1
 476 1047 l 1,2,-1
 476 595 l 1,3,-1
 641 595 l 1,4,-1
 828 1047 l 1,5,-1
 1079 1047 l 1,6,-1
 878 598 l 1,7,8
 960 584 960 584 1014 511.5 c 128,-1,9
 1068 439 1068 439 1068 341 c 2,10,-1
 1068 171 l 1,11,-1
 1258 171 l 1,12,13
 1250 100 1250 100 1199.5 50 c 128,-1,14
 1149 0 1149 0 1083 0 c 2,15,-1
 1020 0 l 2,16,17
 942 0 942 0 886 74.5 c 128,-1,18
 830 149 830 149 830 254 c 2,19,-1
 830 427 l 1,20,-1
 476 427 l 1,21,-1
 476 0 l 1,22,-1
 237 0 l 1,0,-1
EndSplineSet
EndChar

StartChar: brokenbar
Encoding: 166 166 164
Width: 855
Flags: HMW
HStem: -354 2089<349 506 350 506 350 506>
VStem: 349 156
LayerCount: 2
Fore
SplineSet
349 892 m 1,0,1
 350 1735 l 1,2,-1
 506 1735 l 1,3,-1
 506 892 l 1,4,-1
 349 892 l 1,0,1
349 -354 m 1,5,-1
 350 510 l 1,6,-1
 506 510 l 1,7,-1
 506 -354 l 1,8,-1
 349 -354 l 1,5,-1
EndSplineSet
EndChar

StartChar: backslash
Encoding: 92 92 165
Width: 1245
Flags: HMW
HStem: -176 1945<163 909 163 1082>
VStem: 163 919
LayerCount: 2
Fore
SplineSet
909 -176 m 1,0,-1
 163 1769 l 1,1,-1
 333 1769 l 1,2,3
 388 1626 388 1626 661.5 916 c 128,-1,4
 935 206 935 206 1082 -176 c 1,5,-1
 909 -176 l 1,0,-1
EndSplineSet
EndChar

StartChar: exclamdown
Encoding: 161 161 166
Width: 855
Flags: HMW
HStem: -11 1554<380.5 468>
VStem: 259 337<1327.5 1420.5>
LayerCount: 2
Fore
SplineSet
546 1255.5 m 128,-1,1
 496 1206 496 1206 426.5 1206 c 128,-1,2
 357 1206 357 1206 308 1255 c 128,-1,3
 259 1304 259 1304 259 1374 c 128,-1,4
 259 1444 259 1444 308 1493.5 c 128,-1,5
 357 1543 357 1543 427 1543 c 128,-1,6
 497 1543 497 1543 546.5 1493.5 c 128,-1,7
 596 1444 596 1444 596 1374.5 c 128,-1,0
 596 1305 596 1305 546 1255.5 c 128,-1,1
262 178 m 0,8,9
 262 196 262 196 268 250 c 2,10,-1
 365 1027 l 1,11,-1
 480 1027 l 1,12,-1
 581 253 l 2,13,14
 586 213 586 213 586 176 c 0,15,16
 586 98 586 98 538.5 43.5 c 128,-1,17
 491 -11 491 -11 423 -11 c 128,-1,18
 355 -11 355 -11 308.5 44.5 c 128,-1,19
 262 100 262 100 262 178 c 0,8,9
EndSplineSet
EndChar

StartChar: questiondown
Encoding: 191 191 167
Width: 1193
Flags: HMW
HStem: 0 172<309.5 821 411 821 411 870>
VStem: 172 239<254 462 462 513> 531 238<821 871 871 995 819.5 995> 821 239<183.5 254 254 385 183.5 385>
LayerCount: 2
Fore
SplineSet
767 1239.5 m 128,-1,1
 717 1190 717 1190 647.5 1190 c 128,-1,2
 578 1190 578 1190 529 1239 c 128,-1,3
 480 1288 480 1288 480 1358 c 128,-1,4
 480 1428 480 1428 529 1477.5 c 128,-1,5
 578 1527 578 1527 648 1527 c 128,-1,6
 718 1527 718 1527 767.5 1477.5 c 128,-1,7
 817 1428 817 1428 817 1358.5 c 128,-1,0
 817 1289 817 1289 767 1239.5 c 128,-1,1
172 254 m 2,8,-1
 172 462 l 2,9,10
 172 538 172 538 205 604.5 c 128,-1,11
 238 671 238 671 288 697 c 2,12,-1
 531 821 l 1,13,-1
 531 995 l 1,14,-1
 769 995 l 1,15,-1
 769 871 l 2,16,17
 769 793 769 793 739.5 729 c 128,-1,18
 710 665 710 665 661 640 c 2,19,-1
 411 513 l 1,20,-1
 411 172 l 1,21,-1
 821 172 l 1,22,-1
 821 385 l 1,23,-1
 1060 385 l 1,24,-1
 1060 254 l 2,25,26
 1060 148 1060 148 1004.5 74 c 128,-1,27
 949 0 949 0 870 0 c 2,28,-1
 362 0 l 2,29,30
 283 0 283 0 227.5 74 c 128,-1,31
 172 148 172 148 172 254 c 2,8,-1
EndSplineSet
EndChar

StartChar: quoteleft
Encoding: 8216 8216 168
Width: 855
Flags: HMW
HStem: 1495 20G<507 507>
VStem: 254 347<1020 1470>
LayerCount: 2
Fore
SplineSet
510 1212 m 1,0,1
 592 1164.52631579 592 1164.52631579 592 1067 c 0,2,3
 592 996 592 996 543.5 947 c 128,-1,4
 495 898 495 898 424 898 c 128,-1,5
 353 898 353 898 303.5 947.5 c 128,-1,6
 254 997 254 997 254 1072.5 c 128,-1,7
 254 1148 254 1148 287 1215.5 c 128,-1,8
 320 1283 320 1283 393 1372 c 1,9,-1
 507 1515 l 1,10,-1
 601 1470 l 1,11,-1
 510 1212 l 1,0,1
EndSplineSet
EndChar

StartChar: quoteright
Encoding: 8217 8217 169
Width: 855
Flags: HMW
HStem: 1495 20G<384 478.5>
VStem: 254 347<943 1393>
LayerCount: 2
Fore
SplineSet
345 1201 m 1,0,1
 263 1248.47368421 263 1248.47368421 263 1346 c 0,2,3
 263 1417 263 1417 311.5 1466 c 128,-1,4
 360 1515 360 1515 431 1515 c 128,-1,5
 502 1515 502 1515 551.5 1465.5 c 128,-1,6
 601 1416 601 1416 601 1340.5 c 128,-1,7
 601 1265 601 1265 568 1197.5 c 128,-1,8
 535 1130 535 1130 462 1041 c 1,9,-1
 348 898 l 1,10,-1
 254 943 l 1,11,-1
 345 1201 l 1,0,1
EndSplineSet
EndChar

StartChar: quotesinglbase
Encoding: 8218 8218 170
Width: 855
Flags: HMW
HStem: -291 617<348 478.5>
VStem: 254 347<-246 204>
LayerCount: 2
Fore
SplineSet
345 12 m 1,0,1
 263 59.4736842105 263 59.4736842105 263 157 c 0,2,3
 263 228 263 228 311.5 277 c 128,-1,4
 360 326 360 326 431 326 c 128,-1,5
 502 326 502 326 551.5 276.5 c 128,-1,6
 601 227 601 227 601 151.5 c 128,-1,7
 601 76 601 76 568 8.5 c 128,-1,8
 535 -59 535 -59 462 -148 c 1,9,-1
 348 -291 l 1,10,-1
 254 -246 l 1,11,-1
 345 12 l 1,0,1
EndSplineSet
EndChar

StartChar: quotedblbase
Encoding: 8222 8222 171
Width: 1161
Flags: HMW
HStem: -291 617<277 407.5 313 792>
VStem: 183 862<-246 204>
LayerCount: 2
Fore
SplineSet
789 12 m 1,0,1
 707 59.4736842105 707 59.4736842105 707 157 c 0,2,3
 707 228 707 228 755.5 277 c 128,-1,4
 804 326 804 326 875 326 c 128,-1,5
 946 326 946 326 995.5 276.5 c 128,-1,6
 1045 227 1045 227 1045 151.5 c 128,-1,7
 1045 76 1045 76 1012 10 c 128,-1,8
 979 -56 979 -56 906 -148 c 2,9,-1
 792 -291 l 1,10,-1
 698 -246 l 1,11,-1
 789 12 l 1,0,1
274 12 m 1,12,13
 192 59.4736842105 192 59.4736842105 192 157 c 0,14,15
 192 228 192 228 240.5 277 c 128,-1,16
 289 326 289 326 360 326 c 128,-1,17
 431 326 431 326 480.5 276.5 c 128,-1,18
 530 227 530 227 530 151.5 c 128,-1,19
 530 76 530 76 497 10 c 128,-1,20
 464 -56 464 -56 391 -148 c 2,21,-1
 277 -291 l 1,22,-1
 183 -246 l 1,23,-1
 274 12 l 1,12,13
EndSplineSet
EndChar

StartChar: lozenge
Encoding: 9674 9674 172
Width: 1365
Flags: HMW
HStem: 0 21G<603 603 603 832> 0 131<603 711 711 711 711 832>
VStem: 221 983<742 742>
LayerCount: 2
Fore
SplineSet
603 0 m 1,0,-1
 221 742 l 1,1,-1
 601 1487 l 1,2,-1
 830 1487 l 1,3,-1
 1204 742 l 1,4,-1
 832 0 l 1,5,-1
 603 0 l 1,0,-1
711 131 m 1,6,-1
 1006 742 l 1,7,-1
 712 1356 l 1,8,-1
 410 742 l 1,9,-1
 711 131 l 1,6,-1
EndSplineSet
EndChar

StartChar: dotaccent
Encoding: 729 729 173
Width: 709
Flags: HMW
HStem: 1459 341<293.5 388>
VStem: 175 333<1577 1676.5>
LayerCount: 2
Fore
SplineSet
460 1506 m 128,-1,1
 412 1459 412 1459 340.5 1459 c 128,-1,2
 269 1459 269 1459 222 1505.5 c 128,-1,3
 175 1552 175 1552 175 1627 c 128,-1,4
 175 1702 175 1702 222.5 1751 c 128,-1,5
 270 1800 270 1800 341 1800 c 128,-1,6
 412 1800 412 1800 460 1750.5 c 128,-1,7
 508 1701 508 1701 508 1627 c 128,-1,0
 508 1553 508 1553 460 1506 c 128,-1,1
EndSplineSet
EndChar

StartChar: hungarumlaut
Encoding: 733 733 174
Width: 1598
Flags: HMW
HStem: 1344 552
VStem: 424 966
LayerCount: 2
Fore
SplineSet
548 1356 m 1,0,-1
 424 1431 l 1,1,-1
 560 1793 l 2,2,3
 586 1862 586 1862 646 1886.5 c 128,-1,4
 706 1911 706 1911 770 1874 c 1,5,6
 832 1836 832 1836 836 1759.5 c 128,-1,7
 840 1683 840 1683 789 1628 c 1,8,-1
 548 1356 l 1,0,-1
960 1425 m 1,9,-1
 1118 1774 l 1,10,11
 1147 1842 1147 1842 1209.5 1863 c 128,-1,12
 1272 1884 1272 1884 1332 1842 c 1,13,14
 1391 1796 1391 1796 1390 1721.5 c 128,-1,15
 1389 1647 1389 1647 1335 1593 c 2,16,-1
 1086 1344 l 1,17,-1
 960 1425 l 1,9,-1
EndSplineSet
EndChar

StartChar: breve
Encoding: 728 728 175
Width: 1391
Flags: HMW
HStem: 1459 225<537.5 706 660 706 706 728>
VStem: 278 151<1810 1846 1810 1846> 937 150<1810 1846>
LayerCount: 2
Fore
SplineSet
637 1459 m 2,0,1
 486 1459 486 1459 382 1568.5 c 128,-1,2
 278 1678 278 1678 278 1846 c 1,3,-1
 429 1846 l 1,4,5
 429 1789 429 1789 499.5 1736.5 c 128,-1,6
 570 1684 570 1684 660 1684 c 2,7,-1
 706 1684 l 2,8,9
 795 1684 795 1684 866 1737 c 128,-1,10
 937 1790 937 1790 937 1846 c 1,11,-1
 1087 1846 l 1,12,13
 1087 1678 1087 1678 983 1568.5 c 128,-1,14
 879 1459 879 1459 728 1459 c 2,15,-1
 637 1459 l 2,0,1
EndSplineSet
EndChar

StartChar: ogonek
Encoding: 731 731 176
Width: 1132
Flags: HMW
HStem: -509 208<515.5 961 579 961 579 961>
VStem: 398 563<-382.5 -307>
LayerCount: 2
Fore
SplineSet
447 -207 m 1,0,-1
 760 111 l 1,1,-1
 926 59 l 1,2,-1
 579 -301 l 1,3,-1
 961 -301 l 1,4,-1
 961 -509 l 1,5,-1
 561 -509 l 2,6,7
 494 -509 494 -509 446 -457.5 c 128,-1,8
 398 -406 398 -406 398 -334.5 c 0,9,10
 398 -263 398 -263 447 -207 c 1,0,-1
EndSplineSet
EndChar

StartChar: perthousand
Encoding: 8240 8240 177
Width: 2699
Flags: HMW
HStem: -1 109<1292 1632> 464 109<2025 2336 2025 2130> 614 109<376 716> 1129 109<271 612 271 376>
VStem: 164 212<774 1079 1079 1123.5> 612 211<728.5 773 773 1078> 1080 212<159 464 464 508.5> 1528 211<113.5 158 158 463> 1918 212<159 414 414 458.5> 2336 211<113.5 158 158 413>
LayerCount: 2
Fore
SplineSet
1918 159 m 2,0,-1
 1918 414 l 2,1,2
 1918 481 1918 481 1961 527 c 128,-1,3
 2004 573 2004 573 2066 573 c 2,4,-1
 2398 572 l 2,5,6
 2460 572 2460 572 2503.5 525.5 c 128,-1,7
 2547 479 2547 479 2547 413 c 2,8,-1
 2547 158 l 2,9,10
 2547 91 2547 91 2504 45 c 128,-1,11
 2461 -1 2461 -1 2399 -1 c 2,12,-1
 2067 0 l 2,13,14
 2005 0 2005 0 1961.5 46.5 c 128,-1,15
 1918 93 1918 93 1918 159 c 2,0,-1
2130 108 m 1,16,-1
 2336 108 l 1,17,-1
 2336 464 l 1,18,-1
 2130 464 l 1,19,-1
 2130 108 l 1,16,-1
462 -59 m 1,20,-1
 1269 1311 l 1,21,-1
 1446 1311 l 1,22,-1
 640 -59 l 1,23,-1
 462 -59 l 1,20,-1
313 615 m 2,24,25
 251 615 251 615 207.5 661.5 c 128,-1,26
 164 708 164 708 164 774 c 2,27,-1
 164 1079 l 2,28,29
 164 1146 164 1146 207 1192 c 128,-1,30
 250 1238 250 1238 312 1238 c 2,31,-1
 674 1237 l 2,32,33
 736 1237 736 1237 779.5 1190.5 c 128,-1,34
 823 1144 823 1144 823 1078 c 2,35,-1
 823 773 l 2,36,37
 823 706 823 706 780 660 c 128,-1,38
 737 614 737 614 675 614 c 2,39,-1
 313 615 l 2,24,25
376 723 m 1,40,-1
 612 723 l 1,41,-1
 612 1129 l 1,42,-1
 376 1129 l 1,43,-1
 376 723 l 1,40,-1
1080 159 m 2,44,-1
 1080 464 l 2,45,46
 1080 531 1080 531 1123 577 c 128,-1,47
 1166 623 1166 623 1228 623 c 2,48,-1
 1590 622 l 2,49,50
 1652 622 1652 622 1695.5 575.5 c 128,-1,51
 1739 529 1739 529 1739 463 c 2,52,-1
 1739 158 l 2,53,54
 1739 91 1739 91 1696 45 c 128,-1,55
 1653 -1 1653 -1 1591 -1 c 2,56,-1
 1229 0 l 2,57,58
 1167 0 1167 0 1123.5 46.5 c 128,-1,59
 1080 93 1080 93 1080 159 c 2,44,-1
1292 108 m 1,60,-1
 1528 108 l 1,61,-1
 1528 514 l 1,62,-1
 1292 514 l 1,63,-1
 1292 108 l 1,60,-1
EndSplineSet
EndChar

StartChar: trademark
Encoding: 8482 8482 178
Width: 1882
Flags: HMW
HStem: 1421 95<200 378 199 691 512 512 512 691>
VStem: 378 134<955 1421 955 1421> 917 131<955 1305 1409 1516> 1220 131<955 1304 1408 1410 1410 1410> 1522 133<955 1410 1410 1410>
LayerCount: 2
Fore
SplineSet
917 955 m 1,0,-1
 917 1516 l 1,1,-1
 1048 1516 l 1,2,-1
 1048 1409 l 1,3,-1
 1170 1487 l 1,4,5
 1202 1516 1202 1516 1245.5 1516 c 0,6,7
 1289 1516 1289 1516 1320 1487 c 128,-1,8
 1351 1458 1351 1458 1351 1419 c 2,9,-1
 1351 1408 l 1,10,-1
 1475 1487 l 1,11,12
 1507 1516 1507 1516 1550 1516 c 0,13,14
 1593 1516 1593 1516 1624 1487 c 128,-1,15
 1655 1458 1655 1458 1655 1419 c 2,16,-1
 1655 955 l 1,17,-1
 1522 955 l 1,18,-1
 1522 1410 l 1,19,-1
 1351 1304 l 1,20,-1
 1351 955 l 1,21,-1
 1220 955 l 1,22,-1
 1220 1410 l 1,23,-1
 1048 1305 l 1,24,-1
 1048 955 l 1,25,-1
 917 955 l 1,0,-1
378 955 m 1,26,-1
 378 1421 l 1,27,-1
 199 1421 l 1,28,-1
 200 1516 l 1,29,-1
 691 1516 l 1,30,-1
 691 1421 l 1,31,-1
 512 1421 l 1,32,-1
 512 955 l 1,33,-1
 378 955 l 1,26,-1
EndSplineSet
EndChar

StartChar: daggerdbl
Encoding: 8225 8225 179
Width: 1365
Flags: HMW
HStem: 527 156<377 565 377 565 803 980> 892 156<377 565 377 565 803 980>
VStem: 565 238<-339 -269 -269 527 683 892 1048 1578>
LayerCount: 2
Fore
SplineSet
217 527 m 1,0,1
 224 592 224 592 270.5 637.5 c 128,-1,2
 317 683 317 683 377 683 c 2,3,-1
 565 683 l 1,4,-1
 565 892 l 1,5,-1
 217 892 l 1,6,7
 224 957 224 957 270.5 1002.5 c 128,-1,8
 317 1048 317 1048 377 1048 c 2,9,-1
 565 1048 l 1,10,-1
 565 1578 l 1,11,-1
 803 1578 l 1,12,-1
 803 1048 l 1,13,-1
 1140 1048 l 1,14,15
 1133 983 1133 983 1086.5 937.5 c 128,-1,16
 1040 892 1040 892 980 892 c 2,17,-1
 803 892 l 1,18,-1
 803 683 l 1,19,-1
 1140 683 l 1,20,21
 1133 618 1133 618 1086.5 572.5 c 128,-1,22
 1040 527 1040 527 980 527 c 2,23,-1
 803 527 l 1,24,-1
 803 -269 l 2,25,26
 803 -374 803 -374 743.5 -449.5 c 128,-1,27
 684 -525 684 -525 601 -525 c 2,28,-1
 565 -525 l 1,29,-1
 565 527 l 1,30,-1
 217 527 l 1,0,1
EndSplineSet
EndChar

StartChar: notequal
Encoding: 8800 8800 180
Width: 1365
Flags: HMW
HStem: 201 175<290 1165 290 1165> 683 176<290 1165 290 1165>
VStem: 290 875<201 376 201 376 683 859 201 859>
LayerCount: 2
Fore
SplineSet
417 -59 m 1,0,-1
 870 1121 l 1,1,-1
 1042 1121 l 1,2,-1
 590 -59 l 1,3,-1
 417 -59 l 1,0,-1
290 683 m 1,4,-1
 290 859 l 1,5,-1
 1165 859 l 1,6,-1
 1165 683 l 1,7,-1
 290 683 l 1,4,-1
290 201 m 1,8,-1
 290 376 l 1,9,-1
 1165 376 l 1,10,-1
 1165 201 l 1,11,-1
 290 201 l 1,8,-1
EndSplineSet
EndChar

StartChar: lessequal
Encoding: 8804 8804 181
Width: 1365
Flags: HMW
HStem: 83 176<290 1126 290 1126>
VStem: 290 836<83 259 83 259 83 807 83 807>
LayerCount: 2
Fore
SplineSet
290 621 m 1,0,-1
 290 807 l 1,1,2
 439 852 439 852 715 938 c 128,-1,3
 991 1024 991 1024 1126 1065 c 1,4,-1
 1126 883 l 1,5,-1
 478 715 l 1,6,7
 1005 575 1005 575 1126 544 c 1,8,-1
 1126 363 l 1,9,-1
 290 621 l 1,0,-1
290 83 m 1,10,-1
 290 259 l 1,11,-1
 1126 259 l 1,12,-1
 1126 83 l 1,13,-1
 290 83 l 1,10,-1
EndSplineSet
EndChar

StartChar: greaterequal
Encoding: 8805 8805 182
Width: 1365
Flags: HMW
HStem: 83 176<290 1126 290 1126>
VStem: 290 836<83 259 83 259 83 544 83 544 83 1065 83 1065>
LayerCount: 2
Fore
SplineSet
290 1065 m 1,0,-1
 1126 807 l 1,1,-1
 1126 621 l 1,2,-1
 290 363 l 1,3,-1
 290 544 l 1,4,5
 411 575 411 575 938 715 c 1,6,-1
 290 883 l 1,7,-1
 290 1065 l 1,0,-1
290 83 m 1,8,-1
 290 259 l 1,9,-1
 1126 259 l 1,10,-1
 1126 83 l 1,11,-1
 290 83 l 1,8,-1
EndSplineSet
EndChar

StartChar: lcaron
Encoding: 318 318 183
Width: 904
Flags: HMW
HStem: 0 171<310.5 624 411 447> 1495 20G<711 805.5>
VStem: 172 239<254 1591 171 1591>
LayerCount: 2
Fore
SplineSet
172 254 m 2,0,-1
 172 1591 l 1,1,-1
 411 1591 l 1,2,-1
 411 171 l 1,3,-1
 624 171 l 1,4,5
 612 93 612 93 562.5 46.5 c 128,-1,6
 513 0 513 0 447 0 c 2,7,-1
 363 0 l 2,8,9
 284 0 284 0 228 74.5 c 128,-1,10
 172 149 172 149 172 254 c 2,0,-1
672 1201 m 1,11,12
 590 1248.47368421 590 1248.47368421 590 1346 c 0,13,14
 590 1417 590 1417 638.5 1466 c 128,-1,15
 687 1515 687 1515 758 1515 c 128,-1,16
 829 1515 829 1515 878.5 1465.5 c 128,-1,17
 928 1416 928 1416 928 1340.5 c 128,-1,18
 928 1265 928 1265 895 1197.5 c 128,-1,19
 862 1130 862 1130 789 1041 c 1,20,-1
 675 898 l 1,21,-1
 581 943 l 1,22,-1
 672 1201 l 1,11,12
EndSplineSet
EndChar

StartChar: Lcaron
Encoding: 317 317 184
Width: 1176
Flags: HMW
HStem: 0 171<196 258 349 905> 1357 159<496 679 496 496>
VStem: 258 238<347 416 416 1262 1262 1333> 905 211<171 351 122 351>
LayerCount: 2
Fore
SplineSet
21 0 m 1,0,1
 28 70 28 70 78.5 120.5 c 128,-1,2
 129 171 129 171 196 171 c 2,3,-1
 258 171 l 1,4,-1
 258 1262 l 2,5,6
 258 1368 258 1368 313.5 1442 c 128,-1,7
 369 1516 369 1516 447 1516 c 2,8,-1
 679 1516 l 1,9,-1
 679 1357 l 1,10,-1
 496 1357 l 1,11,-1
 496 416 l 2,12,13
 496 320 496 320 448.5 250 c 128,-1,14
 401 180 401 180 349 171 c 1,15,-1
 905 171 l 1,16,-1
 905 351 l 1,17,-1
 1116 351 l 1,18,-1
 1116 170 l 2,19,20
 1116 100 1116 100 1062.5 50 c 128,-1,21
 1009 0 1009 0 941 0 c 2,22,-1
 21 0 l 1,0,1
954 1201 m 1,23,24
 872 1248.47368421 872 1248.47368421 872 1346 c 0,25,26
 872 1417 872 1417 920.5 1466 c 128,-1,27
 969 1515 969 1515 1040 1515 c 128,-1,28
 1111 1515 1111 1515 1160.5 1465.5 c 128,-1,29
 1210 1416 1210 1416 1210 1340.5 c 128,-1,30
 1210 1265 1210 1265 1177 1197.5 c 128,-1,31
 1144 1130 1144 1130 1071 1041 c 1,32,-1
 957 898 l 1,33,-1
 863 943 l 1,34,-1
 954 1201 l 1,23,24
EndSplineSet
EndChar

StartChar: Ldot
Encoding: 319 319 185
Width: 1166
Flags: HMW
HStem: 0 171<226 288 379 965> 624 341<902.5 997> 1357 159<526 797 526 526>
VStem: 288 238<347 416 416 1262 1262 1333> 784 333<742 841.5> 965 211<171 371 122 371>
LayerCount: 2
Fore
SplineSet
51 0 m 1,0,1
 58 70 58 70 108.5 120.5 c 128,-1,2
 159 171 159 171 226 171 c 2,3,-1
 288 171 l 1,4,-1
 288 1262 l 2,5,6
 288 1368 288 1368 343.5 1442 c 128,-1,7
 399 1516 399 1516 477 1516 c 2,8,-1
 797 1516 l 1,9,-1
 797 1357 l 1,10,-1
 526 1357 l 1,11,-1
 526 416 l 2,12,13
 526 320 526 320 478.5 250 c 128,-1,14
 431 180 431 180 379 171 c 1,15,-1
 965 171 l 1,16,-1
 965 371 l 1,17,-1
 1176 371 l 1,18,-1
 1176 170 l 2,19,20
 1176 100 1176 100 1122.5 50 c 128,-1,21
 1069 0 1069 0 1001 0 c 2,22,-1
 51 0 l 1,0,1
1069 671 m 128,-1,24
 1021 624 1021 624 949.5 624 c 128,-1,25
 878 624 878 624 831 670.5 c 128,-1,26
 784 717 784 717 784 792 c 128,-1,27
 784 867 784 867 831.5 916 c 128,-1,28
 879 965 879 965 950 965 c 128,-1,29
 1021 965 1021 965 1069 915.5 c 128,-1,30
 1117 866 1117 866 1117 792 c 128,-1,23
 1117 718 1117 718 1069 671 c 128,-1,24
EndSplineSet
EndChar

StartChar: OE
Encoding: 338 338 186
Width: 1850
Flags: HMW
HStem: 0 171<339.5 923 442 874 1173.5 1206 1206 1653> 594 161<1163 1609 1163 1609> 1343 173<442 880 880 912.5 391 923 442 442 1212 1739>
VStem: 203 239<252 1262 1262 1333> 923 240<171 594 755 1343>
LayerCount: 2
Fore
SplineSet
203 252 m 2,0,-1
 203 1262 l 2,1,2
 203 1368 203 1368 258 1442 c 128,-1,3
 313 1516 313 1516 391 1516 c 2,4,-1
 880 1516 l 2,5,6
 929 1516 929 1516 973 1482.5 c 128,-1,7
 1017 1449 1017 1449 1046 1392 c 1,8,9
 1075 1449 1075 1449 1119 1482.5 c 128,-1,10
 1163 1516 1163 1516 1212 1516 c 2,11,-1
 1739 1516 l 1,12,-1
 1739 1343 l 1,13,-1
 1163 1343 l 1,14,-1
 1163 755 l 1,15,-1
 1609 755 l 1,16,-1
 1609 594 l 1,17,-1
 1163 594 l 1,18,-1
 1163 171 l 1,19,-1
 1828 171 l 1,20,21
 1820 100 1820 100 1769.5 50 c 128,-1,22
 1719 0 1719 0 1653 0 c 2,23,-1
 1206 0 l 2,24,25
 1157 0 1157 0 1113 33.5 c 128,-1,26
 1069 67 1069 67 1040 124 c 1,27,28
 1011 67 1011 67 967 33.5 c 128,-1,29
 923 0 923 0 874 0 c 2,30,-1
 391 0 l 2,31,32
 314 0 314 0 258.5 74 c 128,-1,33
 203 148 203 148 203 252 c 2,0,-1
442 171 m 1,34,-1
 923 171 l 1,35,-1
 923 1343 l 1,36,-1
 442 1343 l 1,37,-1
 442 171 l 1,34,-1
EndSplineSet
EndChar

StartChar: hbar
Encoding: 295 295 187
Width: 1337
Flags: HMW
HStem: 0 171<998.5 1313 1099 1140> 876 171<636 860 476 909> 1237 154<46 237 46 237 476 888>
VStem: 237 239<0 876 933 1237 1391 1590> 860 239<254 793 171 876 171 876>
LayerCount: 2
Fore
SplineSet
476 933 m 1,0,1
 535.111111111 1047 535.111111111 1047 636 1047 c 2,2,-1
 909 1047 l 2,3,4
 987 1047 987 1047 1043 972.5 c 128,-1,5
 1099 898 1099 898 1099 793 c 2,6,-1
 1099 171 l 1,7,-1
 1313 171 l 1,8,9
 1305 100 1305 100 1254.5 50 c 128,-1,10
 1204 0 1204 0 1140 0 c 2,11,-1
 1051 0 l 2,12,13
 972 0 972 0 916 74.5 c 128,-1,14
 860 149 860 149 860 254 c 2,15,-1
 860 876 l 1,16,-1
 476 876 l 1,17,-1
 476 0 l 1,18,-1
 237 0 l 1,19,-1
 237 1237 l 1,20,-1
 46 1237 l 1,21,-1
 46 1391 l 1,22,-1
 237 1391 l 1,23,-1
 237 1590 l 1,24,-1
 476 1590 l 1,25,-1
 476 1391 l 1,26,-1
 888 1391 l 1,27,-1
 888 1237 l 1,28,-1
 476 1237 l 1,29,-1
 476 933 l 1,0,1
EndSplineSet
EndChar

StartChar: ldot
Encoding: 320 320 188
Width: 959
Flags: HMW
HStem: 0 171<355.5 669 456 492> 583 341<784.5 879>
VStem: 217 239<254 1591 171 1591> 666 333<701 800.5>
LayerCount: 2
Fore
SplineSet
217 254 m 2,0,-1
 217 1591 l 1,1,-1
 456 1591 l 1,2,-1
 456 171 l 1,3,-1
 669 171 l 1,4,5
 657 93 657 93 607.5 46.5 c 128,-1,6
 558 0 558 0 492 0 c 2,7,-1
 408 0 l 2,8,9
 329 0 329 0 273 74.5 c 128,-1,10
 217 149 217 149 217 254 c 2,0,-1
951 630 m 128,-1,12
 903 583 903 583 831.5 583 c 128,-1,13
 760 583 760 583 713 629.5 c 128,-1,14
 666 676 666 676 666 751 c 128,-1,15
 666 826 666 826 713.5 875 c 128,-1,16
 761 924 761 924 832 924 c 128,-1,17
 903 924 903 924 951 874.5 c 128,-1,18
 999 825 999 825 999 751 c 128,-1,11
 999 677 999 677 951 630 c 128,-1,12
EndSplineSet
EndChar

StartChar: oe
Encoding: 339 339 189
Width: 2017
Flags: HMW
HStem: 0 171<373.5 898 476 849 1148.5 1181 1181 1687> 460 140<1138 1571 1138 1810 1138 1571> 876 171<476 855 855 887.5 425 898 476 476 1187 1571>
VStem: 237 239<252 793 793 864> 898 240<171 460 600 876> 1571 239<600 793 460 876 460 876>
LayerCount: 2
Fore
SplineSet
237 252 m 2,0,-1
 237 793 l 2,1,2
 237 899 237 899 292 973 c 128,-1,3
 347 1047 347 1047 425 1047 c 2,4,-1
 855 1047 l 2,5,6
 904 1047 904 1047 948 1013.5 c 128,-1,7
 992 980 992 980 1021 923 c 1,8,9
 1050 980 1050 980 1094 1013.5 c 128,-1,10
 1138 1047 1138 1047 1187 1047 c 2,11,-1
 1620 1047 l 2,12,13
 1698 1047 1698 1047 1754 972.5 c 128,-1,14
 1810 898 1810 898 1810 793 c 2,15,-1
 1810 460 l 1,16,-1
 1138 460 l 1,17,-1
 1138 171 l 1,18,-1
 1862 171 l 1,19,20
 1854 100 1854 100 1803.5 50 c 128,-1,21
 1753 0 1753 0 1687 0 c 2,22,-1
 1181 0 l 2,23,24
 1132 0 1132 0 1088 33.5 c 128,-1,25
 1044 67 1044 67 1015 124 c 1,26,27
 986 67 986 67 942 33.5 c 128,-1,28
 898 0 898 0 849 0 c 2,29,-1
 425 0 l 2,30,31
 348 0 348 0 292.5 74 c 128,-1,32
 237 148 237 148 237 252 c 2,0,-1
1138 600 m 1,33,-1
 1571 600 l 1,34,-1
 1571 876 l 1,35,-1
 1138 876 l 1,36,-1
 1138 600 l 1,33,-1
476 171 m 1,37,-1
 898 171 l 1,38,-1
 898 876 l 1,39,-1
 476 876 l 1,40,-1
 476 171 l 1,37,-1
EndSplineSet
EndChar

StartChar: lslash
Encoding: 322 322 190
Width: 682
Flags: HMW
HStem: 0 171<355.5 669 456 492> 713 368
VStem: 99 572<713 1081 884 1081> 217 239<254 1591 171 1591>
LayerCount: 2
Fore
SplineSet
99 713 m 1,0,-1
 99 884 l 1,1,-1
 671 1081 l 1,2,-1
 671 910 l 1,3,-1
 99 713 l 1,0,-1
217 254 m 2,4,-1
 217 1591 l 1,5,-1
 456 1591 l 1,6,-1
 456 171 l 1,7,-1
 669 171 l 1,8,9
 657 93 657 93 607.5 46.5 c 128,-1,10
 558 0 558 0 492 0 c 2,11,-1
 408 0 l 2,12,13
 329 0 329 0 273 74.5 c 128,-1,14
 217 149 217 149 217 254 c 2,4,-1
EndSplineSet
EndChar

StartChar: uni1E9E
Encoding: 7838 7838 191
Width: 1365
Flags: HMW
HStem: 0 171<684 957 684 1005 684 957> 717 169<945 957> 1346 169<476 957 476 476>
VStem: 237 239<-339 -269 -269 1261 1261 1332> 957 239<632 703 632 717 632 717>
LayerCount: 2
Fore
SplineSet
476 -269 m 2,0,1
 476 -374 476 -374 416.5 -449.5 c 128,-1,2
 357 -525 357 -525 274 -525 c 2,3,-1
 237 -525 l 1,4,-1
 237 1261 l 2,5,6
 237 1367 237 1367 292 1441 c 128,-1,7
 347 1515 347 1515 425 1515 c 2,8,-1
 998 1515 l 2,9,10
 1072 1515 1072 1515 1124 1460 c 128,-1,11
 1176 1405 1176 1405 1176 1338.5 c 0,12,13
 1176 1272 1176 1272 1151 1232 c 1,14,-1
 945 886 l 1,15,-1
 1005 886 l 2,16,17
 1084 886 1084 886 1140 812 c 128,-1,18
 1196 738 1196 738 1196 632 c 2,19,-1
 1195 252 l 2,20,21
 1195 148 1195 148 1139 74 c 128,-1,22
 1083 0 1083 0 1005 0 c 2,23,-1
 684 0 l 1,24,-1
 684 171 l 1,25,-1
 957 171 l 1,26,-1
 957 717 l 1,27,-1
 683 717 l 1,28,-1
 683 849 l 1,29,-1
 957 1346 l 1,30,-1
 476 1346 l 1,31,-1
 476 -269 l 2,0,1
EndSplineSet
EndChar

StartChar: jcircumflex
Encoding: 309 309 194
Width: 682
Flags: HMW
HStem: -541 173<71 217 71 267 71 217> 1027 20G<217 456 456 456> 1244 433<321 683>
VStem: -75 842<1350 1350> 217 239<-355 -285 -285 1047>
LayerCount: 2
Fore
SplineSet
71 -368 m 1,0,-1
 217 -368 l 1,1,-1
 217 1047 l 1,2,-1
 456 1047 l 1,3,-1
 456 -285 l 2,4,5
 456 -390 456 -390 400.5 -465.5 c 128,-1,6
 345 -541 345 -541 267 -541 c 2,7,-1
 71 -541 l 1,8,-1
 71 -368 l 1,0,-1
347 1436 m 1,9,10
 198.2 1354.4 198.2 1354.4 5 1244 c 1,11,-1
 -75 1350 l 1,12,-1
 190 1603 l 2,13,14
 268 1677 268 1677 346.5 1677 c 128,-1,15
 425 1677 425 1677 502 1603 c 2,16,-1
 767 1350 l 1,17,-1
 683 1244 l 1,18,-1
 347 1436 l 1,9,10
EndSplineSet
EndChar

StartChar: kcommaaccent
Encoding: 311 311 195
Width: 1365
Flags: HMW
HStem: -541 21G<670 670> 0 171<998.5 1328 1098 1153> 457 168<476 671 476 860 476 671> 1027 20G<898 1149 1149 1149>
VStem: 237 239<0 457 625 1591> 552 338<-219.5 -145> 860 238<254 371 171 457 171 457>
LayerCount: 2
Fore
SplineSet
237 0 m 1,0,-1
 237 1591 l 1,1,-1
 476 1591 l 1,2,-1
 476 625 l 1,3,-1
 671 625 l 1,4,-1
 898 1047 l 1,5,-1
 1149 1047 l 1,6,-1
 908 628 l 1,7,8
 990 614 990 614 1044 541.5 c 128,-1,9
 1098 469 1098 469 1098 371 c 2,10,-1
 1098 171 l 1,11,-1
 1328 171 l 1,12,13
 1320 100 1320 100 1269.5 50 c 128,-1,14
 1219 0 1219 0 1153 0 c 2,15,-1
 1050 0 l 2,16,17
 972 0 972 0 916 74.5 c 128,-1,18
 860 149 860 149 860 254 c 2,19,-1
 860 457 l 1,20,-1
 476 457 l 1,21,-1
 476 0 l 1,22,-1
 237 0 l 1,0,-1
644 -317 m 1,23,24
 552 -275.380952381 552 -275.380952381 552 -198.19047619 c 128,-1,25
 552 -121 552 -121 600.5 -72.5 c 128,-1,26
 649 -24 649 -24 720 -24 c 128,-1,27
 791 -24 791 -24 840.5 -73 c 128,-1,28
 890 -122 890 -122 890 -178 c 128,-1,29
 890 -234 890 -234 876 -273 c 128,-1,30
 862 -312 862 -312 824.5 -362 c 0,31,32
 775.795918367 -426.93877551 775.795918367 -426.93877551 670 -541 c 1,33,-1
 576 -496 l 1,34,-1
 644 -317 l 1,23,24
EndSplineSet
EndChar

StartChar: aacute
Encoding: 225 225 197
Width: 1365
Flags: HMW
HStem: 0 171<374.5 889 475 730 475 1062 1127 1169> 876 172<475 889 475 475> 1259 412
VStem: 237 238<251 765 765 845.5> 473 609 889 238<171 876 876 876>
LayerCount: 2
Fore
SplineSet
237 251 m 2,0,-1
 237 765 l 2,1,2
 237 886 237 886 299 967 c 128,-1,3
 361 1048 361 1048 453 1048 c 2,4,-1
 1127 1048 l 1,5,-1
 1127 171 l 1,6,-1
 1344 171 l 1,7,8
 1336 100 1336 100 1285.5 50 c 128,-1,9
 1235 0 1235 0 1169 0 c 2,10,-1
 1062 0 l 2,11,12
 1013 0 1013 0 969 33.5 c 128,-1,13
 925 67 925 67 896 124 c 1,14,15
 867 67 867 67 823 33.5 c 128,-1,16
 779 0 779 0 730 0 c 2,17,-1
 427 0 l 2,18,19
 348 0 348 0 292.5 73.5 c 128,-1,20
 237 147 237 147 237 251 c 2,0,-1
475 171 m 1,21,-1
 889 171 l 1,22,-1
 889 876 l 1,23,-1
 475 876 l 1,24,-1
 475 171 l 1,21,-1
534 1259 m 1,25,-1
 473 1364 l 1,26,-1
 854 1638 l 1,27,28
 917 1682 917 1682 978 1666.5 c 128,-1,29
 1039 1651 1039 1651 1069 1585 c 128,-1,30
 1099 1519 1099 1519 1063 1455 c 128,-1,31
 1027 1391 1027 1391 958 1372 c 2,32,-1
 534 1259 l 1,25,-1
EndSplineSet
EndChar

StartChar: adieresis
Encoding: 228 228 199
Width: 1365
Flags: HMW
HStem: 0 171<374.5 889 475 730 475 1062 1127 1169> 876 172<475 889 475 475> 1288 341<379.5 474 913.5 1008>
VStem: 237 238<251 765 765 845.5> 261 867<1406 1505.5> 889 238<171 876 876 876>
LayerCount: 2
Fore
SplineSet
237 251 m 2,0,-1
 237 765 l 2,1,2
 237 886 237 886 299 967 c 128,-1,3
 361 1048 361 1048 453 1048 c 2,4,-1
 1127 1048 l 1,5,-1
 1127 171 l 1,6,-1
 1344 171 l 1,7,8
 1336 100 1336 100 1285.5 50 c 128,-1,9
 1235 0 1235 0 1169 0 c 2,10,-1
 1062 0 l 2,11,12
 1013 0 1013 0 969 33.5 c 128,-1,13
 925 67 925 67 896 124 c 1,14,15
 867 67 867 67 823 33.5 c 128,-1,16
 779 0 779 0 730 0 c 2,17,-1
 427 0 l 2,18,19
 348 0 348 0 292.5 73.5 c 128,-1,20
 237 147 237 147 237 251 c 2,0,-1
475 171 m 1,21,-1
 889 171 l 1,22,-1
 889 876 l 1,23,-1
 475 876 l 1,24,-1
 475 171 l 1,21,-1
1080 1335 m 128,-1,26
 1032 1288 1032 1288 960.5 1288 c 128,-1,27
 889 1288 889 1288 842 1334.5 c 128,-1,28
 795 1381 795 1381 795 1456 c 128,-1,29
 795 1531 795 1531 842.5 1580 c 128,-1,30
 890 1629 890 1629 961 1629 c 128,-1,31
 1032 1629 1032 1629 1080 1579.5 c 128,-1,32
 1128 1530 1128 1530 1128 1456 c 128,-1,25
 1128 1382 1128 1382 1080 1335 c 128,-1,26
546 1335 m 128,-1,34
 498 1288 498 1288 426.5 1288 c 128,-1,35
 355 1288 355 1288 308 1334.5 c 128,-1,36
 261 1381 261 1381 261 1456 c 128,-1,37
 261 1531 261 1531 308.5 1580 c 128,-1,38
 356 1629 356 1629 427 1629 c 128,-1,39
 498 1629 498 1629 546 1579.5 c 128,-1,40
 594 1530 594 1530 594 1456 c 128,-1,33
 594 1382 594 1382 546 1335 c 128,-1,34
EndSplineSet
EndChar

StartChar: aring
Encoding: 229 229 201
Width: 1365
Flags: HMW
HStem: 0 171<374.5 889 475 730 475 1062 1127 1169> 876 172<475 889 475 475> 1174 154<663 737 663 780> 1599 152<663 737>
VStem: 237 238<251 765 765 845.5> 412 155<1425.5 1499 1425.5 1542> 834 155<1425.5 1499> 889 238<171 876 876 876>
LayerCount: 2
Fore
SplineSet
237 251 m 2,0,-1
 237 765 l 2,1,2
 237 886 237 886 299 967 c 128,-1,3
 361 1048 361 1048 453 1048 c 2,4,-1
 1127 1048 l 1,5,-1
 1127 171 l 1,6,-1
 1344 171 l 1,7,8
 1336 100 1336 100 1285.5 50 c 128,-1,9
 1235 0 1235 0 1169 0 c 2,10,-1
 1062 0 l 2,11,12
 1013 0 1013 0 969 33.5 c 128,-1,13
 925 67 925 67 896 124 c 1,14,15
 867 67 867 67 823 33.5 c 128,-1,16
 779 0 779 0 730 0 c 2,17,-1
 427 0 l 2,18,19
 348 0 348 0 292.5 73.5 c 128,-1,20
 237 147 237 147 237 251 c 2,0,-1
475 171 m 1,21,-1
 889 171 l 1,22,-1
 889 876 l 1,23,-1
 475 876 l 1,24,-1
 475 171 l 1,21,-1
904.5 1258.5 m 128,-1,26
 820 1174 820 1174 700.5 1174 c 128,-1,27
 581 1174 581 1174 496.5 1258.5 c 128,-1,28
 412 1343 412 1343 412 1462.5 c 128,-1,29
 412 1582 412 1582 496.5 1666.5 c 128,-1,30
 581 1751 581 1751 700.5 1751 c 128,-1,31
 820 1751 820 1751 904.5 1666.5 c 128,-1,32
 989 1582 989 1582 989 1462.5 c 128,-1,25
 989 1343 989 1343 904.5 1258.5 c 128,-1,26
606 1367.5 m 128,-1,34
 645 1328 645 1328 700.5 1328 c 128,-1,35
 756 1328 756 1328 795 1367.5 c 128,-1,36
 834 1407 834 1407 834 1462.5 c 128,-1,37
 834 1518 834 1518 794.5 1558.5 c 128,-1,38
 755 1599 755 1599 700 1599 c 128,-1,39
 645 1599 645 1599 606 1558.5 c 128,-1,40
 567 1518 567 1518 567 1462.5 c 128,-1,33
 567 1407 567 1407 606 1367.5 c 128,-1,34
EndSplineSet
EndChar

StartChar: eacute
Encoding: 233 233 204
Width: 1365
Flags: HMW
HStem: 0 171<374.5 1210 476 1035> 460 140<476 909 476 1148 476 909> 876 171<476 909 476 476> 1259 412
VStem: 237 239<254 460 600 793 793 863.5> 477 609 909 239<600 793 460 876 460 876>
LayerCount: 2
Fore
SplineSet
237 254 m 2,0,-1
 237 793 l 2,1,2
 237 899 237 899 292.5 973 c 128,-1,3
 348 1047 348 1047 427 1047 c 2,4,-1
 958 1047 l 2,5,6
 1036 1047 1036 1047 1092 972.5 c 128,-1,7
 1148 898 1148 898 1148 793 c 2,8,-1
 1148 460 l 1,9,-1
 476 460 l 1,10,-1
 476 171 l 1,11,-1
 1210 171 l 1,12,13
 1202 100 1202 100 1151.5 50 c 128,-1,14
 1101 0 1101 0 1035 0 c 2,15,-1
 427 0 l 2,16,17
 348 0 348 0 292.5 74.5 c 128,-1,18
 237 149 237 149 237 254 c 2,0,-1
476 600 m 1,19,-1
 909 600 l 1,20,-1
 909 876 l 1,21,-1
 476 876 l 1,22,-1
 476 600 l 1,19,-1
538 1259 m 1,23,-1
 477 1364 l 1,24,-1
 858 1638 l 1,25,26
 921 1682 921 1682 982 1666.5 c 128,-1,27
 1043 1651 1043 1651 1073 1585 c 128,-1,28
 1103 1519 1103 1519 1067 1455 c 128,-1,29
 1031 1391 1031 1391 962 1372 c 2,30,-1
 538 1259 l 1,23,-1
EndSplineSet
EndChar

StartChar: edieresis
Encoding: 235 235 206
Width: 1365
Flags: HMW
HStem: 0 171<374.5 1210 476 1035> 460 140<476 909 476 1148 476 909> 876 171<476 909 476 476> 1288 341<383.5 478 917.5 1012>
VStem: 237 239<254 460 600 793 793 863.5> 265 867<1406 1505.5> 909 239<600 793 460 876 460 876>
LayerCount: 2
Fore
SplineSet
237 254 m 2,0,-1
 237 793 l 2,1,2
 237 899 237 899 292.5 973 c 128,-1,3
 348 1047 348 1047 427 1047 c 2,4,-1
 958 1047 l 2,5,6
 1036 1047 1036 1047 1092 972.5 c 128,-1,7
 1148 898 1148 898 1148 793 c 2,8,-1
 1148 460 l 1,9,-1
 476 460 l 1,10,-1
 476 171 l 1,11,-1
 1210 171 l 1,12,13
 1202 100 1202 100 1151.5 50 c 128,-1,14
 1101 0 1101 0 1035 0 c 2,15,-1
 427 0 l 2,16,17
 348 0 348 0 292.5 74.5 c 128,-1,18
 237 149 237 149 237 254 c 2,0,-1
476 600 m 1,19,-1
 909 600 l 1,20,-1
 909 876 l 1,21,-1
 476 876 l 1,22,-1
 476 600 l 1,19,-1
1084 1335 m 128,-1,24
 1036 1288 1036 1288 964.5 1288 c 128,-1,25
 893 1288 893 1288 846 1334.5 c 128,-1,26
 799 1381 799 1381 799 1456 c 128,-1,27
 799 1531 799 1531 846.5 1580 c 128,-1,28
 894 1629 894 1629 965 1629 c 128,-1,29
 1036 1629 1036 1629 1084 1579.5 c 128,-1,30
 1132 1530 1132 1530 1132 1456 c 128,-1,23
 1132 1382 1132 1382 1084 1335 c 128,-1,24
550 1335 m 128,-1,32
 502 1288 502 1288 430.5 1288 c 128,-1,33
 359 1288 359 1288 312 1334.5 c 128,-1,34
 265 1381 265 1381 265 1456 c 128,-1,35
 265 1531 265 1531 312.5 1580 c 128,-1,36
 360 1629 360 1629 431 1629 c 128,-1,37
 502 1629 502 1629 550 1579.5 c 128,-1,38
 598 1530 598 1530 598 1456 c 128,-1,31
 598 1382 598 1382 550 1335 c 128,-1,32
EndSplineSet
EndChar

StartChar: iacute
Encoding: 237 237 208
Width: 682
Flags: HMW
HStem: 0 171<355.5 670 456 496> 1027 20G<217 456 456 456> 1259 412
VStem: 126 609 217 239<254 1047 171 1047>
LayerCount: 2
Fore
SplineSet
217 254 m 2,0,-1
 217 1047 l 1,1,-1
 456 1047 l 1,2,-1
 456 171 l 1,3,-1
 670 171 l 1,4,5
 663 100 663 100 612.5 50 c 128,-1,6
 562 0 562 0 496 0 c 2,7,-1
 408 0 l 2,8,9
 329 0 329 0 273 74.5 c 128,-1,10
 217 149 217 149 217 254 c 2,0,-1
187 1259 m 1,11,-1
 126 1364 l 1,12,-1
 507 1638 l 1,13,14
 570 1682 570 1682 631 1666.5 c 128,-1,15
 692 1651 692 1651 722 1585 c 128,-1,16
 752 1519 752 1519 716 1455 c 128,-1,17
 680 1391 680 1391 611 1372 c 2,18,-1
 187 1259 l 1,11,-1
EndSplineSet
EndChar

StartChar: idieresis
Encoding: 239 239 210
Width: 682
Flags: HMW
HStem: 0 171<355.5 670 456 496> 1027 20G<217 456 456 456> 1288 341<32.5 127 566.5 661>
VStem: -86 867<1406 1505.5> 217 239<254 1047 171 1047>
LayerCount: 2
Fore
SplineSet
217 254 m 2,0,-1
 217 1047 l 1,1,-1
 456 1047 l 1,2,-1
 456 171 l 1,3,-1
 670 171 l 1,4,5
 663 100 663 100 612.5 50 c 128,-1,6
 562 0 562 0 496 0 c 2,7,-1
 408 0 l 2,8,9
 329 0 329 0 273 74.5 c 128,-1,10
 217 149 217 149 217 254 c 2,0,-1
733 1335 m 128,-1,12
 685 1288 685 1288 613.5 1288 c 128,-1,13
 542 1288 542 1288 495 1334.5 c 128,-1,14
 448 1381 448 1381 448 1456 c 128,-1,15
 448 1531 448 1531 495.5 1580 c 128,-1,16
 543 1629 543 1629 614 1629 c 128,-1,17
 685 1629 685 1629 733 1579.5 c 128,-1,18
 781 1530 781 1530 781 1456 c 128,-1,11
 781 1382 781 1382 733 1335 c 128,-1,12
199 1335 m 128,-1,20
 151 1288 151 1288 79.5 1288 c 128,-1,21
 8 1288 8 1288 -39 1334.5 c 128,-1,22
 -86 1381 -86 1381 -86 1456 c 128,-1,23
 -86 1531 -86 1531 -38.5 1580 c 128,-1,24
 9 1629 9 1629 80 1629 c 128,-1,25
 151 1629 151 1629 199 1579.5 c 128,-1,26
 247 1530 247 1530 247 1456 c 128,-1,19
 247 1382 247 1382 199 1335 c 128,-1,20
EndSplineSet
EndChar

StartChar: oacute
Encoding: 243 243 212
Width: 1365
Flags: HMW
HStem: 0 171<373.5 888 476 888 476 937> 876 171<476 888 476 476 1025 1088 1025 1025> 1259 412
VStem: 237 239<252 793 793 864> 478 609 888 239<182.5 252 252 651>
LayerCount: 2
Fore
SplineSet
237 252 m 2,0,-1
 237 793 l 2,1,2
 237 899 237 899 292 973 c 128,-1,3
 347 1047 347 1047 425 1047 c 2,4,-1
 1263 1047 l 1,5,6
 1255 976 1255 976 1204.5 926 c 128,-1,7
 1154 876 1154 876 1088 876 c 2,8,-1
 1025 876 l 1,9,10
 1068 845 1068 845 1097.5 785.5 c 128,-1,11
 1127 726 1127 726 1127 651 c 2,12,-1
 1127 252 l 2,13,14
 1127 148 1127 148 1071 74 c 128,-1,15
 1015 0 1015 0 937 0 c 2,16,-1
 425 0 l 2,17,18
 348 0 348 0 292.5 74 c 128,-1,19
 237 148 237 148 237 252 c 2,0,-1
476 171 m 1,20,-1
 888 171 l 1,21,-1
 888 876 l 1,22,-1
 476 876 l 1,23,-1
 476 171 l 1,20,-1
539 1259 m 1,24,-1
 478 1364 l 1,25,-1
 859 1638 l 1,26,27
 922 1682 922 1682 983 1666.5 c 128,-1,28
 1044 1651 1044 1651 1074 1585 c 128,-1,29
 1104 1519 1104 1519 1068 1455 c 128,-1,30
 1032 1391 1032 1391 963 1372 c 2,31,-1
 539 1259 l 1,24,-1
EndSplineSet
EndChar

StartChar: otilde
Encoding: 245 245 214
Width: 1365
Flags: HMW
HStem: 0 171<373.5 888 476 888 476 937> 876 171<476 888 476 476 1025 1088 1025 1025> 1288 188<795 984> 1457 188
VStem: 237 239<252 793 793 864> 289 885<1347 1586> 888 239<182.5 252 252 651>
LayerCount: 2
Fore
SplineSet
237 252 m 2,0,-1
 237 793 l 2,1,2
 237 899 237 899 292 973 c 128,-1,3
 347 1047 347 1047 425 1047 c 2,4,-1
 1263 1047 l 1,5,6
 1255 976 1255 976 1204.5 926 c 128,-1,7
 1154 876 1154 876 1088 876 c 2,8,-1
 1025 876 l 1,9,10
 1068 845 1068 845 1097.5 785.5 c 128,-1,11
 1127 726 1127 726 1127 651 c 2,12,-1
 1127 252 l 2,13,14
 1127 148 1127 148 1071 74 c 128,-1,15
 1015 0 1015 0 937 0 c 2,16,-1
 425 0 l 2,17,18
 348 0 348 0 292.5 74 c 128,-1,19
 237 148 237 148 237 252 c 2,0,-1
476 171 m 1,20,-1
 888 171 l 1,21,-1
 888 876 l 1,22,-1
 476 876 l 1,23,-1
 476 171 l 1,20,-1
289 1347 m 1,24,25
 294 1377 294 1377 310 1454 c 0,26,27
 326 1531 326 1531 412.5 1588.5 c 128,-1,28
 499 1646 499 1646 596.5 1645 c 0,29,30
 694 1644 694 1644 769 1597.5 c 128,-1,31
 844 1551 844 1551 883 1476 c 1,32,-1
 984 1476 l 1,33,-1
 1038 1586 l 1,34,-1
 1174 1586 l 1,35,36
 1165 1518 1165 1518 1158 1490 c 0,37,38
 1137 1400 1137 1400 1051 1343.5 c 128,-1,39
 965 1287 965 1287 865.5 1287.5 c 0,40,41
 766 1288 766 1288 689.5 1335 c 128,-1,42
 613 1382 613 1382 572 1457 c 1,43,-1
 480 1457 l 1,44,-1
 425 1347 l 1,45,-1
 289 1347 l 1,24,25
EndSplineSet
EndChar

StartChar: ntilde
Encoding: 241 241 218
Width: 1401
Flags: HMW
HStem: 0 172<1069 1375 1173 1200> 1027 20G<273 512 512 512> 1028 20G<938 1023.5> 1288 188<812 1001> 1457 188
VStem: 273 239<0 430 651 1047> 306 885<1347 1586> 932 241<254 794 172 862 172 862>
LayerCount: 2
Fore
SplineSet
273 0 m 1,0,-1
 273 1047 l 1,1,-1
 512 1047 l 1,2,-1
 512 651 l 1,3,-1
 821 971 l 1,4,5
 887 1048 887 1048 969 1048 c 0,6,7
 1051 1048 1051 1048 1112 973.5 c 128,-1,8
 1173 899 1173 899 1173 794 c 2,9,-1
 1173 172 l 1,10,-1
 1375 172 l 1,11,12
 1367 100 1367 100 1316.5 50 c 128,-1,13
 1266 0 1266 0 1200 0 c 2,14,-1
 1122 0 l 2,15,16
 1043 0 1043 0 987.5 74.5 c 128,-1,17
 932 149 932 149 932 254 c 2,18,-1
 932 862 l 1,19,-1
 512 430 l 1,20,-1
 512 0 l 1,21,-1
 273 0 l 1,0,-1
306 1347 m 1,22,23
 311 1377 311 1377 327 1454 c 0,24,25
 343 1531 343 1531 429.5 1588.5 c 128,-1,26
 516 1646 516 1646 613.5 1645 c 0,27,28
 711 1644 711 1644 786 1597.5 c 128,-1,29
 861 1551 861 1551 900 1476 c 1,30,-1
 1001 1476 l 1,31,-1
 1055 1586 l 1,32,-1
 1191 1586 l 1,33,34
 1182 1518 1182 1518 1175 1490 c 0,35,36
 1154 1400 1154 1400 1068 1343.5 c 128,-1,37
 982 1287 982 1287 882.5 1287.5 c 0,38,39
 783 1288 783 1288 706.5 1335 c 128,-1,40
 630 1382 630 1382 589 1457 c 1,41,-1
 497 1457 l 1,42,-1
 442 1347 l 1,43,-1
 306 1347 l 1,22,23
EndSplineSet
EndChar

StartChar: rcommaaccent
Encoding: 343 343 219
Width: 1365
Flags: HMW
HStem: -541 21G<655 655> 0 171<959.5 1292 1060 1112> 876 171<477 821 475 1231 1060 1102>
VStem: 237 238<0 876 0 1157> 537 338<-219.5 -145> 821 239<254 876 171 876>
LayerCount: 2
Fore
SplineSet
237 0 m 1,0,-1
 237 1157 l 1,1,-1
 477 1157 l 1,2,-1
 477 1047 l 1,3,-1
 1231 1047 l 1,4,5
 1224 977 1224 977 1173.5 926.5 c 128,-1,6
 1123 876 1123 876 1060 876 c 1,7,-1
 1060 171 l 1,8,-1
 1292 171 l 1,9,10
 1284 100 1284 100 1232.5 50 c 128,-1,11
 1181 0 1181 0 1112 0 c 2,12,-1
 1012 0 l 2,13,14
 933 0 933 0 877 74.5 c 128,-1,15
 821 149 821 149 821 254 c 2,16,-1
 821 876 l 1,17,-1
 475 876 l 1,18,-1
 475 0 l 1,19,-1
 237 0 l 1,0,-1
629 -317 m 1,20,21
 537 -275.380952381 537 -275.380952381 537 -198.19047619 c 128,-1,22
 537 -121 537 -121 585.5 -72.5 c 128,-1,23
 634 -24 634 -24 705 -24 c 128,-1,24
 776 -24 776 -24 825.5 -73 c 128,-1,25
 875 -122 875 -122 875 -178 c 128,-1,26
 875 -234 875 -234 861 -273 c 128,-1,27
 847 -312 847 -312 809.5 -362 c 0,28,29
 760.795918367 -426.93877551 760.795918367 -426.93877551 655 -541 c 1,30,-1
 561 -496 l 1,31,-1
 629 -317 l 1,20,21
EndSplineSet
EndChar

StartChar: uacute
Encoding: 250 250 221
Width: 1365
Flags: HMW
HStem: 0 171<374.5 889 476 732 1127 1155 476 889> 1027 20G<237 476 476 476 889 1127 1127 1127> 1259 412
VStem: 237 239<254 1047 171 1047> 468 609 889 238<0 1047 107 1047 171 1047 171 1047>
LayerCount: 2
Fore
SplineSet
889 107 m 1,0,1
 824.8 -7.81597009336e-14 824.8 -7.81597009336e-14 732 0 c 2,2,-1
 427 0 l 2,3,4
 348 0 348 0 292.5 74.5 c 128,-1,5
 237 149 237 149 237 254 c 2,6,-1
 237 1047 l 1,7,-1
 476 1047 l 1,8,-1
 476 171 l 1,9,-1
 889 171 l 1,10,-1
 889 1047 l 1,11,-1
 1127 1047 l 1,12,-1
 1127 171 l 1,13,-1
 1330 171 l 1,14,15
 1322 100 1322 100 1271.5 50 c 128,-1,16
 1221 0 1221 0 1155 0 c 2,17,-1
 889 0 l 1,18,-1
 889 107 l 1,0,1
529 1259 m 1,19,-1
 468 1364 l 1,20,-1
 849 1638 l 1,21,22
 912 1682 912 1682 973 1666.5 c 128,-1,23
 1034 1651 1034 1651 1064 1585 c 128,-1,24
 1094 1519 1094 1519 1058 1455 c 128,-1,25
 1022 1391 1022 1391 953 1372 c 2,26,-1
 529 1259 l 1,19,-1
EndSplineSet
EndChar

StartChar: udieresis
Encoding: 252 252 223
Width: 1365
Flags: HMW
HStem: 0 171<374.5 889 476 732 1127 1155 476 889> 1027 20G<237 476 476 476 889 1127 1127 1127> 1288 341<374.5 469 908.5 1003>
VStem: 237 239<254 1047 171 1047> 256 867<1406 1505.5> 889 238<0 1047 107 1047 171 1047 171 1047>
LayerCount: 2
Fore
SplineSet
889 107 m 1,0,1
 824.8 -7.81597009336e-14 824.8 -7.81597009336e-14 732 0 c 2,2,-1
 427 0 l 2,3,4
 348 0 348 0 292.5 74.5 c 128,-1,5
 237 149 237 149 237 254 c 2,6,-1
 237 1047 l 1,7,-1
 476 1047 l 1,8,-1
 476 171 l 1,9,-1
 889 171 l 1,10,-1
 889 1047 l 1,11,-1
 1127 1047 l 1,12,-1
 1127 171 l 1,13,-1
 1330 171 l 1,14,15
 1322 100 1322 100 1271.5 50 c 128,-1,16
 1221 0 1221 0 1155 0 c 2,17,-1
 889 0 l 1,18,-1
 889 107 l 1,0,1
1075 1335 m 128,-1,20
 1027 1288 1027 1288 955.5 1288 c 128,-1,21
 884 1288 884 1288 837 1334.5 c 128,-1,22
 790 1381 790 1381 790 1456 c 128,-1,23
 790 1531 790 1531 837.5 1580 c 128,-1,24
 885 1629 885 1629 956 1629 c 128,-1,25
 1027 1629 1027 1629 1075 1579.5 c 128,-1,26
 1123 1530 1123 1530 1123 1456 c 128,-1,19
 1123 1382 1123 1382 1075 1335 c 128,-1,20
541 1335 m 128,-1,28
 493 1288 493 1288 421.5 1288 c 128,-1,29
 350 1288 350 1288 303 1334.5 c 128,-1,30
 256 1381 256 1381 256 1456 c 128,-1,31
 256 1531 256 1531 303.5 1580 c 128,-1,32
 351 1629 351 1629 422 1629 c 128,-1,33
 493 1629 493 1629 541 1579.5 c 128,-1,34
 589 1530 589 1530 589 1456 c 128,-1,27
 589 1382 589 1382 541 1335 c 128,-1,28
EndSplineSet
EndChar

StartChar: ydieresis
Encoding: 255 255 225
Width: 1365
Flags: HMW
HStem: -541 173<453 888 453 937 453 888> 0 171<374.5 888 476 728 1127 1154> 1027 20G<237 476 476 476 888 1127 1127 1127> 1288 341<376.5 471 910.5 1005>
VStem: 237 239<254 1047 171 1047> 258 867<1406 1505.5> 888 239<-355 -285 -285 0 171 1047>
LayerCount: 2
Fore
SplineSet
237 254 m 2,0,-1
 237 1047 l 1,1,-1
 476 1047 l 1,2,-1
 476 171 l 1,3,-1
 888 171 l 1,4,-1
 888 1047 l 1,5,-1
 1127 1047 l 1,6,-1
 1127 171 l 1,7,-1
 1329 171 l 1,8,9
 1321 100 1321 100 1270.5 50 c 128,-1,10
 1220 0 1220 0 1154 0 c 2,11,-1
 1127 0 l 1,12,-1
 1127 -285 l 2,13,14
 1127 -390 1127 -390 1071 -465.5 c 128,-1,15
 1015 -541 1015 -541 937 -541 c 2,16,-1
 453 -541 l 1,17,-1
 453 -368 l 1,18,-1
 888 -368 l 1,19,-1
 888 107 l 1,20,21
 861 57 861 57 818 28.5 c 128,-1,22
 775 0 775 0 728 0 c 2,23,-1
 427 0 l 2,24,25
 348 0 348 0 292.5 74.5 c 128,-1,26
 237 149 237 149 237 254 c 2,0,-1
1077 1335 m 128,-1,28
 1029 1288 1029 1288 957.5 1288 c 128,-1,29
 886 1288 886 1288 839 1334.5 c 128,-1,30
 792 1381 792 1381 792 1456 c 128,-1,31
 792 1531 792 1531 839.5 1580 c 128,-1,32
 887 1629 887 1629 958 1629 c 128,-1,33
 1029 1629 1029 1629 1077 1579.5 c 128,-1,34
 1125 1530 1125 1530 1125 1456 c 128,-1,27
 1125 1382 1125 1382 1077 1335 c 128,-1,28
543 1335 m 128,-1,36
 495 1288 495 1288 423.5 1288 c 128,-1,37
 352 1288 352 1288 305 1334.5 c 128,-1,38
 258 1381 258 1381 258 1456 c 128,-1,39
 258 1531 258 1531 305.5 1580 c 128,-1,40
 353 1629 353 1629 424 1629 c 128,-1,41
 495 1629 495 1629 543 1579.5 c 128,-1,42
 591 1530 591 1530 591 1456 c 128,-1,35
 591 1382 591 1382 543 1335 c 128,-1,36
EndSplineSet
EndChar

StartChar: germandbls
Encoding: 223 223 226
Width: 1365
Flags: HMW
HStem: 0 171<851 932 1026 1094> 806 171<712 839 712 932 712 839> 1423 168<504 839 504 504>
VStem: 266 238<0 1336 1336 1406.5> 839 242<1086 1131 1131 1339 1086 1423> 932 242<347 416 416 645 347 806>
LayerCount: 2
Fore
SplineSet
1081 1131 m 2,0,1
 1081 986.425925926 1081 986.425925926 968 909 c 1,2,3
 1067 888 1067 888 1120.5 809 c 128,-1,4
 1174 730 1174 730 1174 645 c 2,5,-1
 1174 416 l 2,6,7
 1174 320 1174 320 1126 250 c 128,-1,8
 1078 180 1078 180 1026 171 c 1,9,-1
 1269 171 l 1,10,11
 1263 99 1263 99 1211.5 49.5 c 128,-1,12
 1160 0 1160 0 1094 0 c 2,13,-1
 676 0 l 1,14,15
 683 70 683 70 733.5 120.5 c 128,-1,16
 784 171 784 171 851 171 c 2,17,-1
 932 171 l 1,18,-1
 932 806 l 1,19,-1
 712 806 l 1,20,-1
 712 977 l 1,21,-1
 839 977 l 1,22,-1
 839 1423 l 1,23,-1
 504 1423 l 1,24,-1
 504 0 l 1,25,-1
 266 0 l 1,26,-1
 266 1336 l 2,27,28
 266 1442 266 1442 321.5 1516.5 c 128,-1,29
 377 1591 377 1591 456 1591 c 2,30,-1
 876 1591 l 2,31,32
 957 1591 957 1591 1019 1517.5 c 128,-1,33
 1081 1444 1081 1444 1081 1339 c 2,34,-1
 1081 1131 l 2,0,1
EndSplineSet
EndChar

StartChar: oslash
Encoding: 248 248 227
Width: 1376
Flags: HMW
HStem: 0 171<373.5 466 466 466 466 910> 876 171<466 910 910 910>
VStem: 237 229<252 793 793 864> 910 229<793 864 793 876>
LayerCount: 2
Fore
SplineSet
250 -177 m 1,0,-1
 973 1223 l 1,1,-1
 1124 1223 l 1,2,-1
 401 -177 l 1,3,-1
 250 -177 l 1,0,-1
237 252 m 2,4,5
 237 148 237 148 292.5 74 c 128,-1,6
 348 0 348 0 425 0 c 2,7,-1
 948 0 l 2,8,9
 1026 0 1026 0 1082 74 c 128,-1,10
 1138 148 1138 148 1138 252 c 2,11,-1
 1139 793 l 2,12,13
 1139 899 1139 899 1083 973 c 128,-1,14
 1027 1047 1027 1047 948 1047 c 2,15,-1
 425 1047 l 2,16,17
 347 1047 347 1047 292 973 c 128,-1,18
 237 899 237 899 237 793 c 2,19,-1
 237 252 l 2,4,5
466 171 m 1,20,-1
 466 876 l 1,21,-1
 910 876 l 1,22,-1
 910 171 l 1,23,-1
 466 171 l 1,20,-1
EndSplineSet
EndChar

StartChar: fi
Encoding: 64257 64257 228
Width: 1635
Flags: HMW
HStem: 0 171<1308.5 1623 1409 1449> 894 154<213 293 213 293 531 1170> 1417 174<531 807 531 531>
VStem: 293 238<-339 -269 -269 894 1048 1336 1336 1406.5> 1170 239<254 894 894 894>
LayerCount: 2
Fore
SplineSet
1406 1338.5 m 128,-1,1
 1356 1289 1356 1289 1286.5 1289 c 128,-1,2
 1217 1289 1217 1289 1168 1338 c 128,-1,3
 1119 1387 1119 1387 1119 1457 c 128,-1,4
 1119 1527 1119 1527 1168 1576.5 c 128,-1,5
 1217 1626 1217 1626 1287 1626 c 128,-1,6
 1357 1626 1357 1626 1406.5 1576.5 c 128,-1,7
 1456 1527 1456 1527 1456 1457.5 c 128,-1,0
 1456 1388 1456 1388 1406 1338.5 c 128,-1,1
531 -269 m 2,8,9
 531 -374 531 -374 471.5 -449.5 c 128,-1,10
 412 -525 412 -525 329 -525 c 2,11,-1
 293 -525 l 1,12,-1
 293 894 l 1,13,-1
 213 894 l 1,14,-1
 213 1048 l 1,15,-1
 293 1048 l 1,16,-1
 293 1336 l 2,17,18
 293 1442 293 1442 348.5 1516.5 c 128,-1,19
 404 1591 404 1591 483 1591 c 2,20,-1
 807 1591 l 1,21,-1
 807 1417 l 1,22,-1
 531 1417 l 1,23,-1
 531 1048 l 1,24,-1
 1409 1048 l 1,25,-1
 1409 171 l 1,26,-1
 1623 171 l 1,27,28
 1616 100 1616 100 1565.5 50 c 128,-1,29
 1515 0 1515 0 1449 0 c 2,30,-1
 1361 0 l 2,31,32
 1282 0 1282 0 1226 74.5 c 128,-1,33
 1170 149 1170 149 1170 254 c 2,34,-1
 1170 894 l 1,35,-1
 531 894 l 1,36,-1
 531 -269 l 2,8,9
EndSplineSet
EndChar

StartChar: fl
Encoding: 64258 64258 229
Width: 1634
Flags: HMW
HStem: 0 171<1307.5 1621 1408 1444> 894 154<213 293 213 293 531 777> 1417 174<531 1169 531 531>
VStem: 293 238<-339 -269 -269 894 1048 1336 1336 1406.5> 1169 239<254 1417 1417 1417>
LayerCount: 2
Fore
SplineSet
531 -269 m 2,0,1
 531 -374 531 -374 471.5 -449.5 c 128,-1,2
 412 -525 412 -525 329 -525 c 2,3,-1
 293 -525 l 1,4,-1
 293 894 l 1,5,-1
 213 894 l 1,6,-1
 213 1048 l 1,7,-1
 293 1048 l 1,8,-1
 293 1336 l 2,9,10
 293 1442 293 1442 348.5 1516.5 c 128,-1,11
 404 1591 404 1591 483 1591 c 2,12,-1
 1408 1591 l 1,13,-1
 1408 171 l 1,14,-1
 1621 171 l 1,15,16
 1609 93 1609 93 1559.5 46.5 c 128,-1,17
 1510 0 1510 0 1444 0 c 2,18,-1
 1360 0 l 2,19,20
 1281 0 1281 0 1225 74.5 c 128,-1,21
 1169 149 1169 149 1169 254 c 2,22,-1
 1169 1417 l 1,23,-1
 531 1417 l 1,24,-1
 531 1048 l 1,25,-1
 777 1048 l 1,26,-1
 777 894 l 1,27,-1
 531 894 l 1,28,-1
 531 -269 l 2,0,1
EndSplineSet
EndChar

StartChar: ff
Encoding: 64256 64256 230
Width: 1704
Flags: HMW
HStem: 894 154<213 293 213 293 531 1065 1065 1065 1065 1091 1091 1145 1383 1629> 1417 174<531 861 531 531 1383 1383 1383 1713>
VStem: 293 238<-339 -269 -269 894 1048 1336 1336 1406.5> 1145 238<-339 -269 -269 894 1048 1336 1336 1406.5>
LayerCount: 2
Fore
SplineSet
531 -269 m 2,0,1
 531 -374 531 -374 471.5 -449.5 c 128,-1,2
 412 -525 412 -525 329 -525 c 2,3,-1
 293 -525 l 1,4,-1
 293 894 l 1,5,-1
 213 894 l 1,6,-1
 213 1048 l 1,7,-1
 293 1048 l 1,8,-1
 293 1336 l 2,9,10
 293 1442 293 1442 348.5 1516.5 c 128,-1,11
 404 1591 404 1591 483 1591 c 2,12,-1
 861 1591 l 1,13,-1
 861 1417 l 1,14,-1
 531 1417 l 1,15,-1
 531 1048 l 1,16,-1
 1091 1048 l 1,17,-1
 1065 894 l 1,18,-1
 531 894 l 1,19,-1
 531 -269 l 2,0,1
1383 -269 m 2,20,21
 1383 -374 1383 -374 1323.5 -449.5 c 128,-1,22
 1264 -525 1264 -525 1181 -525 c 2,23,-1
 1145 -525 l 1,24,-1
 1145 894 l 1,25,-1
 1065 894 l 1,26,-1
 1065 1048 l 1,27,-1
 1145 1048 l 1,28,-1
 1145 1336 l 2,29,30
 1145 1442 1145 1442 1200.5 1516.5 c 128,-1,31
 1256 1591 1256 1591 1335 1591 c 2,32,-1
 1713 1591 l 1,33,-1
 1713 1417 l 1,34,-1
 1383 1417 l 1,35,-1
 1383 1048 l 1,36,-1
 1629 1048 l 1,37,-1
 1629 894 l 1,38,-1
 1383 894 l 1,39,-1
 1383 -269 l 2,20,21
EndSplineSet
EndChar

StartChar: ffl
Encoding: 64260 64260 231
Width: 2386
Flags: HMW
HStem: 0 171<2059.5 2373 2160 2196> 894 154<213 293 213 293 531 1145 1383 1629> 1417 174<531 861 531 531 1383 1922 1922 1932 1383 1383>
VStem: 293 238<-339 -269 -269 894 1048 1336 1336 1406.5> 1145 7 1921 11<1417 1417 1417 1591>
LayerCount: 2
Fore
SplineSet
1921 254 m 2,0,-1
 1921 1591 l 1,1,-1
 2160 1591 l 1,2,-1
 2160 171 l 1,3,-1
 2373 171 l 1,4,5
 2361 93 2361 93 2311.5 46.5 c 128,-1,6
 2262 0 2262 0 2196 0 c 2,7,-1
 2112 0 l 2,8,9
 2033 0 2033 0 1977 74.5 c 128,-1,10
 1921 149 1921 149 1921 254 c 2,0,-1
1145 -525 m 1,11,-1
 1145 1336 l 2,12,13
 1145 1442 1145 1442 1200.5 1516.5 c 128,-1,14
 1256 1591 1256 1591 1335 1591 c 2,15,-1
 1922 1591 l 1,16,-1
 1932 1417 l 1,17,-1
 1383 1417 l 1,18,-1
 1383 1048 l 1,19,-1
 1629 1048 l 1,20,-1
 1629 894 l 1,21,-1
 1383 894 l 1,22,-1
 1383 -269 l 2,23,24
 1383 -374 1383 -374 1323.5 -449.5 c 128,-1,25
 1264 -525 1264 -525 1181 -525 c 2,26,-1
 1145 -525 l 1,11,-1
531 -269 m 2,27,28
 531 -374 531 -374 471.5 -449.5 c 128,-1,29
 412 -525 412 -525 329 -525 c 2,30,-1
 293 -525 l 1,31,-1
 293 894 l 1,32,-1
 213 894 l 1,33,-1
 213 1048 l 1,34,-1
 293 1048 l 1,35,-1
 293 1336 l 2,36,37
 293 1442 293 1442 348.5 1516.5 c 128,-1,38
 404 1591 404 1591 483 1591 c 2,39,-1
 861 1591 l 1,40,-1
 861 1417 l 1,41,-1
 531 1417 l 1,42,-1
 531 1048 l 1,43,-1
 1145 1048 l 1,44,-1
 1160 894 l 1,45,-1
 531 894 l 1,46,-1
 531 -269 l 2,27,28
EndSplineSet
EndChar

StartChar: ellipsis
Encoding: 8230 8230 232
Width: 2565
Flags: HMW
HStem: -12 337<380.5 473 1235.5 1328 2090.5 2183>
VStem: 259 337<109.5 202.5> 1114 337<109.5 202.5> 1969 337<109.5 202.5>
CounterMasks: 1 70
LayerCount: 2
Fore
SplineSet
1969 156 m 128,-1,1
 1969 226 1969 226 2018 275.5 c 128,-1,2
 2067 325 2067 325 2137 325 c 128,-1,3
 2207 325 2207 325 2256.5 275.5 c 128,-1,4
 2306 226 2306 226 2306 156.5 c 0,5,6
 2306 87 2306 87 2256 37.5 c 128,-1,7
 2206 -12 2206 -12 2136.5 -12 c 0,8,9
 2067 -12 2067 -12 2018 37 c 128,-1,0
 1969 86 1969 86 1969 156 c 128,-1,1
1114 156 m 128,-1,11
 1114 226 1114 226 1163 275.5 c 128,-1,12
 1212 325 1212 325 1282 325 c 128,-1,13
 1352 325 1352 325 1401.5 275.5 c 128,-1,14
 1451 226 1451 226 1451 156.5 c 0,15,16
 1451 87 1451 87 1401 37.5 c 128,-1,17
 1351 -12 1351 -12 1281.5 -12 c 0,18,19
 1212 -12 1212 -12 1163 37 c 128,-1,10
 1114 86 1114 86 1114 156 c 128,-1,11
259 156 m 128,-1,21
 259 226 259 226 308 275.5 c 128,-1,22
 357 325 357 325 427 325 c 128,-1,23
 497 325 497 325 546.5 275.5 c 128,-1,24
 596 226 596 226 596 156.5 c 0,25,26
 596 87 596 87 546 37.5 c 128,-1,27
 496 -12 496 -12 426.5 -12 c 0,28,29
 357 -12 357 -12 308 37 c 128,-1,20
 259 86 259 86 259 156 c 128,-1,21
EndSplineSet
EndChar

StartChar: Yacute
Encoding: 221 221 233
Width: 1365
Flags: HMW
HStem: 0 171<638 1118 638 1166> 406 172<545 733 640 711> 1345 171<373 400> 1630 370
VStem: 400 240<658 1345 1345 1345> 634 547 1118 238<183 251 251 618 618 618 815 1516>
LayerCount: 2
Fore
SplineSet
463 0 m 1,0,1
 471 71 471 71 521.5 121 c 128,-1,2
 572 171 572 171 638 171 c 2,3,-1
 1118 171 l 1,4,-1
 1118 618 l 1,5,-1
 814 434 l 1,6,7
 767 404 767 404 711 406 c 1,8,-1
 598 406 l 2,9,10
 518 406 518 406 459 480 c 128,-1,11
 400 554 400 554 400 658 c 2,12,-1
 400 1345 l 1,13,-1
 188 1345 l 1,14,15
 196 1417 196 1417 248.5 1466.5 c 128,-1,16
 301 1516 301 1516 373 1516 c 2,17,-1
 640 1516 l 1,18,-1
 640 578 l 1,19,-1
 733 578 l 1,20,-1
 1118 815 l 1,21,-1
 1118 1516 l 1,22,-1
 1356 1516 l 1,23,-1
 1356 251 l 2,24,25
 1356 149 1356 149 1300 74.5 c 128,-1,26
 1244 0 1244 0 1166 0 c 2,27,-1
 463 0 l 1,0,1
689 1630 m 1,28,-1
 634 1724 l 1,29,-1
 977 1971 l 2,30,31
 1033 2011 1033 2011 1088 1997 c 128,-1,32
 1143 1983 1143 1983 1170 1923 c 128,-1,33
 1197 1863 1197 1863 1164.5 1805.5 c 128,-1,34
 1132 1748 1132 1748 1070 1732 c 2,35,-1
 689 1630 l 1,28,-1
EndSplineSet
EndChar

StartChar: ij
Encoding: 307 307 234
Width: 1364
Flags: HMW
HStem: -541 173<753 899 753 949 753 899> 0 171<355.5 670 456 496> 1027 20G<217 456 456 456 899 1138 1138 1138>
VStem: 217 239<254 1047 171 1047> 899 239<-355 -285 -285 1047>
LayerCount: 2
Fore
SplineSet
453 1338.5 m 128,-1,1
 403 1289 403 1289 333.5 1289 c 128,-1,2
 264 1289 264 1289 215 1338 c 128,-1,3
 166 1387 166 1387 166 1457 c 128,-1,4
 166 1527 166 1527 215 1576.5 c 128,-1,5
 264 1626 264 1626 334 1626 c 128,-1,6
 404 1626 404 1626 453.5 1576.5 c 128,-1,7
 503 1527 503 1527 503 1457.5 c 128,-1,0
 503 1388 503 1388 453 1338.5 c 128,-1,1
217 254 m 2,8,-1
 217 1047 l 1,9,-1
 456 1047 l 1,10,-1
 456 171 l 1,11,-1
 670 171 l 1,12,13
 663 100 663 100 612.5 50 c 128,-1,14
 562 0 562 0 496 0 c 2,15,-1
 408 0 l 2,16,17
 329 0 329 0 273 74.5 c 128,-1,18
 217 149 217 149 217 254 c 2,8,-1
1135 1338.5 m 128,-1,20
 1085 1289 1085 1289 1015.5 1289 c 128,-1,21
 946 1289 946 1289 897 1338 c 128,-1,22
 848 1387 848 1387 848 1457 c 128,-1,23
 848 1527 848 1527 897 1576.5 c 128,-1,24
 946 1626 946 1626 1016 1626 c 128,-1,25
 1086 1626 1086 1626 1135.5 1576.5 c 128,-1,26
 1185 1527 1185 1527 1185 1457.5 c 128,-1,19
 1185 1388 1185 1388 1135 1338.5 c 128,-1,20
753 -368 m 1,27,-1
 899 -368 l 1,28,-1
 899 1047 l 1,29,-1
 1138 1047 l 1,30,-1
 1138 -285 l 2,31,32
 1138 -390 1138 -390 1082.5 -465.5 c 128,-1,33
 1027 -541 1027 -541 949 -541 c 2,34,-1
 753 -541 l 1,35,-1
 753 -368 l 1,27,-1
EndSplineSet
EndChar

StartChar: Ocircumflex
Encoding: 212 212 235
Width: 1365
Flags: HMW
HStem: 0 171<339.5 923 442 923 442 971> 1347 169<442 923 442 442> 1615 389<659.5 985>
VStem: 203 239<252 1262 1262 1333> 303 758<1710 1710> 923 239<1262 1333 1262 1347 1262 1347>
LayerCount: 2
Fore
SplineSet
203 252 m 2,0,-1
 203 1262 l 2,1,2
 203 1368 203 1368 258 1442 c 128,-1,3
 313 1516 313 1516 391 1516 c 2,4,-1
 971 1516 l 2,5,6
 1050 1516 1050 1516 1106 1442 c 128,-1,7
 1162 1368 1162 1368 1162 1262 c 2,8,-1
 1161 252 l 2,9,10
 1161 148 1161 148 1105 74 c 128,-1,11
 1049 0 1049 0 971 0 c 2,12,-1
 391 0 l 2,13,14
 314 0 314 0 258.5 74 c 128,-1,15
 203 148 203 148 203 252 c 2,0,-1
442 171 m 1,16,-1
 923 171 l 1,17,-1
 923 1347 l 1,18,-1
 442 1347 l 1,19,-1
 442 171 l 1,16,-1
683 1787 m 1,20,-1
 375 1615 l 1,21,-1
 303 1710 l 1,22,-1
 542 1938 l 2,23,24
 611 2004 611 2004 683 2004 c 128,-1,25
 755 2004 755 2004 822 1938 c 1,26,-1
 1061 1710 l 1,27,28
 1043.11764706 1686.52941176 1043.11764706 1686.52941176 985 1615 c 1,29,-1
 683 1787 l 1,20,-1
EndSplineSet
EndChar

StartChar: Ograve
Encoding: 210 210 236
Width: 1365
Flags: HMW
HStem: 0 171<339.5 923 442 923 442 971> 1347 169<442 923 442 442> 1633 371
VStem: 203 239<252 1262 1262 1333> 290 547 923 239<1262 1333 1262 1347 1262 1347>
LayerCount: 2
Fore
SplineSet
203 252 m 2,0,-1
 203 1262 l 2,1,2
 203 1368 203 1368 258 1442 c 128,-1,3
 313 1516 313 1516 391 1516 c 2,4,-1
 971 1516 l 2,5,6
 1050 1516 1050 1516 1106 1442 c 128,-1,7
 1162 1368 1162 1368 1162 1262 c 2,8,-1
 1161 252 l 2,9,10
 1161 148 1161 148 1105 74 c 128,-1,11
 1049 0 1049 0 971 0 c 2,12,-1
 391 0 l 2,13,14
 314 0 314 0 258.5 74 c 128,-1,15
 203 148 203 148 203 252 c 2,0,-1
442 171 m 1,16,-1
 923 171 l 1,17,-1
 923 1347 l 1,18,-1
 442 1347 l 1,19,-1
 442 171 l 1,16,-1
782 1633 m 1,20,-1
 401 1735 l 2,21,22
 339 1751 339 1751 306.5 1808.5 c 128,-1,23
 274 1866 274 1866 301 1926 c 128,-1,24
 328 1986 328 1986 383 2000 c 128,-1,25
 438 2014 438 2014 494 1974 c 2,26,-1
 837 1727 l 1,27,-1
 782 1633 l 1,20,-1
EndSplineSet
EndChar

StartChar: Oacute
Encoding: 211 211 237
Width: 1365
Flags: HMW
HStem: 0 171<339.5 923 442 923 442 971> 1347 169<442 923 442 442> 1630 370
VStem: 203 239<252 1262 1262 1333> 504 547 923 239<1262 1333 1262 1347 1262 1347>
LayerCount: 2
Fore
SplineSet
203 252 m 2,0,-1
 203 1262 l 2,1,2
 203 1368 203 1368 258 1442 c 128,-1,3
 313 1516 313 1516 391 1516 c 2,4,-1
 971 1516 l 2,5,6
 1050 1516 1050 1516 1106 1442 c 128,-1,7
 1162 1368 1162 1368 1162 1262 c 2,8,-1
 1161 252 l 2,9,10
 1161 148 1161 148 1105 74 c 128,-1,11
 1049 0 1049 0 971 0 c 2,12,-1
 391 0 l 2,13,14
 314 0 314 0 258.5 74 c 128,-1,15
 203 148 203 148 203 252 c 2,0,-1
442 171 m 1,16,-1
 923 171 l 1,17,-1
 923 1347 l 1,18,-1
 442 1347 l 1,19,-1
 442 171 l 1,16,-1
559 1630 m 1,20,-1
 504 1724 l 1,21,-1
 847 1971 l 2,22,23
 903 2011 903 2011 958 1997 c 128,-1,24
 1013 1983 1013 1983 1040 1923 c 128,-1,25
 1067 1863 1067 1863 1034.5 1805.5 c 128,-1,26
 1002 1748 1002 1748 940 1732 c 2,27,-1
 559 1630 l 1,20,-1
EndSplineSet
EndChar

StartChar: Nacute
Encoding: 323 323 238
Width: 1365
Flags: HMW
HStem: 0 172<1078 1413 1188 1238> 1496 20G<230 467 467 467 967.5 1052.5> 1630 370
VStem: 230 237<0 944 1149 1516> 529 547 943 245<252 1284 172 1315 172 1315>
LayerCount: 2
Fore
SplineSet
230 0 m 1,0,-1
 230 1516 l 1,1,-1
 467 1516 l 1,2,-1
 467 1149 l 1,3,-1
 840 1441 l 1,4,5
 932.307692308 1516 932.307692308 1516 1005.65384615 1516 c 128,-1,6
 1079 1516 1079 1516 1133.5 1449 c 128,-1,7
 1188 1382 1188 1382 1188 1284 c 2,8,-1
 1188 172 l 1,9,-1
 1413 172 l 1,10,11
 1405 100 1405 100 1354.5 50 c 128,-1,12
 1304 0 1304 0 1238 0 c 2,13,-1
 1130 0 l 2,14,15
 1052 0 1052 0 997.5 74 c 128,-1,16
 943 148 943 148 943 252 c 2,17,-1
 943 1315 l 1,18,-1
 467 944 l 1,19,-1
 467 0 l 1,20,-1
 230 0 l 1,0,-1
584 1630 m 1,21,-1
 529 1724 l 1,22,-1
 872 1971 l 2,23,24
 928 2011 928 2011 983 1997 c 128,-1,25
 1038 1983 1038 1983 1065 1923 c 128,-1,26
 1092 1863 1092 1863 1059.5 1805.5 c 128,-1,27
 1027 1748 1027 1748 965 1732 c 2,28,-1
 584 1630 l 1,21,-1
EndSplineSet
EndChar

StartChar: Igrave
Encoding: 204 204 239
Width: 1193
Flags: HMW
HStem: 0 171<396 711 396 711 396 761> 1347 169<383 711 383 383> 1633 371
VStem: 177 206<1002 1262 1262 1333> 233 547 711 240<182.5 252 252 1347 1347 1347>
LayerCount: 2
Fore
SplineSet
396 0 m 1,0,-1
 396 171 l 1,1,-1
 711 171 l 1,2,-1
 711 1347 l 1,3,-1
 383 1347 l 1,4,-1
 383 1002 l 1,5,-1
 177 1002 l 1,6,-1
 177 1262 l 2,7,8
 177 1368 177 1368 232.5 1442 c 128,-1,9
 288 1516 288 1516 368 1516 c 2,10,-1
 951 1516 l 1,11,-1
 951 252 l 2,12,13
 951 148 951 148 895 74 c 128,-1,14
 839 0 839 0 761 0 c 2,15,-1
 396 0 l 1,0,-1
725 1633 m 1,16,-1
 344 1735 l 2,17,18
 282 1751 282 1751 249.5 1808.5 c 128,-1,19
 217 1866 217 1866 244 1926 c 128,-1,20
 271 1986 271 1986 326 2000 c 128,-1,21
 381 2014 381 2014 437 1974 c 2,22,-1
 780 1727 l 1,23,-1
 725 1633 l 1,16,-1
EndSplineSet
EndChar

StartChar: Iacute
Encoding: 205 205 240
Width: 1193
Flags: HMW
HStem: 0 171<396 711 396 711 396 761> 1347 169<383 711 383 383> 1630 370
VStem: 177 206<1002 1262 1262 1333> 447 547 711 240<182.5 252 252 1347 1347 1347>
LayerCount: 2
Fore
SplineSet
396 0 m 1,0,-1
 396 171 l 1,1,-1
 711 171 l 1,2,-1
 711 1347 l 1,3,-1
 383 1347 l 1,4,-1
 383 1002 l 1,5,-1
 177 1002 l 1,6,-1
 177 1262 l 2,7,8
 177 1368 177 1368 232.5 1442 c 128,-1,9
 288 1516 288 1516 368 1516 c 2,10,-1
 951 1516 l 1,11,-1
 951 252 l 2,12,13
 951 148 951 148 895 74 c 128,-1,14
 839 0 839 0 761 0 c 2,15,-1
 396 0 l 1,0,-1
502 1630 m 1,16,-1
 447 1724 l 1,17,-1
 790 1971 l 2,18,19
 846 2011 846 2011 901 1997 c 128,-1,20
 956 1983 956 1983 983 1923 c 128,-1,21
 1010 1863 1010 1863 977.5 1805.5 c 128,-1,22
 945 1748 945 1748 883 1732 c 2,23,-1
 502 1630 l 1,16,-1
EndSplineSet
EndChar

StartChar: Icircumflex
Encoding: 206 206 241
Width: 1193
Flags: HMW
HStem: 0 171<396 711 396 711 396 761> 1347 169<383 711 383 383> 1615 389<602.5 928>
VStem: 177 206<1002 1262 1262 1333> 246 758<1710 1710> 711 240<182.5 252 252 1347 1347 1347>
LayerCount: 2
Fore
SplineSet
396 0 m 1,0,-1
 396 171 l 1,1,-1
 711 171 l 1,2,-1
 711 1347 l 1,3,-1
 383 1347 l 1,4,-1
 383 1002 l 1,5,-1
 177 1002 l 1,6,-1
 177 1262 l 2,7,8
 177 1368 177 1368 232.5 1442 c 128,-1,9
 288 1516 288 1516 368 1516 c 2,10,-1
 951 1516 l 1,11,-1
 951 252 l 2,12,13
 951 148 951 148 895 74 c 128,-1,14
 839 0 839 0 761 0 c 2,15,-1
 396 0 l 1,0,-1
626 1787 m 1,16,-1
 318 1615 l 1,17,-1
 246 1710 l 1,18,-1
 485 1938 l 2,19,20
 554 2004 554 2004 626 2004 c 128,-1,21
 698 2004 698 2004 765 1938 c 1,22,-1
 1004 1710 l 1,23,24
 986.117647059 1686.52941176 986.117647059 1686.52941176 928 1615 c 1,25,-1
 626 1787 l 1,16,-1
EndSplineSet
EndChar

StartChar: Agrave
Encoding: 192 192 242
Width: 1365
Flags: HMW
HStem: 0 21G<210 210 210 446 1060 1060 1060 1299> 381 171<159 1048> 1347 169<660 843 660 660> 1633 371
VStem: -16 1315<0 381> 372 547
LayerCount: 2
Fore
SplineSet
660 1347 m 1,0,-1
 446 0 l 1,1,-1
 210 0 l 1,2,-1
 438 1327 l 2,3,4
 452 1408 452 1408 509.5 1462 c 128,-1,5
 567 1516 567 1516 633 1516 c 2,6,-1
 876 1516 l 2,7,8
 941 1516 941 1516 999 1461.5 c 128,-1,9
 1057 1407 1057 1407 1071 1326 c 2,10,-1
 1299 0 l 1,11,-1
 1060 0 l 1,12,-1
 843 1347 l 1,13,-1
 660 1347 l 1,0,-1
-16 381 m 1,14,15
 -8 452 -8 452 42.5 502 c 128,-1,16
 93 552 93 552 159 552 c 2,17,-1
 1070 552 l 1,18,-1
 1048 381 l 1,19,-1
 -16 381 l 1,14,15
864 1633 m 1,20,-1
 483 1735 l 2,21,22
 421 1751 421 1751 388.5 1808.5 c 128,-1,23
 356 1866 356 1866 383 1926 c 128,-1,24
 410 1986 410 1986 465 2000 c 128,-1,25
 520 2014 520 2014 576 1974 c 2,26,-1
 919 1727 l 1,27,-1
 864 1633 l 1,20,-1
EndSplineSet
EndChar

StartChar: Aacute
Encoding: 193 193 243
Width: 1365
Flags: HMW
HStem: 0 21G<210 210 210 446 1060 1060 1060 1299> 381 171<159 1048> 1347 169<660 843 660 660> 1630 370
VStem: -16 1315<0 381> 586 547
LayerCount: 2
Fore
SplineSet
660 1347 m 1,0,-1
 446 0 l 1,1,-1
 210 0 l 1,2,-1
 438 1327 l 2,3,4
 452 1408 452 1408 509.5 1462 c 128,-1,5
 567 1516 567 1516 633 1516 c 2,6,-1
 876 1516 l 2,7,8
 941 1516 941 1516 999 1461.5 c 128,-1,9
 1057 1407 1057 1407 1071 1326 c 2,10,-1
 1299 0 l 1,11,-1
 1060 0 l 1,12,-1
 843 1347 l 1,13,-1
 660 1347 l 1,0,-1
-16 381 m 1,14,15
 -8 452 -8 452 42.5 502 c 128,-1,16
 93 552 93 552 159 552 c 2,17,-1
 1070 552 l 1,18,-1
 1048 381 l 1,19,-1
 -16 381 l 1,14,15
641 1630 m 1,20,-1
 586 1724 l 1,21,-1
 929 1971 l 2,22,23
 985 2011 985 2011 1040 1997 c 128,-1,24
 1095 1983 1095 1983 1122 1923 c 128,-1,25
 1149 1863 1149 1863 1116.5 1805.5 c 128,-1,26
 1084 1748 1084 1748 1022 1732 c 2,27,-1
 641 1630 l 1,20,-1
EndSplineSet
EndChar

StartChar: Acircumflex
Encoding: 194 194 244
Width: 1365
Flags: HMW
HStem: 0 21G<210 210 210 446 1060 1060 1060 1299> 381 171<159 1048> 1347 169<660 843 660 660> 1615 389<741.5 1067>
VStem: -16 1315<0 381> 385 758<1710 1710>
LayerCount: 2
Fore
SplineSet
660 1347 m 1,0,-1
 446 0 l 1,1,-1
 210 0 l 1,2,-1
 438 1327 l 2,3,4
 452 1408 452 1408 509.5 1462 c 128,-1,5
 567 1516 567 1516 633 1516 c 2,6,-1
 876 1516 l 2,7,8
 941 1516 941 1516 999 1461.5 c 128,-1,9
 1057 1407 1057 1407 1071 1326 c 2,10,-1
 1299 0 l 1,11,-1
 1060 0 l 1,12,-1
 843 1347 l 1,13,-1
 660 1347 l 1,0,-1
-16 381 m 1,14,15
 -8 452 -8 452 42.5 502 c 128,-1,16
 93 552 93 552 159 552 c 2,17,-1
 1070 552 l 1,18,-1
 1048 381 l 1,19,-1
 -16 381 l 1,14,15
765 1787 m 1,20,-1
 457 1615 l 1,21,-1
 385 1710 l 1,22,-1
 624 1938 l 2,23,24
 693 2004 693 2004 765 2004 c 128,-1,25
 837 2004 837 2004 904 1938 c 1,26,-1
 1143 1710 l 1,27,28
 1125.11764706 1686.52941176 1125.11764706 1686.52941176 1067 1615 c 1,29,-1
 765 1787 l 1,20,-1
EndSplineSet
EndChar

StartChar: Aring
Encoding: 197 197 245
Width: 1365
Flags: HMW
HStem: 0 21G<210 210 210 446 1060 1060 1060 1299> 381 171<159 1048> 1347 169<660 843 660 660> 1427 154<728 802 728 845> 1852 152<728 802>
VStem: -16 1315<0 381> 477 155<1678.5 1752 1678.5 1795> 899 155<1678.5 1752>
LayerCount: 2
Fore
SplineSet
660 1347 m 1,0,-1
 446 0 l 1,1,-1
 210 0 l 1,2,-1
 438 1327 l 2,3,4
 452 1408 452 1408 509.5 1462 c 128,-1,5
 567 1516 567 1516 633 1516 c 2,6,-1
 876 1516 l 2,7,8
 941 1516 941 1516 999 1461.5 c 128,-1,9
 1057 1407 1057 1407 1071 1326 c 2,10,-1
 1299 0 l 1,11,-1
 1060 0 l 1,12,-1
 843 1347 l 1,13,-1
 660 1347 l 1,0,-1
-16 381 m 1,14,15
 -8 452 -8 452 42.5 502 c 128,-1,16
 93 552 93 552 159 552 c 2,17,-1
 1070 552 l 1,18,-1
 1048 381 l 1,19,-1
 -16 381 l 1,14,15
969.5 1511.5 m 128,-1,21
 1054 1596 1054 1596 1054 1715.5 c 128,-1,22
 1054 1835 1054 1835 969.5 1919.5 c 128,-1,23
 885 2004 885 2004 765.5 2004 c 128,-1,24
 646 2004 646 2004 561.5 1919.5 c 128,-1,25
 477 1835 477 1835 477 1715.5 c 128,-1,26
 477 1596 477 1596 561.5 1511.5 c 128,-1,27
 646 1427 646 1427 765.5 1427 c 128,-1,20
 885 1427 885 1427 969.5 1511.5 c 128,-1,21
671 1620.5 m 128,-1,29
 632 1660 632 1660 632 1715.5 c 128,-1,30
 632 1771 632 1771 671 1811.5 c 128,-1,31
 710 1852 710 1852 765 1852 c 128,-1,32
 820 1852 820 1852 859.5 1811.5 c 128,-1,33
 899 1771 899 1771 899 1715.5 c 128,-1,34
 899 1660 899 1660 860 1620.5 c 128,-1,35
 821 1581 821 1581 765.5 1581 c 128,-1,28
 710 1581 710 1581 671 1620.5 c 128,-1,29
EndSplineSet
EndChar

StartChar: Racute
Encoding: 340 340 246
Width: 1365
Flags: HMW
HStem: 0 172<1058 1423 1160 1248> 564 171<139 237 139 237 474 883> 1345 171<474 883 474 474> 1630 370
VStem: 237 237<0 564 564 564 735 1345> 517 547 883 237<832.5 889 889 1262> 920 241<403 453.5 403 564 403 564>
LayerCount: 2
Fore
SplineSet
237 0 m 1,0,-1
 237 564 l 1,1,-1
 -36 564 l 1,2,3
 -29 635 -29 635 21.5 685 c 128,-1,4
 72 735 72 735 139 735 c 2,5,-1
 237 735 l 1,6,-1
 237 1516 l 1,7,-1
 915 1516 l 2,8,9
 996 1516 996 1516 1058 1441.5 c 128,-1,10
 1120 1367 1120 1367 1120 1262 c 2,11,-1
 1120 889 l 2,12,13
 1120 803 1120 803 1074 734.5 c 128,-1,14
 1028 666 1028 666 946 635 c 1,15,16
 948 634 948 634 951 651 c 128,-1,17
 954 668 954 668 957 667 c 0,18,19
 1024 653 1024 653 1072 608 c 0,20,21
 1161 524.5625 1161 524.5625 1161 403 c 2,22,-1
 1160 172 l 1,23,-1
 1423 172 l 1,24,25
 1415 100 1415 100 1364.5 50 c 128,-1,26
 1314 0 1314 0 1248 0 c 2,27,-1
 1110 0 l 2,28,29
 1032 0 1032 0 976 74 c 128,-1,30
 920 148 920 148 920 252 c 2,31,-1
 920 564 l 1,32,-1
 474 564 l 1,33,-1
 473 0 l 1,34,-1
 237 0 l 1,0,-1
474 735 m 1,35,-1
 883 735 l 1,36,-1
 883 1345 l 1,37,-1
 474 1345 l 1,38,-1
 474 735 l 1,35,-1
572 1630 m 1,39,-1
 517 1724 l 1,40,-1
 860 1971 l 2,41,42
 916 2011 916 2011 971 1997 c 128,-1,43
 1026 1983 1026 1983 1053 1923 c 128,-1,44
 1080 1863 1080 1863 1047.5 1805.5 c 128,-1,45
 1015 1748 1015 1748 953 1732 c 2,46,-1
 572 1630 l 1,39,-1
EndSplineSet
EndChar

StartChar: Rcommaaccent
Encoding: 342 342 247
Width: 1365
Flags: HMW
HStem: -556 21G<680 680> 0 172<1058 1423 1160 1248> 564 171<139 237 139 237 474 883> 1345 171<474 883 474 474>
VStem: 237 237<0 564 564 564 735 1345> 562 338<-234.5 -160> 883 237<832.5 889 889 1262> 920 241<403 453.5 403 564 403 564>
LayerCount: 2
Fore
SplineSet
237 0 m 1,0,-1
 237 564 l 1,1,-1
 -36 564 l 1,2,3
 -29 635 -29 635 21.5 685 c 128,-1,4
 72 735 72 735 139 735 c 2,5,-1
 237 735 l 1,6,-1
 237 1516 l 1,7,-1
 915 1516 l 2,8,9
 996 1516 996 1516 1058 1441.5 c 128,-1,10
 1120 1367 1120 1367 1120 1262 c 2,11,-1
 1120 889 l 2,12,13
 1120 803 1120 803 1074 734.5 c 128,-1,14
 1028 666 1028 666 946 635 c 1,15,16
 948 634 948 634 951 651 c 128,-1,17
 954 668 954 668 957 667 c 0,18,19
 1024 653 1024 653 1072 608 c 0,20,21
 1161 524.5625 1161 524.5625 1161 403 c 2,22,-1
 1160 172 l 1,23,-1
 1423 172 l 1,24,25
 1415 100 1415 100 1364.5 50 c 128,-1,26
 1314 0 1314 0 1248 0 c 2,27,-1
 1110 0 l 2,28,29
 1032 0 1032 0 976 74 c 128,-1,30
 920 148 920 148 920 252 c 2,31,-1
 920 564 l 1,32,-1
 474 564 l 1,33,-1
 473 0 l 1,34,-1
 237 0 l 1,0,-1
474 735 m 1,35,-1
 883 735 l 1,36,-1
 883 1345 l 1,37,-1
 474 1345 l 1,38,-1
 474 735 l 1,35,-1
654 -332 m 1,39,40
 562 -290.380952381 562 -290.380952381 562 -213.19047619 c 128,-1,41
 562 -136 562 -136 610.5 -87.5 c 128,-1,42
 659 -39 659 -39 730 -39 c 128,-1,43
 801 -39 801 -39 850.5 -88 c 128,-1,44
 900 -137 900 -137 900 -193 c 128,-1,45
 900 -249 900 -249 886 -288 c 128,-1,46
 872 -327 872 -327 834.5 -377 c 0,47,48
 785.795918367 -441.93877551 785.795918367 -441.93877551 680 -556 c 1,49,-1
 586 -511 l 1,50,-1
 654 -332 l 1,39,40
EndSplineSet
EndChar

StartChar: Ugrave
Encoding: 217 217 248
Width: 1365
Flags: HMW
HStem: 0 172<1163 1188> 0 182<352 540 447 520> 1496 20G<207 447 447 447 925 1163 1163 1163> 1633 371
VStem: 207 240<252 1516 182 1516> 315 547 925 238<172 288 288 288 486 1516 172 1516>
LayerCount: 2
Fore
SplineSet
207 252 m 2,0,-1
 207 1516 l 1,1,-1
 447 1516 l 1,2,-1
 447 182 l 1,3,-1
 540 182 l 1,4,-1
 925 486 l 1,5,-1
 925 1516 l 1,6,-1
 1163 1516 l 1,7,-1
 1163 172 l 1,8,-1
 1363 172 l 1,9,10
 1355 100 1355 100 1304.5 50 c 128,-1,11
 1254 0 1254 0 1188 0 c 2,12,-1
 925 0 l 1,13,-1
 925 288 l 1,14,-1
 608 33 l 1,15,16
 570 0 570 0 520 0 c 2,17,-1
 405 0 l 2,18,19
 325 0 325 0 266 74 c 128,-1,20
 207 148 207 148 207 252 c 2,0,-1
807 1633 m 1,21,-1
 426 1735 l 2,22,23
 364 1751 364 1751 331.5 1808.5 c 128,-1,24
 299 1866 299 1866 326 1926 c 128,-1,25
 353 1986 353 1986 408 2000 c 128,-1,26
 463 2014 463 2014 519 1974 c 2,27,-1
 862 1727 l 1,28,-1
 807 1633 l 1,21,-1
EndSplineSet
EndChar

StartChar: Uacute
Encoding: 218 218 249
Width: 1365
Flags: HMW
HStem: 0 172<1163 1188> 0 182<352 540 447 520> 1496 20G<207 447 447 447 925 1163 1163 1163> 1630 370
VStem: 207 240<252 1516 182 1516> 529 547 925 238<172 288 288 288 486 1516 172 1516>
LayerCount: 2
Fore
SplineSet
207 252 m 2,0,-1
 207 1516 l 1,1,-1
 447 1516 l 1,2,-1
 447 182 l 1,3,-1
 540 182 l 1,4,-1
 925 486 l 1,5,-1
 925 1516 l 1,6,-1
 1163 1516 l 1,7,-1
 1163 172 l 1,8,-1
 1363 172 l 1,9,10
 1355 100 1355 100 1304.5 50 c 128,-1,11
 1254 0 1254 0 1188 0 c 2,12,-1
 925 0 l 1,13,-1
 925 288 l 1,14,-1
 608 33 l 1,15,16
 570 0 570 0 520 0 c 2,17,-1
 405 0 l 2,18,19
 325 0 325 0 266 74 c 128,-1,20
 207 148 207 148 207 252 c 2,0,-1
584 1630 m 1,21,-1
 529 1724 l 1,22,-1
 872 1971 l 2,23,24
 928 2011 928 2011 983 1997 c 128,-1,25
 1038 1983 1038 1983 1065 1923 c 128,-1,26
 1092 1863 1092 1863 1059.5 1805.5 c 128,-1,27
 1027 1748 1027 1748 965 1732 c 2,28,-1
 584 1630 l 1,21,-1
EndSplineSet
EndChar

StartChar: Ucircumflex
Encoding: 219 219 250
Width: 1365
Flags: HMW
HStem: 0 172<1163 1188> 0 182<352 540 447 520> 1496 20G<207 447 447 447 925 1163 1163 1163> 1615 389<684.5 1010>
VStem: 207 240<252 1516 182 1516> 328 758<1710 1710> 925 238<172 288 288 288 486 1516 172 1516>
LayerCount: 2
Fore
SplineSet
207 252 m 2,0,-1
 207 1516 l 1,1,-1
 447 1516 l 1,2,-1
 447 182 l 1,3,-1
 540 182 l 1,4,-1
 925 486 l 1,5,-1
 925 1516 l 1,6,-1
 1163 1516 l 1,7,-1
 1163 172 l 1,8,-1
 1363 172 l 1,9,10
 1355 100 1355 100 1304.5 50 c 128,-1,11
 1254 0 1254 0 1188 0 c 2,12,-1
 925 0 l 1,13,-1
 925 288 l 1,14,-1
 608 33 l 1,15,16
 570 0 570 0 520 0 c 2,17,-1
 405 0 l 2,18,19
 325 0 325 0 266 74 c 128,-1,20
 207 148 207 148 207 252 c 2,0,-1
708 1787 m 1,21,-1
 400 1615 l 1,22,-1
 328 1710 l 1,23,-1
 567 1938 l 2,24,25
 636 2004 636 2004 708 2004 c 128,-1,26
 780 2004 780 2004 847 1938 c 1,27,-1
 1086 1710 l 1,28,29
 1068.11764706 1686.52941176 1068.11764706 1686.52941176 1010 1615 c 1,30,-1
 708 1787 l 1,21,-1
EndSplineSet
EndChar

StartChar: Jcircumflex
Encoding: 308 308 251
Width: 1365
Flags: HMW
HStem: 0 171<374 896 472 896 472 956> 1347 169<457 896 457 1147> 1615 389<754.5 1080>
VStem: 237 235<252 670 171 670> 398 758<1710 1710> 896 251<184.5 254 254 1347 1347 1347>
LayerCount: 2
Fore
SplineSet
237 252 m 2,0,-1
 237 670 l 1,1,-1
 472 670 l 1,2,-1
 472 171 l 1,3,-1
 896 171 l 1,4,-1
 896 1347 l 1,5,-1
 457 1347 l 1,6,-1
 457 1516 l 1,7,-1
 1147 1516 l 1,8,-1
 1147 254 l 2,9,10
 1147 149 1147 149 1091 74.5 c 128,-1,11
 1035 0 1035 0 956 0 c 2,12,-1
 426 0 l 2,13,14
 348 0 348 0 292.5 74 c 128,-1,15
 237 148 237 148 237 252 c 2,0,-1
778 1787 m 1,16,-1
 470 1615 l 1,17,-1
 398 1710 l 1,18,-1
 637 1938 l 2,19,20
 706 2004 706 2004 778 2004 c 128,-1,21
 850 2004 850 2004 917 1938 c 1,22,-1
 1156 1710 l 1,23,24
 1138.11764706 1686.52941176 1138.11764706 1686.52941176 1080 1615 c 1,25,-1
 778 1787 l 1,16,-1
EndSplineSet
EndChar

StartChar: Egrave
Encoding: 200 200 252
Width: 1193
Flags: HMW
HStem: 0 171<403 1171 506 996> 564 161<149 902 149 902> 1347 169<506 1082 506 506> 1633 371
VStem: 266 240<252 1262 1262 1333> 350 547
LayerCount: 2
Fore
SplineSet
266 252 m 2,0,-1
 266 1262 l 2,1,2
 266 1368 266 1368 321 1442 c 128,-1,3
 376 1516 376 1516 454 1516 c 2,4,-1
 1082 1516 l 1,5,-1
 1082 1347 l 1,6,-1
 506 1347 l 1,7,-1
 506 171 l 1,8,-1
 1171 171 l 1,9,10
 1163 100 1163 100 1112.5 50 c 128,-1,11
 1062 0 1062 0 996 0 c 2,12,-1
 456 0 l 2,13,14
 377 0 377 0 321.5 73.5 c 128,-1,15
 266 147 266 147 266 252 c 2,0,-1
-16 564 m 1,16,17
 -10 631 -10 631 38 678 c 128,-1,18
 86 725 86 725 149 725 c 2,19,-1
 902 725 l 1,20,-1
 902 564 l 1,21,-1
 -16 564 l 1,16,17
842 1633 m 1,22,-1
 461 1735 l 2,23,24
 399 1751 399 1751 366.5 1808.5 c 128,-1,25
 334 1866 334 1866 361 1926 c 128,-1,26
 388 1986 388 1986 443 2000 c 128,-1,27
 498 2014 498 2014 554 1974 c 2,28,-1
 897 1727 l 1,29,-1
 842 1633 l 1,22,-1
EndSplineSet
EndChar

StartChar: Eacute
Encoding: 201 201 253
Width: 1193
Flags: HMW
HStem: 0 171<403 1171 506 996> 564 161<149 902 149 902> 1347 169<506 1082 506 506> 1630 370
VStem: 266 240<252 1262 1262 1333> 564 547
LayerCount: 2
Fore
SplineSet
266 252 m 2,0,-1
 266 1262 l 2,1,2
 266 1368 266 1368 321 1442 c 128,-1,3
 376 1516 376 1516 454 1516 c 2,4,-1
 1082 1516 l 1,5,-1
 1082 1347 l 1,6,-1
 506 1347 l 1,7,-1
 506 171 l 1,8,-1
 1171 171 l 1,9,10
 1163 100 1163 100 1112.5 50 c 128,-1,11
 1062 0 1062 0 996 0 c 2,12,-1
 456 0 l 2,13,14
 377 0 377 0 321.5 73.5 c 128,-1,15
 266 147 266 147 266 252 c 2,0,-1
-16 564 m 1,16,17
 -10 631 -10 631 38 678 c 128,-1,18
 86 725 86 725 149 725 c 2,19,-1
 902 725 l 1,20,-1
 902 564 l 1,21,-1
 -16 564 l 1,16,17
619 1630 m 1,22,-1
 564 1724 l 1,23,-1
 907 1971 l 2,24,25
 963 2011 963 2011 1018 1997 c 128,-1,26
 1073 1983 1073 1983 1100 1923 c 128,-1,27
 1127 1863 1127 1863 1094.5 1805.5 c 128,-1,28
 1062 1748 1062 1748 1000 1732 c 2,29,-1
 619 1630 l 1,22,-1
EndSplineSet
EndChar

StartChar: Ecircumflex
Encoding: 202 202 254
Width: 1193
Flags: HMW
HStem: 0 171<403 1171 506 996> 564 161<149 902 149 902> 1347 169<506 1082 506 506> 1615 389<719.5 1045>
VStem: 266 240<252 1262 1262 1333> 363 758<1710 1710>
LayerCount: 2
Fore
SplineSet
266 252 m 2,0,-1
 266 1262 l 2,1,2
 266 1368 266 1368 321 1442 c 128,-1,3
 376 1516 376 1516 454 1516 c 2,4,-1
 1082 1516 l 1,5,-1
 1082 1347 l 1,6,-1
 506 1347 l 1,7,-1
 506 171 l 1,8,-1
 1171 171 l 1,9,10
 1163 100 1163 100 1112.5 50 c 128,-1,11
 1062 0 1062 0 996 0 c 2,12,-1
 456 0 l 2,13,14
 377 0 377 0 321.5 73.5 c 128,-1,15
 266 147 266 147 266 252 c 2,0,-1
-16 564 m 1,16,17
 -10 631 -10 631 38 678 c 128,-1,18
 86 725 86 725 149 725 c 2,19,-1
 902 725 l 1,20,-1
 902 564 l 1,21,-1
 -16 564 l 1,16,17
743 1787 m 1,22,-1
 435 1615 l 1,23,-1
 363 1710 l 1,24,-1
 602 1938 l 2,25,26
 671 2004 671 2004 743 2004 c 128,-1,27
 815 2004 815 2004 882 1938 c 1,28,-1
 1121 1710 l 1,29,30
 1103.11764706 1686.52941176 1103.11764706 1686.52941176 1045 1615 c 1,31,-1
 743 1787 l 1,22,-1
EndSplineSet
EndChar

StartChar: Itilde
Encoding: 296 296 255
Width: 1193
Flags: HMW
HStem: 0 171<396 711 396 711 396 761> 1347 169<383 711 383 383> 1683 169<661 831> 1835 169<428 460 377 545>
VStem: 177 206<1002 1262 1262 1333> 205 797<1736 1951> 711 240<182.5 252 252 1347 1347 1347>
LayerCount: 2
Fore
SplineSet
396 0 m 1,0,-1
 396 171 l 1,1,-1
 711 171 l 1,2,-1
 711 1347 l 1,3,-1
 383 1347 l 1,4,-1
 383 1002 l 1,5,-1
 177 1002 l 1,6,-1
 177 1262 l 2,7,8
 177 1368 177 1368 232.5 1442 c 128,-1,9
 288 1516 288 1516 368 1516 c 2,10,-1
 951 1516 l 1,11,-1
 951 252 l 2,12,13
 951 148 951 148 895 74 c 128,-1,14
 839 0 839 0 761 0 c 2,15,-1
 396 0 l 1,0,-1
205 1736 m 1,16,17
 211 1771 211 1771 222 1822 c 0,18,19
 238 1901 238 1901 316 1952.5 c 128,-1,20
 394 2004 394 2004 482 2004 c 0,21,22
 570 2004 570 2004 637 1962 c 128,-1,23
 704 1920 704 1920 740 1852 c 1,24,-1
 831 1852 l 1,25,-1
 879 1951 l 1,26,-1
 1002 1951 l 1,27,28
 994 1890 994 1890 987 1865 c 1,29,30
 968 1784 968 1784 890.5 1733 c 128,-1,31
 813 1682 813 1682 724 1682.5 c 0,32,33
 635 1683 635 1683 566 1725 c 128,-1,34
 497 1767 497 1767 460 1835 c 1,35,-1
 377 1835 l 1,36,-1
 328 1736 l 1,37,-1
 205 1736 l 1,16,17
EndSplineSet
EndChar

StartChar: Atilde
Encoding: 195 195 256
Width: 1365
Flags: HMW
HStem: 0 21G<210 210 210 446 1060 1060 1060 1299> 381 171<159 1048> 1347 169<660 843 660 660> 1683 169<800 970> 1835 169<567 599 516 684>
VStem: -16 1315<0 381> 344 797<1736 1951>
LayerCount: 2
Fore
SplineSet
660 1347 m 1,0,-1
 446 0 l 1,1,-1
 210 0 l 1,2,-1
 438 1327 l 2,3,4
 452 1408 452 1408 509.5 1462 c 128,-1,5
 567 1516 567 1516 633 1516 c 2,6,-1
 876 1516 l 2,7,8
 941 1516 941 1516 999 1461.5 c 128,-1,9
 1057 1407 1057 1407 1071 1326 c 2,10,-1
 1299 0 l 1,11,-1
 1060 0 l 1,12,-1
 843 1347 l 1,13,-1
 660 1347 l 1,0,-1
-16 381 m 1,14,15
 -8 452 -8 452 42.5 502 c 128,-1,16
 93 552 93 552 159 552 c 2,17,-1
 1070 552 l 1,18,-1
 1048 381 l 1,19,-1
 -16 381 l 1,14,15
344 1736 m 1,20,21
 350 1771 350 1771 361 1822 c 0,22,23
 377 1901 377 1901 455 1952.5 c 128,-1,24
 533 2004 533 2004 621 2004 c 128,-1,25
 709 2004 709 2004 776 1962 c 128,-1,26
 843 1920 843 1920 879 1852 c 1,27,-1
 970 1852 l 1,28,-1
 1018 1951 l 1,29,-1
 1141 1951 l 1,30,31
 1133 1890 1133 1890 1126 1865 c 1,32,33
 1107 1784 1107 1784 1029.5 1733 c 128,-1,34
 952 1682 952 1682 863 1682.5 c 128,-1,35
 774 1683 774 1683 705 1725 c 128,-1,36
 636 1767 636 1767 599 1835 c 1,37,-1
 516 1835 l 1,38,-1
 467 1736 l 1,39,-1
 344 1736 l 1,20,21
EndSplineSet
EndChar

